<ttFont>
<head>
    <!-- Most of this table will be recalculated by the compiler -->
    <tableVersion value="1.0"/>
    <fontRevision value="1.0"/>
    <checkSumAdjustment value="0x3d279d93"/>
    <magicNumber value="0x5f0f3cf5"/>
    <flags value="00000000 00011011"/>
    <unitsPerEm value="1000"/>
    <created value="Sat Dec  6 13:43:36 2025"/>
    <modified value="Sat Dec  6 13:51:10 2025"/>
    <xMin value="-53"/>
    <yMin value="-251"/>
    <xMax value="1139"/>
    <yMax value="750"/>
    <macStyle value="00000000 00000001"/>
    <lowestRecPPEM value="6"/>
    <fontDirectionHint value="2"/>
    <indexToLocFormat value="0"/>
    <glyphDataFormat value="0"/>
  </head>
    <TTGlyph name="A" xMin="39" yMin="0" xMax="810" yMax="700">
      <contour>
        <pt x="715" y="43" on="1"/>
        <pt x="810" y="43" on="1"/>
        <pt x="810" y="0" on="1"/>
        <pt x="801" y="1" on="0"/>
        <pt x="758" y="2" on="0"/>
        <pt x="709" y="2" on="0"/>
        <pt x="663" y="2" on="0"/>
        <pt x="651" y="2" on="1"/>
        <pt x="637" y="2" on="0"/>
        <pt x="590" y="2" on="0"/>
        <pt x="541" y="2" on="0"/>
        <pt x="496" y="1" on="0"/>
        <pt x="484" y="0" on="1"/>
        <pt x="484" y="43" on="1"/>
        <pt x="578" y="43" on="1"/>
        <pt x="515" y="199" on="1"/>
        <pt x="247" y="199" on="1"/>
        <pt x="194" y="69" on="1"/>
        <pt x="192" y="66" on="0"/>
        <pt x="191" y="61" on="0"/>
        <pt x="189" y="54" on="1"/>
        <pt x="210" y="46" on="0"/>
        <pt x="260" y="43" on="0"/>
        <pt x="277" y="43" on="1"/>
        <pt x="277" y="0" on="1"/>
        <pt x="268" y="1" on="0"/>
        <pt x="235" y="2" on="0"/>
        <pt x="199" y="2" on="0"/>
        <pt x="164" y="2" on="0"/>
        <pt x="154" y="2" on="1"/>
        <pt x="143" y="2" on="0"/>
        <pt x="112" y="2" on="0"/>
        <pt x="79" y="2" on="0"/>
        <pt x="49" y="1" on="0"/>
        <pt x="39" y="0" on="1"/>
        <pt x="39" y="43" on="1"/>
        <pt x="57" y="43" on="1"/>
        <pt x="65" y="43" on="0"/>
        <pt x="76" y="43" on="0"/>
        <pt x="87" y="44" on="0"/>
        <pt x="99" y="45" on="0"/>
        <pt x="108" y="46" on="1"/>
        <pt x="129" y="48" on="0"/>
        <pt x="138" y="55" on="0"/>
        <pt x="143" y="67" on="1"/>
        <pt x="391" y="677" on="1"/>
        <pt x="396" y="691" on="0"/>
        <pt x="406" y="700" on="0"/>
        <pt x="425" y="700" on="1"/>
        <pt x="443" y="700" on="0"/>
        <pt x="453" y="691" on="0"/>
        <pt x="458" y="677" on="1"/>
      </contour>
      <contour>
        <pt x="264" y="242" on="1"/>
        <pt x="497" y="242" on="1"/>
        <pt x="381" y="530" on="1"/>
      </contour>
    </TTGlyph>
    <TTGlyph name="AE" xMin="39" yMin="0" xMax="987" yMax="686">
      <contour>
        <pt x="944" y="0" on="1"/>
        <pt x="392" y="0" on="1"/>
        <pt x="392" y="43" on="1"/>
        <pt x="472" y="43" on="1"/>
        <pt x="472" y="308" on="1"/>
        <pt x="293" y="308" on="1"/>
        <pt x="194" y="68" on="1"/>
        <pt x="193" y="66" on="0"/>
        <pt x="190" y="58" on="0"/>
        <pt x="190" y="56" on="1"/>
        <pt x="190" y="51" on="0"/>
        <pt x="215" y="46" on="0"/>
        <pt x="246" y="43" on="0"/>
        <pt x="274" y="43" on="0"/>
        <pt x="278" y="43" on="1"/>
        <pt x="278" y="0" on="1"/>
        <pt x="269" y="1" on="0"/>
        <pt x="236" y="2" on="0"/>
        <pt x="199" y="2" on="0"/>
        <pt x="165" y="2" on="0"/>
        <pt x="154" y="2" on="1"/>
        <pt x="143" y="2" on="0"/>
        <pt x="112" y="2" on="0"/>
        <pt x="79" y="2" on="0"/>
        <pt x="49" y="1" on="0"/>
        <pt x="39" y="0" on="1"/>
        <pt x="39" y="43" on="1"/>
        <pt x="58" y="43" on="1"/>
        <pt x="66" y="43" on="0"/>
        <pt x="78" y="43" on="0"/>
        <pt x="88" y="44" on="0"/>
        <pt x="101" y="45" on="0"/>
        <pt x="110" y="46" on="1"/>
        <pt x="120" y="48" on="0"/>
        <pt x="131" y="50" on="0"/>
        <pt x="137" y="54" on="0"/>
        <pt x="141" y="61" on="0"/>
        <pt x="144" y="68" on="1"/>
        <pt x="382" y="643" on="1"/>
        <pt x="303" y="643" on="1"/>
        <pt x="303" y="686" on="1"/>
        <pt x="927" y="686" on="1"/>
        <pt x="956" y="449" on="1"/>
        <pt x="914" y="449" on="1"/>
        <pt x="909" y="494" on="0"/>
        <pt x="892" y="565" on="0"/>
        <pt x="852" y="616" on="0"/>
        <pt x="782" y="643" on="0"/>
        <pt x="723" y="643" on="1"/>
        <pt x="595" y="643" on="1"/>
        <pt x="595" y="351" on="1"/>
        <pt x="662" y="351" on="1"/>
        <pt x="698" y="351" on="0"/>
        <pt x="741" y="366" on="0"/>
        <pt x="763" y="396" on="0"/>
        <pt x="769" y="440" on="0"/>
        <pt x="769" y="468" on="1"/>
        <pt x="811" y="468" on="1"/>
        <pt x="811" y="191" on="1"/>
        <pt x="769" y="191" on="1"/>
        <pt x="769" y="219" on="0"/>
        <pt x="763" y="263" on="0"/>
        <pt x="741" y="293" on="0"/>
        <pt x="698" y="308" on="0"/>
        <pt x="662" y="308" on="1"/>
        <pt x="595" y="308" on="1"/>
        <pt x="595" y="43" on="1"/>
        <pt x="727" y="43" on="1"/>
        <pt x="790" y="43" on="0"/>
        <pt x="868" y="73" on="0"/>
        <pt x="914" y="132" on="0"/>
        <pt x="937" y="216" on="0"/>
        <pt x="945" y="270" on="1"/>
        <pt x="987" y="270" on="1"/>
      </contour>
      <contour>
        <pt x="311" y="351" on="1"/>
        <pt x="472" y="351" on="1"/>
        <pt x="472" y="643" on="1"/>
        <pt x="432" y="643" on="1"/>
      </contour>
    </TTGlyph>
    <TTGlyph name="B" xMin="39" yMin="0" xMax="737" yMax="686">
      <contour>
        <pt x="461" y="686" on="1"/>
        <pt x="521" y="686" on="0"/>
        <pt x="612" y="658" on="0"/>
        <pt x="674" y="611" on="0"/>
        <pt x="705" y="549" on="0"/>
        <pt x="705" y="514" on="1"/>
        <pt x="705" y="496" on="0"/>
        <pt x="692" y="451" on="0"/>
        <pt x="654" y="406" on="0"/>
        <pt x="587" y="368" on="0"/>
        <pt x="533" y="358" on="1"/>
        <pt x="578" y="355" on="0"/>
        <pt x="653" y="326" on="0"/>
        <pt x="707" y="281" on="0"/>
        <pt x="737" y="221" on="0"/>
        <pt x="737" y="185" on="1"/>
        <pt x="737" y="149" on="0"/>
        <pt x="707" y="82" on="0"/>
        <pt x="645" y="31" on="0"/>
        <pt x="553" y="0" on="0"/>
        <pt x="491" y="0" on="1"/>
        <pt x="39" y="0" on="1"/>
        <pt x="39" y="43" on="1"/>
        <pt x="145" y="43" on="1"/>
        <pt x="145" y="643" on="1"/>
        <pt x="39" y="643" on="1"/>
        <pt x="39" y="686" on="1"/>
      </contour>
      <contour>
        <pt x="417" y="373" on="1"/>
        <pt x="461" y="373" on="0"/>
        <pt x="521" y="398" on="0"/>
        <pt x="557" y="438" on="0"/>
        <pt x="573" y="489" on="0"/>
        <pt x="573" y="515" on="1"/>
        <pt x="573" y="534" on="0"/>
        <pt x="563" y="578" on="0"/>
        <pt x="536" y="617" on="0"/>
        <pt x="488" y="643" on="0"/>
        <pt x="449" y="643" on="1"/>
        <pt x="268" y="643" on="1"/>
        <pt x="268" y="373" on="1"/>
      </contour>
      <contour>
        <pt x="452" y="43" on="1"/>
        <pt x="495" y="43" on="0"/>
        <pt x="552" y="70" on="0"/>
        <pt x="587" y="112" on="0"/>
        <pt x="601" y="163" on="0"/>
        <pt x="601" y="187" on="1"/>
        <pt x="601" y="204" on="0"/>
        <pt x="592" y="256" on="0"/>
        <pt x="564" y="305" on="0"/>
        <pt x="511" y="340" on="0"/>
        <pt x="467" y="340" on="1"/>
        <pt x="268" y="340" on="1"/>
        <pt x="268" y="43" on="1"/>
      </contour>
    </TTGlyph>
    <TTGlyph name="C" xMin="62" yMin="-12" xMax="749" yMax="698">
      <contour>
        <pt x="749" y="454" on="1"/>
        <pt x="749" y="436" on="0"/>
        <pt x="743" y="428" on="0"/>
        <pt x="726" y="428" on="1"/>
        <pt x="717" y="428" on="0"/>
        <pt x="705" y="430" on="0"/>
        <pt x="703" y="437" on="1"/>
        <pt x="692" y="503" on="0"/>
        <pt x="639" y="588" on="0"/>
        <pt x="574" y="636" on="0"/>
        <pt x="505" y="655" on="0"/>
        <pt x="477" y="655" on="1"/>
        <pt x="459" y="655" on="0"/>
        <pt x="406" y="650" on="0"/>
        <pt x="348" y="632" on="0"/>
        <pt x="289" y="598" on="0"/>
        <pt x="265" y="570" on="1"/>
        <pt x="230" y="528" on="0"/>
        <pt x="203" y="417" on="0"/>
        <pt x="203" y="343" on="1"/>
        <pt x="203" y="291" on="0"/>
        <pt x="214" y="217" on="0"/>
        <pt x="233" y="163" on="0"/>
        <pt x="257" y="126" on="0"/>
        <pt x="270" y="112" on="1"/>
        <pt x="291" y="88" on="0"/>
        <pt x="343" y="57" on="0"/>
        <pt x="399" y="39" on="0"/>
        <pt x="455" y="31" on="0"/>
        <pt x="479" y="31" on="1"/>
        <pt x="513" y="31" on="0"/>
        <pt x="590" y="52" on="0"/>
        <pt x="657" y="100" on="0"/>
        <pt x="704" y="178" on="0"/>
        <pt x="707" y="235" on="1"/>
        <pt x="708" y="243" on="0"/>
        <pt x="720" y="246" on="0"/>
        <pt x="728" y="246" on="1"/>
        <pt x="739" y="246" on="0"/>
        <pt x="749" y="241" on="0"/>
        <pt x="749" y="228" on="1"/>
        <pt x="749" y="184" on="0"/>
        <pt x="708" y="98" on="0"/>
        <pt x="631" y="30" on="0"/>
        <pt x="523" y="-12" on="0"/>
        <pt x="456" y="-12" on="1"/>
        <pt x="364" y="-12" on="0"/>
        <pt x="218" y="41" on="0"/>
        <pt x="116" y="136" on="0"/>
        <pt x="62" y="266" on="0"/>
        <pt x="62" y="343" on="1"/>
        <pt x="62" y="422" on="0"/>
        <pt x="118" y="552" on="0"/>
        <pt x="220" y="646" on="0"/>
        <pt x="365" y="698" on="0"/>
        <pt x="455" y="698" on="1"/>
        <pt x="568" y="698" on="0"/>
        <pt x="652" y="626" on="1"/>
        <pt x="727" y="698" on="1"/>
        <pt x="744" y="698" on="0"/>
        <pt x="749" y="689" on="0"/>
        <pt x="749" y="672" on="1"/>
      </contour>
    </TTGlyph>
    <TTGlyph name="D" xMin="38" yMin="0" xMax="799" yMax="686">
      <contour>
        <pt x="459" y="686" on="1"/>
        <pt x="530" y="686" on="0"/>
        <pt x="653" y="641" on="0"/>
        <pt x="746" y="552" on="0"/>
        <pt x="799" y="422" on="0"/>
        <pt x="799" y="337" on="1"/>
        <pt x="799" y="257" on="0"/>
        <pt x="747" y="131" on="0"/>
        <pt x="655" y="45" on="0"/>
        <pt x="531" y="0" on="0"/>
        <pt x="459" y="0" on="1"/>
        <pt x="38" y="0" on="1"/>
        <pt x="38" y="43" on="1"/>
        <pt x="144" y="43" on="1"/>
        <pt x="144" y="643" on="1"/>
        <pt x="38" y="643" on="1"/>
        <pt x="38" y="686" on="1"/>
      </contour>
      <contour>
        <pt x="421" y="43" on="1"/>
        <pt x="489" y="43" on="0"/>
        <pt x="587" y="87" on="0"/>
        <pt x="613" y="122" on="1"/>
        <pt x="626" y="140" on="0"/>
        <pt x="645" y="179" on="0"/>
        <pt x="657" y="229" on="0"/>
        <pt x="663" y="294" on="0"/>
        <pt x="663" y="338" on="1"/>
        <pt x="663" y="386" on="0"/>
        <pt x="656" y="455" on="0"/>
        <pt x="644" y="506" on="0"/>
        <pt x="626" y="542" on="0"/>
        <pt x="615" y="557" on="1"/>
        <pt x="587" y="596" on="0"/>
        <pt x="487" y="643" on="0"/>
        <pt x="421" y="643" on="1"/>
        <pt x="271" y="643" on="1"/>
        <pt x="271" y="43" on="1"/>
      </contour>
    </TTGlyph>
    <TTGlyph name="E" xMin="38" yMin="0" xMax="706" yMax="681">
      <contour>
        <pt x="663" y="0" on="1"/>
        <pt x="38" y="0" on="1"/>
        <pt x="38" y="43" on="1"/>
        <pt x="144" y="43" on="1"/>
        <pt x="144" y="638" on="1"/>
        <pt x="38" y="638" on="1"/>
        <pt x="38" y="681" on="1"/>
        <pt x="646" y="681" on="1"/>
        <pt x="675" y="444" on="1"/>
        <pt x="633" y="444" on="1"/>
        <pt x="627" y="492" on="0"/>
        <pt x="606" y="565" on="0"/>
        <pt x="562" y="614" on="0"/>
        <pt x="489" y="638" on="0"/>
        <pt x="432" y="638" on="1"/>
        <pt x="276" y="638" on="1"/>
        <pt x="276" y="375" on="1"/>
        <pt x="335" y="375" on="1"/>
        <pt x="371" y="375" on="0"/>
        <pt x="413" y="390" on="0"/>
        <pt x="435" y="420" on="0"/>
        <pt x="441" y="464" on="0"/>
        <pt x="441" y="492" on="1"/>
        <pt x="483" y="492" on="1"/>
        <pt x="483" y="215" on="1"/>
        <pt x="441" y="215" on="1"/>
        <pt x="441" y="244" on="0"/>
        <pt x="435" y="287" on="0"/>
        <pt x="413" y="317" on="0"/>
        <pt x="371" y="332" on="0"/>
        <pt x="335" y="332" on="1"/>
        <pt x="276" y="332" on="1"/>
        <pt x="276" y="43" on="1"/>
        <pt x="432" y="43" on="1"/>
        <pt x="497" y="43" on="0"/>
        <pt x="580" y="72" on="0"/>
        <pt x="631" y="129" on="0"/>
        <pt x="656" y="214" on="0"/>
        <pt x="664" y="270" on="1"/>
        <pt x="706" y="270" on="1"/>
      </contour>
    </TTGlyph>
    <TTGlyph name="F" xMin="38" yMin="0" xMax="659" yMax="681">
      <contour>
        <pt x="659" y="444" on="1"/>
        <pt x="617" y="444" on="1"/>
        <pt x="612" y="489" on="0"/>
        <pt x="593" y="561" on="0"/>
        <pt x="551" y="611" on="0"/>
        <pt x="479" y="638" on="0"/>
        <pt x="419" y="638" on="1"/>
        <pt x="276" y="638" on="1"/>
        <pt x="276" y="362" on="1"/>
        <pt x="331" y="362" on="1"/>
        <pt x="367" y="362" on="0"/>
        <pt x="409" y="378" on="0"/>
        <pt x="430" y="408" on="0"/>
        <pt x="435" y="452" on="0"/>
        <pt x="435" y="479" on="1"/>
        <pt x="477" y="479" on="1"/>
        <pt x="477" y="202" on="1"/>
        <pt x="435" y="202" on="1"/>
        <pt x="435" y="229" on="0"/>
        <pt x="430" y="273" on="0"/>
        <pt x="409" y="303" on="0"/>
        <pt x="367" y="319" on="0"/>
        <pt x="331" y="319" on="1"/>
        <pt x="276" y="319" on="1"/>
        <pt x="276" y="43" on="1"/>
        <pt x="409" y="43" on="1"/>
        <pt x="409" y="0" on="1"/>
        <pt x="391" y="1" on="0"/>
        <pt x="341" y="2" on="0"/>
        <pt x="289" y="2" on="0"/>
        <pt x="238" y="2" on="0"/>
        <pt x="218" y="2" on="1"/>
        <pt x="204" y="2" on="0"/>
        <pt x="153" y="2" on="0"/>
        <pt x="97" y="2" on="0"/>
        <pt x="49" y="1" on="0"/>
        <pt x="38" y="0" on="1"/>
        <pt x="38" y="43" on="1"/>
        <pt x="144" y="43" on="1"/>
        <pt x="144" y="638" on="1"/>
        <pt x="38" y="638" on="1"/>
        <pt x="38" y="681" on="1"/>
        <pt x="630" y="681" on="1"/>
      </contour>
    </TTGlyph>
    <TTGlyph name="G" xMin="62" yMin="-12" xMax="827" yMax="698">
      <contour>
        <pt x="749" y="26" on="1"/>
        <pt x="749" y="14" on="0"/>
        <pt x="746" y="0" on="0"/>
        <pt x="737" y="0" on="1"/>
        <pt x="736" y="0" on="0"/>
        <pt x="716" y="9" on="0"/>
        <pt x="687" y="24" on="0"/>
        <pt x="656" y="44" on="0"/>
        <pt x="643" y="56" on="1"/>
        <pt x="628" y="36" on="0"/>
        <pt x="584" y="10" on="0"/>
        <pt x="534" y="-6" on="0"/>
        <pt x="481" y="-12" on="0"/>
        <pt x="456" y="-12" on="1"/>
        <pt x="364" y="-12" on="0"/>
        <pt x="218" y="41" on="0"/>
        <pt x="116" y="136" on="0"/>
        <pt x="62" y="266" on="0"/>
        <pt x="62" y="343" on="1"/>
        <pt x="62" y="422" on="0"/>
        <pt x="118" y="552" on="0"/>
        <pt x="220" y="646" on="0"/>
        <pt x="365" y="698" on="0"/>
        <pt x="455" y="698" on="1"/>
        <pt x="568" y="698" on="0"/>
        <pt x="652" y="626" on="1"/>
        <pt x="727" y="698" on="1"/>
        <pt x="744" y="698" on="0"/>
        <pt x="749" y="689" on="0"/>
        <pt x="749" y="672" on="1"/>
        <pt x="749" y="454" on="1"/>
        <pt x="749" y="436" on="0"/>
        <pt x="743" y="428" on="0"/>
        <pt x="726" y="428" on="1"/>
        <pt x="717" y="428" on="0"/>
        <pt x="705" y="430" on="0"/>
        <pt x="703" y="437" on="1"/>
        <pt x="692" y="503" on="0"/>
        <pt x="639" y="588" on="0"/>
        <pt x="574" y="636" on="0"/>
        <pt x="505" y="655" on="0"/>
        <pt x="477" y="655" on="1"/>
        <pt x="459" y="655" on="0"/>
        <pt x="406" y="650" on="0"/>
        <pt x="348" y="632" on="0"/>
        <pt x="289" y="598" on="0"/>
        <pt x="265" y="570" on="1"/>
        <pt x="231" y="530" on="0"/>
        <pt x="203" y="422" on="0"/>
        <pt x="203" y="344" on="1"/>
        <pt x="203" y="299" on="0"/>
        <pt x="212" y="230" on="0"/>
        <pt x="228" y="176" on="0"/>
        <pt x="251" y="135" on="0"/>
        <pt x="266" y="118" on="1"/>
        <pt x="289" y="91" on="0"/>
        <pt x="347" y="57" on="0"/>
        <pt x="407" y="38" on="0"/>
        <pt x="463" y="31" on="0"/>
        <pt x="484" y="31" on="1"/>
        <pt x="516" y="31" on="0"/>
        <pt x="562" y="44" on="0"/>
        <pt x="577" y="54" on="1"/>
        <pt x="607" y="73" on="0"/>
        <pt x="617" y="112" on="0"/>
        <pt x="617" y="128" on="1"/>
        <pt x="617" y="230" on="1"/>
        <pt x="476" y="230" on="1"/>
        <pt x="476" y="273" on="1"/>
        <pt x="522" y="271" on="0"/>
        <pt x="618" y="271" on="0"/>
        <pt x="664" y="271" on="1"/>
        <pt x="676" y="271" on="0"/>
        <pt x="723" y="271" on="0"/>
        <pt x="774" y="271" on="0"/>
        <pt x="818" y="272" on="0"/>
        <pt x="827" y="273" on="1"/>
        <pt x="827" y="230" on="1"/>
        <pt x="749" y="230" on="1"/>
      </contour>
    </TTGlyph>
    <TTGlyph name="Gamma" xMin="38" yMin="0" xMax="628" yMax="681">
      <contour>
        <pt x="628" y="444" on="1"/>
        <pt x="586" y="444" on="1"/>
        <pt x="581" y="489" on="0"/>
        <pt x="564" y="561" on="0"/>
        <pt x="524" y="611" on="0"/>
        <pt x="454" y="638" on="0"/>
        <pt x="396" y="638" on="1"/>
        <pt x="276" y="638" on="1"/>
        <pt x="276" y="43" on="1"/>
        <pt x="409" y="43" on="1"/>
        <pt x="409" y="0" on="1"/>
        <pt x="391" y="1" on="0"/>
        <pt x="341" y="2" on="0"/>
        <pt x="289" y="2" on="0"/>
        <pt x="238" y="2" on="0"/>
        <pt x="218" y="2" on="1"/>
        <pt x="204" y="2" on="0"/>
        <pt x="153" y="2" on="0"/>
        <pt x="97" y="2" on="0"/>
        <pt x="49" y="1" on="0"/>
        <pt x="38" y="0" on="1"/>
        <pt x="38" y="43" on="1"/>
        <pt x="144" y="43" on="1"/>
        <pt x="144" y="638" on="1"/>
        <pt x="38" y="638" on="1"/>
        <pt x="38" y="681" on="1"/>
        <pt x="599" y="681" on="1"/>
      </contour>
    </TTGlyph>
    <TTGlyph name="H" xMin="38" yMin="0" xMax="841" yMax="686">
      <contour>
        <pt x="735" y="43" on="1"/>
        <pt x="841" y="43" on="1"/>
        <pt x="841" y="0" on="1"/>
        <pt x="830" y="1" on="0"/>
        <pt x="784" y="2" on="0"/>
        <pt x="731" y="2" on="0"/>
        <pt x="683" y="2" on="0"/>
        <pt x="669" y="2" on="1"/>
        <pt x="656" y="2" on="0"/>
        <pt x="607" y="2" on="0"/>
        <pt x="554" y="2" on="0"/>
        <pt x="508" y="1" on="0"/>
        <pt x="497" y="0" on="1"/>
        <pt x="497" y="43" on="1"/>
        <pt x="603" y="43" on="1"/>
        <pt x="603" y="335" on="1"/>
        <pt x="276" y="335" on="1"/>
        <pt x="276" y="43" on="1"/>
        <pt x="382" y="43" on="1"/>
        <pt x="382" y="0" on="1"/>
        <pt x="371" y="1" on="0"/>
        <pt x="325" y="2" on="0"/>
        <pt x="272" y="2" on="0"/>
        <pt x="224" y="2" on="0"/>
        <pt x="210" y="2" on="1"/>
        <pt x="197" y="2" on="0"/>
        <pt x="148" y="2" on="0"/>
        <pt x="95" y="2" on="0"/>
        <pt x="49" y="1" on="0"/>
        <pt x="38" y="0" on="1"/>
        <pt x="38" y="43" on="1"/>
        <pt x="144" y="43" on="1"/>
        <pt x="144" y="643" on="1"/>
        <pt x="38" y="643" on="1"/>
        <pt x="38" y="686" on="1"/>
        <pt x="49" y="685" on="0"/>
        <pt x="95" y="684" on="0"/>
        <pt x="148" y="684" on="0"/>
        <pt x="197" y="684" on="0"/>
        <pt x="210" y="684" on="1"/>
        <pt x="224" y="684" on="0"/>
        <pt x="272" y="684" on="0"/>
        <pt x="325" y="684" on="0"/>
        <pt x="371" y="685" on="0"/>
        <pt x="382" y="686" on="1"/>
        <pt x="382" y="643" on="1"/>
        <pt x="276" y="643" on="1"/>
        <pt x="276" y="378" on="1"/>
        <pt x="603" y="378" on="1"/>
        <pt x="603" y="643" on="1"/>
        <pt x="497" y="643" on="1"/>
        <pt x="497" y="686" on="1"/>
        <pt x="508" y="685" on="0"/>
        <pt x="554" y="684" on="0"/>
        <pt x="607" y="684" on="0"/>
        <pt x="656" y="684" on="0"/>
        <pt x="669" y="684" on="1"/>
        <pt x="683" y="684" on="0"/>
        <pt x="731" y="684" on="0"/>
        <pt x="784" y="684" on="0"/>
        <pt x="830" y="685" on="0"/>
        <pt x="841" y="686" on="1"/>
        <pt x="841" y="643" on="1"/>
        <pt x="735" y="643" on="1"/>
      </contour>
    </TTGlyph>
    <TTGlyph name="I" xMin="31" yMin="0" xMax="387" yMax="686">
      <contour>
        <pt x="275" y="43" on="1"/>
        <pt x="387" y="43" on="1"/>
        <pt x="387" y="0" on="1"/>
        <pt x="374" y="1" on="0"/>
        <pt x="326" y="2" on="0"/>
        <pt x="274" y="2" on="0"/>
        <pt x="225" y="2" on="0"/>
        <pt x="209" y="2" on="1"/>
        <pt x="193" y="2" on="0"/>
        <pt x="144" y="2" on="0"/>
        <pt x="92" y="2" on="0"/>
        <pt x="45" y="1" on="0"/>
        <pt x="31" y="0" on="1"/>
        <pt x="31" y="43" on="1"/>
        <pt x="143" y="43" on="1"/>
        <pt x="143" y="643" on="1"/>
        <pt x="31" y="643" on="1"/>
        <pt x="31" y="686" on="1"/>
        <pt x="45" y="685" on="0"/>
        <pt x="92" y="684" on="0"/>
        <pt x="144" y="684" on="0"/>
        <pt x="193" y="684" on="0"/>
        <pt x="209" y="684" on="1"/>
        <pt x="225" y="684" on="0"/>
        <pt x="274" y="684" on="0"/>
        <pt x="326" y="684" on="0"/>
        <pt x="374" y="685" on="0"/>
        <pt x="387" y="686" on="1"/>
        <pt x="387" y="643" on="1"/>
        <pt x="275" y="643" on="1"/>
      </contour>
    </TTGlyph>
    <TTGlyph name="J" xMin="31" yMin="-12" xMax="516" yMax="686">
      <contour>
        <pt x="436" y="149" on="1"/>
        <pt x="436" y="110" on="0"/>
        <pt x="403" y="50" on="0"/>
        <pt x="345" y="9" on="0"/>
        <pt x="264" y="-12" on="0"/>
        <pt x="216" y="-12" on="1"/>
        <pt x="176" y="-12" on="0"/>
        <pt x="108" y="6" on="0"/>
        <pt x="58" y="39" on="0"/>
        <pt x="31" y="86" on="0"/>
        <pt x="31" y="114" on="1"/>
        <pt x="31" y="149" on="0"/>
        <pt x="75" y="185" on="0"/>
        <pt x="102" y="185" on="1"/>
        <pt x="114" y="185" on="0"/>
        <pt x="138" y="177" on="0"/>
        <pt x="159" y="159" on="0"/>
        <pt x="172" y="132" on="0"/>
        <pt x="172" y="114" on="1"/>
        <pt x="172" y="91" on="0"/>
        <pt x="146" y="53" on="0"/>
        <pt x="119" y="46" on="1"/>
        <pt x="134" y="37" on="0"/>
        <pt x="164" y="26" on="0"/>
        <pt x="190" y="22" on="0"/>
        <pt x="208" y="21" on="0"/>
        <pt x="211" y="21" on="1"/>
        <pt x="231" y="21" on="0"/>
        <pt x="266" y="35" on="0"/>
        <pt x="293" y="65" on="0"/>
        <pt x="309" y="114" on="0"/>
        <pt x="309" y="149" on="1"/>
        <pt x="309" y="643" on="1"/>
        <pt x="171" y="643" on="1"/>
        <pt x="171" y="686" on="1"/>
        <pt x="189" y="685" on="0"/>
        <pt x="237" y="684" on="0"/>
        <pt x="288" y="684" on="0"/>
        <pt x="337" y="684" on="0"/>
        <pt x="356" y="684" on="1"/>
        <pt x="368" y="684" on="0"/>
        <pt x="414" y="684" on="0"/>
        <pt x="463" y="684" on="0"/>
        <pt x="507" y="685" on="0"/>
        <pt x="516" y="686" on="1"/>
        <pt x="516" y="643" on="1"/>
        <pt x="436" y="643" on="1"/>
      </contour>
    </TTGlyph>
    <TTGlyph name="K" xMin="38" yMin="0" xMax="833" yMax="686">
      <contour>
        <pt x="738" y="62" on="1"/>
        <pt x="742" y="57" on="0"/>
        <pt x="749" y="50" on="0"/>
        <pt x="762" y="45" on="0"/>
        <pt x="786" y="43" on="0"/>
        <pt x="806" y="43" on="1"/>
        <pt x="833" y="43" on="1"/>
        <pt x="833" y="0" on="1"/>
        <pt x="824" y="1" on="0"/>
        <pt x="785" y="2" on="0"/>
        <pt x="740" y="2" on="0"/>
        <pt x="697" y="2" on="0"/>
        <pt x="686" y="2" on="1"/>
        <pt x="672" y="2" on="0"/>
        <pt x="626" y="2" on="0"/>
        <pt x="578" y="2" on="0"/>
        <pt x="535" y="1" on="0"/>
        <pt x="523" y="0" on="1"/>
        <pt x="523" y="43" on="1"/>
        <pt x="531" y="43" on="0"/>
        <pt x="556" y="43" on="0"/>
        <pt x="578" y="45" on="0"/>
        <pt x="594" y="50" on="0"/>
        <pt x="594" y="54" on="1"/>
        <pt x="594" y="57" on="0"/>
        <pt x="590" y="64" on="0"/>
        <pt x="588" y="66" on="1"/>
        <pt x="379" y="345" on="1"/>
        <pt x="276" y="257" on="1"/>
        <pt x="276" y="43" on="1"/>
        <pt x="382" y="43" on="1"/>
        <pt x="382" y="0" on="1"/>
        <pt x="371" y="1" on="0"/>
        <pt x="325" y="2" on="0"/>
        <pt x="272" y="2" on="0"/>
        <pt x="224" y="2" on="0"/>
        <pt x="210" y="2" on="1"/>
        <pt x="197" y="2" on="0"/>
        <pt x="148" y="2" on="0"/>
        <pt x="95" y="2" on="0"/>
        <pt x="49" y="1" on="0"/>
        <pt x="38" y="0" on="1"/>
        <pt x="38" y="43" on="1"/>
        <pt x="144" y="43" on="1"/>
        <pt x="144" y="643" on="1"/>
        <pt x="38" y="643" on="1"/>
        <pt x="38" y="686" on="1"/>
        <pt x="49" y="685" on="0"/>
        <pt x="95" y="684" on="0"/>
        <pt x="148" y="684" on="0"/>
        <pt x="197" y="684" on="0"/>
        <pt x="210" y="684" on="1"/>
        <pt x="224" y="684" on="0"/>
        <pt x="272" y="684" on="0"/>
        <pt x="325" y="684" on="0"/>
        <pt x="371" y="685" on="0"/>
        <pt x="382" y="686" on="1"/>
        <pt x="382" y="643" on="1"/>
        <pt x="276" y="643" on="1"/>
        <pt x="276" y="312" on="1"/>
        <pt x="650" y="631" on="1"/>
        <pt x="650" y="632" on="1"/>
        <pt x="630" y="640" on="0"/>
        <pt x="595" y="643" on="0"/>
        <pt x="578" y="643" on="1"/>
        <pt x="578" y="686" on="1"/>
        <pt x="587" y="685" on="0"/>
        <pt x="623" y="684" on="0"/>
        <pt x="662" y="684" on="0"/>
        <pt x="700" y="684" on="0"/>
        <pt x="711" y="684" on="1"/>
        <pt x="728" y="684" on="0"/>
        <pt x="749" y="684" on="0"/>
        <pt x="769" y="684" on="0"/>
        <pt x="796" y="685" on="0"/>
        <pt x="818" y="686" on="1"/>
        <pt x="818" y="643" on="1"/>
        <pt x="785" y="643" on="0"/>
        <pt x="745" y="640" on="0"/>
        <pt x="723" y="635" on="0"/>
        <pt x="712" y="628" on="0"/>
        <pt x="707" y="624" on="1"/>
        <pt x="469" y="422" on="1"/>
      </contour>
    </TTGlyph>
    <TTGlyph name="L" xMin="38" yMin="0" xMax="628" yMax="686">
      <contour>
        <pt x="599" y="0" on="1"/>
        <pt x="38" y="0" on="1"/>
        <pt x="38" y="43" on="1"/>
        <pt x="144" y="43" on="1"/>
        <pt x="144" y="643" on="1"/>
        <pt x="38" y="643" on="1"/>
        <pt x="38" y="686" on="1"/>
        <pt x="49" y="685" on="0"/>
        <pt x="97" y="684" on="0"/>
        <pt x="153" y="684" on="0"/>
        <pt x="204" y="684" on="0"/>
        <pt x="218" y="684" on="1"/>
        <pt x="238" y="684" on="0"/>
        <pt x="289" y="684" on="0"/>
        <pt x="341" y="684" on="0"/>
        <pt x="391" y="685" on="0"/>
        <pt x="409" y="686" on="1"/>
        <pt x="409" y="643" on="1"/>
        <pt x="276" y="643" on="1"/>
        <pt x="276" y="43" on="1"/>
        <pt x="383" y="43" on="1"/>
        <pt x="451" y="43" on="0"/>
        <pt x="529" y="95" on="0"/>
        <pt x="570" y="167" on="0"/>
        <pt x="583" y="244" on="0"/>
        <pt x="586" y="270" on="1"/>
        <pt x="628" y="270" on="1"/>
      </contour>
    </TTGlyph>
    <TTGlyph name="Lambda" xMin="38" yMin="0" xMax="748" yMax="700">
      <contour>
        <pt x="664" y="43" on="1"/>
        <pt x="748" y="43" on="1"/>
        <pt x="748" y="0" on="1"/>
        <pt x="739" y="1" on="0"/>
        <pt x="698" y="2" on="0"/>
        <pt x="651" y="2" on="0"/>
        <pt x="607" y="2" on="0"/>
        <pt x="595" y="2" on="1"/>
        <pt x="581" y="2" on="0"/>
        <pt x="534" y="2" on="0"/>
        <pt x="485" y="2" on="0"/>
        <pt x="440" y="1" on="0"/>
        <pt x="428" y="0" on="1"/>
        <pt x="428" y="43" on="1"/>
        <pt x="523" y="43" on="1"/>
        <pt x="347" y="512" on="1"/>
        <pt x="181" y="68" on="1"/>
        <pt x="180" y="66" on="0"/>
        <pt x="176" y="56" on="0"/>
        <pt x="176" y="54" on="1"/>
        <pt x="186" y="50" on="0"/>
        <pt x="211" y="45" on="0"/>
        <pt x="236" y="43" on="0"/>
        <pt x="259" y="43" on="0"/>
        <pt x="266" y="43" on="1"/>
        <pt x="266" y="0" on="1"/>
        <pt x="257" y="1" on="0"/>
        <pt x="226" y="2" on="0"/>
        <pt x="190" y="2" on="0"/>
        <pt x="157" y="2" on="0"/>
        <pt x="146" y="2" on="1"/>
        <pt x="126" y="2" on="0"/>
        <pt x="99" y="2" on="0"/>
        <pt x="77" y="2" on="0"/>
        <pt x="54" y="1" on="0"/>
        <pt x="38" y="0" on="1"/>
        <pt x="38" y="43" on="1"/>
        <pt x="70" y="43" on="0"/>
        <pt x="105" y="46" on="0"/>
        <pt x="123" y="52" on="0"/>
        <pt x="129" y="61" on="0"/>
        <pt x="131" y="67" on="1"/>
        <pt x="360" y="677" on="1"/>
        <pt x="365" y="690" on="0"/>
        <pt x="375" y="700" on="0"/>
        <pt x="393" y="700" on="1"/>
        <pt x="411" y="700" on="0"/>
        <pt x="421" y="690" on="0"/>
        <pt x="426" y="677" on="1"/>
      </contour>
    </TTGlyph>
    <TTGlyph name="M" xMin="41" yMin="0" xMax="1025" yMax="686">
      <contour>
        <pt x="773" y="665" on="1"/>
        <pt x="780" y="681" on="0"/>
        <pt x="796" y="686" on="0"/>
        <pt x="812" y="686" on="1"/>
        <pt x="1025" y="686" on="1"/>
        <pt x="1025" y="643" on="1"/>
        <pt x="919" y="643" on="1"/>
        <pt x="919" y="43" on="1"/>
        <pt x="1025" y="43" on="1"/>
        <pt x="1025" y="0" on="1"/>
        <pt x="1015" y="1" on="0"/>
        <pt x="970" y="2" on="0"/>
        <pt x="920" y="2" on="0"/>
        <pt x="873" y="2" on="0"/>
        <pt x="860" y="2" on="1"/>
        <pt x="847" y="2" on="0"/>
        <pt x="800" y="2" on="0"/>
        <pt x="750" y="2" on="0"/>
        <pt x="705" y="1" on="0"/>
        <pt x="695" y="0" on="1"/>
        <pt x="695" y="43" on="1"/>
        <pt x="801" y="43" on="1"/>
        <pt x="801" y="643" on="1"/>
        <pt x="800" y="643" on="1"/>
        <pt x="523" y="21" on="1"/>
        <pt x="519" y="13" on="0"/>
        <pt x="508" y="0" on="0"/>
        <pt x="495" y="0" on="1"/>
        <pt x="482" y="0" on="0"/>
        <pt x="471" y="13" on="0"/>
        <pt x="467" y="21" on="1"/>
        <pt x="195" y="631" on="1"/>
        <pt x="194" y="631" on="1"/>
        <pt x="194" y="73" on="1"/>
        <pt x="194" y="56" on="0"/>
        <pt x="202" y="49" on="0"/>
        <pt x="224" y="46" on="1"/>
        <pt x="233" y="45" on="0"/>
        <pt x="244" y="44" on="0"/>
        <pt x="255" y="43" on="0"/>
        <pt x="267" y="43" on="0"/>
        <pt x="277" y="43" on="1"/>
        <pt x="300" y="43" on="1"/>
        <pt x="300" y="0" on="1"/>
        <pt x="291" y="1" on="0"/>
        <pt x="256" y="2" on="0"/>
        <pt x="217" y="2" on="0"/>
        <pt x="181" y="2" on="0"/>
        <pt x="170" y="2" on="1"/>
        <pt x="160" y="2" on="0"/>
        <pt x="123" y="2" on="0"/>
        <pt x="84" y="2" on="0"/>
        <pt x="50" y="1" on="0"/>
        <pt x="41" y="0" on="1"/>
        <pt x="41" y="43" on="1"/>
        <pt x="64" y="43" on="1"/>
        <pt x="93" y="43" on="0"/>
        <pt x="120" y="46" on="1"/>
        <pt x="140" y="49" on="0"/>
        <pt x="147" y="56" on="0"/>
        <pt x="147" y="73" on="1"/>
        <pt x="147" y="643" on="1"/>
        <pt x="41" y="643" on="1"/>
        <pt x="41" y="686" on="1"/>
        <pt x="254" y="686" on="1"/>
        <pt x="270" y="686" on="0"/>
        <pt x="286" y="681" on="0"/>
        <pt x="293" y="665" on="1"/>
        <pt x="533" y="127" on="1"/>
      </contour>
    </TTGlyph>
    <TTGlyph name="N" xMin="38" yMin="0" xMax="841" yMax="686">
      <contour>
        <pt x="688" y="195" on="1"/>
        <pt x="688" y="613" on="1"/>
        <pt x="688" y="630" on="0"/>
        <pt x="680" y="637" on="0"/>
        <pt x="658" y="640" on="1"/>
        <pt x="649" y="641" on="0"/>
        <pt x="638" y="642" on="0"/>
        <pt x="627" y="643" on="0"/>
        <pt x="615" y="643" on="0"/>
        <pt x="605" y="643" on="1"/>
        <pt x="582" y="643" on="1"/>
        <pt x="582" y="686" on="1"/>
        <pt x="591" y="685" on="0"/>
        <pt x="626" y="684" on="0"/>
        <pt x="665" y="684" on="0"/>
        <pt x="702" y="684" on="0"/>
        <pt x="712" y="684" on="1"/>
        <pt x="723" y="684" on="0"/>
        <pt x="759" y="684" on="0"/>
        <pt x="798" y="684" on="0"/>
        <pt x="832" y="685" on="0"/>
        <pt x="841" y="686" on="1"/>
        <pt x="841" y="643" on="1"/>
        <pt x="818" y="643" on="1"/>
        <pt x="789" y="643" on="0"/>
        <pt x="762" y="640" on="1"/>
        <pt x="742" y="637" on="0"/>
        <pt x="735" y="630" on="0"/>
        <pt x="735" y="613" on="1"/>
        <pt x="735" y="29" on="1"/>
        <pt x="735" y="12" on="0"/>
        <pt x="729" y="0" on="0"/>
        <pt x="711" y="0" on="1"/>
        <pt x="701" y="0" on="0"/>
        <pt x="694" y="4" on="0"/>
        <pt x="686" y="13" on="1"/>
        <pt x="191" y="609" on="1"/>
        <pt x="191" y="73" on="1"/>
        <pt x="191" y="56" on="0"/>
        <pt x="199" y="49" on="0"/>
        <pt x="221" y="46" on="1"/>
        <pt x="230" y="45" on="0"/>
        <pt x="241" y="44" on="0"/>
        <pt x="252" y="43" on="0"/>
        <pt x="264" y="43" on="0"/>
        <pt x="274" y="43" on="1"/>
        <pt x="297" y="43" on="1"/>
        <pt x="297" y="0" on="1"/>
        <pt x="288" y="1" on="0"/>
        <pt x="253" y="2" on="0"/>
        <pt x="214" y="2" on="0"/>
        <pt x="178" y="2" on="0"/>
        <pt x="167" y="2" on="1"/>
        <pt x="157" y="2" on="0"/>
        <pt x="120" y="2" on="0"/>
        <pt x="81" y="2" on="0"/>
        <pt x="47" y="1" on="0"/>
        <pt x="38" y="0" on="1"/>
        <pt x="38" y="43" on="1"/>
        <pt x="61" y="43" on="1"/>
        <pt x="90" y="43" on="0"/>
        <pt x="117" y="46" on="1"/>
        <pt x="137" y="49" on="0"/>
        <pt x="144" y="56" on="0"/>
        <pt x="144" y="73" on="1"/>
        <pt x="144" y="643" on="1"/>
        <pt x="38" y="643" on="1"/>
        <pt x="38" y="686" on="1"/>
        <pt x="259" y="686" on="1"/>
        <pt x="274" y="686" on="0"/>
        <pt x="282" y="682" on="0"/>
        <pt x="290" y="674" on="1"/>
      </contour>
    </TTGlyph>
    <TTGlyph name="O" xMin="62" yMin="-12" xMax="782" yMax="698">
      <contour>
        <pt x="782" y="340" on="1"/>
        <pt x="782" y="261" on="0"/>
        <pt x="731" y="131" on="0"/>
        <pt x="638" y="39" on="0"/>
        <pt x="505" y="-12" on="0"/>
        <pt x="422" y="-12" on="1"/>
        <pt x="340" y="-12" on="0"/>
        <pt x="206" y="39" on="0"/>
        <pt x="113" y="131" on="0"/>
        <pt x="62" y="261" on="0"/>
        <pt x="62" y="340" on="1"/>
        <pt x="62" y="419" on="0"/>
        <pt x="112" y="551" on="0"/>
        <pt x="205" y="645" on="0"/>
        <pt x="338" y="698" on="0"/>
        <pt x="422" y="698" on="1"/>
        <pt x="505" y="698" on="0"/>
        <pt x="639" y="646" on="0"/>
        <pt x="732" y="551" on="0"/>
        <pt x="782" y="420" on="0"/>
      </contour>
      <contour>
        <pt x="422" y="26" on="1"/>
        <pt x="451" y="26" on="0"/>
        <pt x="501" y="41" on="0"/>
        <pt x="541" y="63" on="0"/>
        <pt x="571" y="90" on="0"/>
        <pt x="580" y="103" on="1"/>
        <pt x="618" y="155" on="0"/>
        <pt x="641" y="279" on="0"/>
        <pt x="641" y="354" on="1"/>
        <pt x="641" y="429" on="0"/>
        <pt x="620" y="531" on="0"/>
        <pt x="592" y="574" on="1"/>
        <pt x="570" y="608" on="0"/>
        <pt x="483" y="662" on="0"/>
        <pt x="422" y="662" on="1"/>
        <pt x="400" y="662" on="0"/>
        <pt x="352" y="652" on="0"/>
        <pt x="306" y="630" on="0"/>
        <pt x="264" y="593" on="0"/>
        <pt x="247" y="567" on="1"/>
        <pt x="232" y="542" on="0"/>
        <pt x="214" y="486" on="0"/>
        <pt x="205" y="430" on="0"/>
        <pt x="203" y="377" on="0"/>
        <pt x="203" y="354" on="1"/>
        <pt x="203" y="327" on="0"/>
        <pt x="206" y="265" on="0"/>
        <pt x="217" y="203" on="0"/>
        <pt x="238" y="141" on="0"/>
        <pt x="256" y="114" on="1"/>
        <pt x="285" y="71" on="0"/>
        <pt x="373" y="26" on="0"/>
      </contour>
    </TTGlyph>
    <TTGlyph name="OE" xMin="81" yMin="-12" xMax="1112" yMax="698">
      <contour>
        <pt x="1069" y="0" on="1"/>
        <pt x="634" y="0" on="1"/>
        <pt x="622" y="0" on="0"/>
        <pt x="592" y="-2" on="0"/>
        <pt x="563" y="-4" on="0"/>
        <pt x="540" y="-7" on="0"/>
        <pt x="537" y="-7" on="1"/>
        <pt x="503" y="-11" on="0"/>
        <pt x="458" y="-12" on="0"/>
        <pt x="456" y="-12" on="1"/>
        <pt x="368" y="-12" on="0"/>
        <pt x="229" y="40" on="0"/>
        <pt x="132" y="133" on="0"/>
        <pt x="81" y="263" on="0"/>
        <pt x="81" y="340" on="1"/>
        <pt x="81" y="418" on="0"/>
        <pt x="132" y="549" on="0"/>
        <pt x="228" y="644" on="0"/>
        <pt x="368" y="698" on="0"/>
        <pt x="456" y="698" on="1"/>
        <pt x="477" y="698" on="0"/>
        <pt x="532" y="694" on="0"/>
        <pt x="557" y="691" on="1"/>
        <pt x="577" y="689" on="0"/>
        <pt x="614" y="686" on="0"/>
        <pt x="634" y="686" on="1"/>
        <pt x="1052" y="686" on="1"/>
        <pt x="1081" y="449" on="1"/>
        <pt x="1039" y="449" on="1"/>
        <pt x="1034" y="494" on="0"/>
        <pt x="1016" y="565" on="0"/>
        <pt x="975" y="616" on="0"/>
        <pt x="903" y="643" on="0"/>
        <pt x="843" y="643" on="1"/>
        <pt x="695" y="643" on="1"/>
        <pt x="695" y="378" on="1"/>
        <pt x="789" y="378" on="1"/>
        <pt x="824" y="378" on="0"/>
        <pt x="870" y="389" on="0"/>
        <pt x="898" y="416" on="0"/>
        <pt x="910" y="461" on="0"/>
        <pt x="910" y="495" on="1"/>
        <pt x="952" y="495" on="1"/>
        <pt x="952" y="218" on="1"/>
        <pt x="910" y="218" on="1"/>
        <pt x="910" y="252" on="0"/>
        <pt x="898" y="297" on="0"/>
        <pt x="870" y="324" on="0"/>
        <pt x="824" y="335" on="0"/>
        <pt x="789" y="335" on="1"/>
        <pt x="695" y="335" on="1"/>
        <pt x="695" y="43" on="1"/>
        <pt x="845" y="43" on="1"/>
        <pt x="910" y="43" on="0"/>
        <pt x="990" y="73" on="0"/>
        <pt x="1038" y="131" on="0"/>
        <pt x="1062" y="215" on="0"/>
        <pt x="1070" y="270" on="1"/>
        <pt x="1112" y="270" on="1"/>
      </contour>
      <contour>
        <pt x="581" y="491" on="1"/>
        <pt x="581" y="547" on="0"/>
        <pt x="568" y="615" on="0"/>
        <pt x="539" y="653" on="0"/>
        <pt x="492" y="665" on="0"/>
        <pt x="459" y="665" on="1"/>
        <pt x="411" y="665" on="0"/>
        <pt x="323" y="628" on="0"/>
        <pt x="256" y="552" on="0"/>
        <pt x="217" y="435" on="0"/>
        <pt x="217" y="355" on="1"/>
        <pt x="217" y="273" on="0"/>
        <pt x="254" y="148" on="0"/>
        <pt x="319" y="64" on="0"/>
        <pt x="408" y="21" on="0"/>
        <pt x="460" y="21" on="1"/>
        <pt x="493" y="21" on="0"/>
        <pt x="540" y="34" on="0"/>
        <pt x="568" y="71" on="0"/>
        <pt x="581" y="140" on="0"/>
        <pt x="581" y="195" on="1"/>
      </contour>
    </TTGlyph>
    <TTGlyph name="Oslash" xMin="62" yMin="-59" xMax="812" yMax="745">
      <contour>
        <pt x="665" y="635" on="1"/>
        <pt x="738" y="589" on="0"/>
        <pt x="812" y="431" on="0"/>
        <pt x="812" y="340" on="1"/>
        <pt x="812" y="263" on="0"/>
        <pt x="761" y="134" on="0"/>
        <pt x="665" y="40" on="0"/>
        <pt x="526" y="-12" on="0"/>
        <pt x="437" y="-12" on="1"/>
        <pt x="365" y="-12" on="0"/>
        <pt x="269" y="17" on="0"/>
        <pt x="239" y="31" on="1"/>
        <pt x="175" y="-59" on="1"/>
        <pt x="146" y="-38" on="1"/>
        <pt x="208" y="50" on="1"/>
        <pt x="168" y="76" on="0"/>
        <pt x="113" y="143" on="0"/>
        <pt x="78" y="219" on="0"/>
        <pt x="62" y="300" on="0"/>
        <pt x="62" y="340" on="1"/>
        <pt x="62" y="418" on="0"/>
        <pt x="113" y="549" on="0"/>
        <pt x="209" y="644" on="0"/>
        <pt x="349" y="698" on="0"/>
        <pt x="437" y="698" on="1"/>
        <pt x="505" y="698" on="0"/>
        <pt x="600" y="671" on="0"/>
        <pt x="634" y="654" on="1"/>
        <pt x="698" y="745" on="1"/>
        <pt x="728" y="725" on="1"/>
      </contour>
      <contour>
        <pt x="601" y="607" on="1"/>
        <pt x="567" y="637" on="0"/>
        <pt x="482" y="665" on="0"/>
        <pt x="437" y="665" on="1"/>
        <pt x="410" y="665" on="0"/>
        <pt x="353" y="654" on="0"/>
        <pt x="300" y="630" on="0"/>
        <pt x="254" y="591" on="0"/>
        <pt x="237" y="562" on="1"/>
        <pt x="222" y="537" on="0"/>
        <pt x="204" y="481" on="0"/>
        <pt x="196" y="424" on="0"/>
        <pt x="194" y="367" on="0"/>
        <pt x="194" y="340" on="1"/>
        <pt x="194" y="311" on="0"/>
        <pt x="197" y="249" on="0"/>
        <pt x="207" y="187" on="0"/>
        <pt x="229" y="130" on="0"/>
        <pt x="248" y="106" on="1"/>
      </contour>
      <contour>
        <pt x="273" y="79" on="1"/>
        <pt x="297" y="57" on="0"/>
        <pt x="349" y="34" on="0"/>
        <pt x="396" y="23" on="0"/>
        <pt x="431" y="21" on="0"/>
        <pt x="437" y="21" on="1"/>
        <pt x="452" y="21" on="0"/>
        <pt x="499" y="26" on="0"/>
        <pt x="553" y="44" on="0"/>
        <pt x="608" y="80" on="0"/>
        <pt x="630" y="110" on="1"/>
        <pt x="649" y="136" on="0"/>
        <pt x="669" y="197" on="0"/>
        <pt x="678" y="258" on="0"/>
        <pt x="680" y="316" on="0"/>
        <pt x="680" y="340" on="1"/>
        <pt x="680" y="367" on="0"/>
        <pt x="678" y="429" on="0"/>
        <pt x="667" y="492" on="0"/>
        <pt x="646" y="553" on="0"/>
        <pt x="626" y="579" on="1"/>
      </contour>
    </TTGlyph>
    <TTGlyph name="P" xMin="38" yMin="0" xMax="706" yMax="686">
      <contour>
        <pt x="276" y="43" on="1"/>
        <pt x="382" y="43" on="1"/>
        <pt x="382" y="0" on="1"/>
        <pt x="371" y="1" on="0"/>
        <pt x="325" y="2" on="0"/>
        <pt x="272" y="2" on="0"/>
        <pt x="224" y="2" on="0"/>
        <pt x="210" y="2" on="1"/>
        <pt x="197" y="2" on="0"/>
        <pt x="148" y="2" on="0"/>
        <pt x="95" y="2" on="0"/>
        <pt x="49" y="1" on="0"/>
        <pt x="38" y="0" on="1"/>
        <pt x="38" y="43" on="1"/>
        <pt x="144" y="43" on="1"/>
        <pt x="144" y="643" on="1"/>
        <pt x="38" y="643" on="1"/>
        <pt x="38" y="686" on="1"/>
        <pt x="446" y="686" on="1"/>
        <pt x="508" y="686" on="0"/>
        <pt x="605" y="656" on="0"/>
        <pt x="671" y="604" on="0"/>
        <pt x="706" y="534" on="0"/>
        <pt x="706" y="493" on="1"/>
        <pt x="706" y="454" on="0"/>
        <pt x="672" y="386" on="0"/>
        <pt x="606" y="335" on="0"/>
        <pt x="509" y="305" on="0"/>
        <pt x="446" y="305" on="1"/>
        <pt x="276" y="305" on="1"/>
      </contour>
      <contour>
        <pt x="271" y="643" on="1"/>
        <pt x="271" y="343" on="1"/>
        <pt x="410" y="343" on="1"/>
        <pt x="468" y="343" on="0"/>
        <pt x="531" y="371" on="0"/>
        <pt x="560" y="415" on="0"/>
        <pt x="565" y="468" on="0"/>
        <pt x="565" y="493" on="1"/>
        <pt x="565" y="519" on="0"/>
        <pt x="560" y="572" on="0"/>
        <pt x="531" y="615" on="0"/>
        <pt x="468" y="643" on="0"/>
        <pt x="410" y="643" on="1"/>
      </contour>
    </TTGlyph>
    <TTGlyph name="Phi" xMin="62" yMin="0" xMax="749" yMax="686">
      <contour>
        <pt x="463" y="643" on="1"/>
        <pt x="463" y="538" on="1"/>
        <pt x="550" y="532" on="0"/>
        <pt x="662" y="488" on="0"/>
        <pt x="725" y="430" on="0"/>
        <pt x="749" y="368" on="0"/>
        <pt x="749" y="343" on="1"/>
        <pt x="749" y="318" on="0"/>
        <pt x="725" y="256" on="0"/>
        <pt x="662" y="198" on="0"/>
        <pt x="550" y="154" on="0"/>
        <pt x="463" y="148" on="1"/>
        <pt x="463" y="43" on="1"/>
        <pt x="596" y="43" on="1"/>
        <pt x="596" y="0" on="1"/>
        <pt x="580" y="1" on="0"/>
        <pt x="529" y="2" on="0"/>
        <pt x="472" y="2" on="0"/>
        <pt x="419" y="2" on="0"/>
        <pt x="401" y="2" on="1"/>
        <pt x="383" y="2" on="0"/>
        <pt x="330" y="2" on="0"/>
        <pt x="274" y="2" on="0"/>
        <pt x="223" y="1" on="0"/>
        <pt x="207" y="0" on="1"/>
        <pt x="207" y="43" on="1"/>
        <pt x="340" y="43" on="1"/>
        <pt x="340" y="148" on="1"/>
        <pt x="265" y="154" on="0"/>
        <pt x="160" y="193" on="0"/>
        <pt x="93" y="247" on="0"/>
        <pt x="62" y="311" on="0"/>
        <pt x="62" y="343" on="1"/>
        <pt x="62" y="375" on="0"/>
        <pt x="93" y="439" on="0"/>
        <pt x="159" y="493" on="0"/>
        <pt x="265" y="532" on="0"/>
        <pt x="340" y="538" on="1"/>
        <pt x="340" y="643" on="1"/>
        <pt x="207" y="643" on="1"/>
        <pt x="207" y="686" on="1"/>
        <pt x="223" y="685" on="0"/>
        <pt x="274" y="684" on="0"/>
        <pt x="331" y="684" on="0"/>
        <pt x="384" y="684" on="0"/>
        <pt x="402" y="684" on="1"/>
        <pt x="420" y="684" on="0"/>
        <pt x="473" y="684" on="0"/>
        <pt x="529" y="684" on="0"/>
        <pt x="580" y="685" on="0"/>
        <pt x="596" y="686" on="1"/>
        <pt x="596" y="643" on="1"/>
      </contour>
      <contour>
        <pt x="340" y="503" on="1"/>
        <pt x="293" y="497" on="0"/>
        <pt x="237" y="465" on="0"/>
        <pt x="207" y="421" on="0"/>
        <pt x="198" y="369" on="0"/>
        <pt x="198" y="343" on="1"/>
        <pt x="198" y="317" on="0"/>
        <pt x="207" y="265" on="0"/>
        <pt x="237" y="221" on="0"/>
        <pt x="293" y="189" on="0"/>
        <pt x="340" y="183" on="1"/>
      </contour>
      <contour>
        <pt x="463" y="182" on="1"/>
        <pt x="511" y="188" on="0"/>
        <pt x="570" y="217" on="0"/>
        <pt x="602" y="260" on="0"/>
        <pt x="613" y="314" on="0"/>
        <pt x="613" y="343" on="1"/>
        <pt x="613" y="372" on="0"/>
        <pt x="602" y="426" on="0"/>
        <pt x="570" y="469" on="0"/>
        <pt x="511" y="498" on="0"/>
        <pt x="463" y="504" on="1"/>
      </contour>
    </TTGlyph>
    <TTGlyph name="Pi" xMin="38" yMin="0" xMax="841" yMax="681">
      <contour>
        <pt x="735" y="43" on="1"/>
        <pt x="841" y="43" on="1"/>
        <pt x="841" y="0" on="1"/>
        <pt x="830" y="1" on="0"/>
        <pt x="784" y="2" on="0"/>
        <pt x="731" y="2" on="0"/>
        <pt x="683" y="2" on="0"/>
        <pt x="669" y="2" on="1"/>
        <pt x="656" y="2" on="0"/>
        <pt x="607" y="2" on="0"/>
        <pt x="554" y="2" on="0"/>
        <pt x="508" y="1" on="0"/>
        <pt x="497" y="0" on="1"/>
        <pt x="497" y="43" on="1"/>
        <pt x="603" y="43" on="1"/>
        <pt x="603" y="638" on="1"/>
        <pt x="276" y="638" on="1"/>
        <pt x="276" y="43" on="1"/>
        <pt x="382" y="43" on="1"/>
        <pt x="382" y="0" on="1"/>
        <pt x="371" y="1" on="0"/>
        <pt x="325" y="2" on="0"/>
        <pt x="272" y="2" on="0"/>
        <pt x="224" y="2" on="0"/>
        <pt x="210" y="2" on="1"/>
        <pt x="197" y="2" on="0"/>
        <pt x="148" y="2" on="0"/>
        <pt x="95" y="2" on="0"/>
        <pt x="49" y="1" on="0"/>
        <pt x="38" y="0" on="1"/>
        <pt x="38" y="43" on="1"/>
        <pt x="144" y="43" on="1"/>
        <pt x="144" y="638" on="1"/>
        <pt x="38" y="638" on="1"/>
        <pt x="38" y="681" on="1"/>
        <pt x="841" y="681" on="1"/>
        <pt x="841" y="638" on="1"/>
        <pt x="735" y="638" on="1"/>
      </contour>
    </TTGlyph>
    <TTGlyph name="Psi" xMin="62" yMin="0" xMax="812" yMax="686">
      <contour>
        <pt x="494" y="187" on="1"/>
        <pt x="563" y="204" on="0"/>
        <pt x="624" y="316" on="0"/>
        <pt x="625" y="405" on="1"/>
        <pt x="626" y="474" on="0"/>
        <pt x="661" y="550" on="0"/>
        <pt x="713" y="550" on="1"/>
        <pt x="783" y="550" on="1"/>
        <pt x="796" y="550" on="0"/>
        <pt x="812" y="546" on="0"/>
        <pt x="812" y="533" on="1"/>
        <pt x="812" y="523" on="0"/>
        <pt x="800" y="518" on="0"/>
        <pt x="792" y="517" on="1"/>
        <pt x="776" y="515" on="0"/>
        <pt x="758" y="488" on="0"/>
        <pt x="750" y="451" on="0"/>
        <pt x="748" y="411" on="0"/>
        <pt x="748" y="396" on="1"/>
        <pt x="748" y="386" on="0"/>
        <pt x="743" y="347" on="0"/>
        <pt x="730" y="300" on="0"/>
        <pt x="706" y="251" on="0"/>
        <pt x="687" y="231" on="1"/>
        <pt x="649" y="190" on="0"/>
        <pt x="549" y="154" on="0"/>
        <pt x="494" y="149" on="1"/>
        <pt x="494" y="43" on="1"/>
        <pt x="627" y="43" on="1"/>
        <pt x="627" y="0" on="1"/>
        <pt x="611" y="1" on="0"/>
        <pt x="560" y="2" on="0"/>
        <pt x="503" y="2" on="0"/>
        <pt x="450" y="2" on="0"/>
        <pt x="432" y="2" on="1"/>
        <pt x="414" y="2" on="0"/>
        <pt x="361" y="2" on="0"/>
        <pt x="305" y="2" on="0"/>
        <pt x="254" y="1" on="0"/>
        <pt x="238" y="0" on="1"/>
        <pt x="238" y="43" on="1"/>
        <pt x="371" y="43" on="1"/>
        <pt x="371" y="149" on="1"/>
        <pt x="245" y="164" on="0"/>
        <pt x="126" y="296" on="0"/>
        <pt x="126" y="423" on="1"/>
        <pt x="126" y="424" on="0"/>
        <pt x="125" y="437" on="0"/>
        <pt x="123" y="457" on="0"/>
        <pt x="118" y="481" on="0"/>
        <pt x="113" y="491" on="1"/>
        <pt x="105" y="508" on="0"/>
        <pt x="86" y="515" on="0"/>
        <pt x="75" y="517" on="1"/>
        <pt x="62" y="520" on="0"/>
        <pt x="62" y="533" on="1"/>
        <pt x="62" y="546" on="0"/>
        <pt x="80" y="550" on="0"/>
        <pt x="91" y="550" on="1"/>
        <pt x="161" y="550" on="1"/>
        <pt x="203" y="550" on="0"/>
        <pt x="248" y="490" on="0"/>
        <pt x="249" y="415" on="1"/>
        <pt x="250" y="320" on="0"/>
        <pt x="303" y="209" on="0"/>
        <pt x="371" y="188" on="1"/>
        <pt x="371" y="643" on="1"/>
        <pt x="238" y="643" on="1"/>
        <pt x="238" y="686" on="1"/>
        <pt x="254" y="685" on="0"/>
        <pt x="305" y="684" on="0"/>
        <pt x="362" y="684" on="0"/>
        <pt x="415" y="684" on="0"/>
        <pt x="433" y="684" on="1"/>
        <pt x="451" y="684" on="0"/>
        <pt x="504" y="684" on="0"/>
        <pt x="560" y="684" on="0"/>
        <pt x="611" y="685" on="0"/>
        <pt x="627" y="686" on="1"/>
        <pt x="627" y="643" on="1"/>
        <pt x="494" y="643" on="1"/>
      </contour>
    </TTGlyph>
    <TTGlyph name="Q" xMin="62" yMin="-194" xMax="788" yMax="698">
      <contour>
        <pt x="574" y="15" on="1"/>
        <pt x="589" y="-11" on="0"/>
        <pt x="617" y="-38" on="0"/>
        <pt x="641" y="-51" on="0"/>
        <pt x="661" y="-53" on="0"/>
        <pt x="669" y="-53" on="1"/>
        <pt x="680" y="-53" on="0"/>
        <pt x="708" y="-49" on="0"/>
        <pt x="735" y="-39" on="0"/>
        <pt x="756" y="-19" on="0"/>
        <pt x="758" y="-4" on="1"/>
        <pt x="759" y="2" on="0"/>
        <pt x="763" y="15" on="0"/>
        <pt x="773" y="15" on="1"/>
        <pt x="784" y="15" on="0"/>
        <pt x="788" y="-2" on="0"/>
        <pt x="788" y="-9" on="1"/>
        <pt x="788" y="-32" on="0"/>
        <pt x="775" y="-96" on="0"/>
        <pt x="745" y="-154" on="0"/>
        <pt x="694" y="-194" on="0"/>
        <pt x="655" y="-194" on="1"/>
        <pt x="621" y="-194" on="0"/>
        <pt x="577" y="-166" on="0"/>
        <pt x="548" y="-115" on="0"/>
        <pt x="529" y="-44" on="0"/>
        <pt x="519" y="-2" on="1"/>
        <pt x="484" y="-10" on="0"/>
        <pt x="429" y="-12" on="0"/>
        <pt x="422" y="-12" on="1"/>
        <pt x="340" y="-12" on="0"/>
        <pt x="206" y="39" on="0"/>
        <pt x="113" y="131" on="0"/>
        <pt x="62" y="261" on="0"/>
        <pt x="62" y="340" on="1"/>
        <pt x="62" y="419" on="0"/>
        <pt x="112" y="551" on="0"/>
        <pt x="205" y="645" on="0"/>
        <pt x="338" y="698" on="0"/>
        <pt x="422" y="698" on="1"/>
        <pt x="505" y="698" on="0"/>
        <pt x="639" y="646" on="0"/>
        <pt x="732" y="551" on="0"/>
        <pt x="782" y="420" on="0"/>
        <pt x="782" y="340" on="1"/>
        <pt x="782" y="296" on="0"/>
        <pt x="762" y="201" on="0"/>
        <pt x="714" y="112" on="0"/>
        <pt x="634" y="38" on="0"/>
      </contour>
      <contour>
        <pt x="332" y="44" on="1"/>
        <pt x="330" y="48" on="0"/>
        <pt x="327" y="59" on="0"/>
        <pt x="327" y="72" on="1"/>
        <pt x="327" y="90" on="0"/>
        <pt x="342" y="120" on="0"/>
        <pt x="368" y="142" on="0"/>
        <pt x="403" y="154" on="0"/>
        <pt x="422" y="154" on="1"/>
        <pt x="455" y="154" on="0"/>
        <pt x="514" y="114" on="0"/>
        <pt x="545" y="63" on="1"/>
        <pt x="583" y="89" on="0"/>
        <pt x="624" y="165" on="0"/>
        <pt x="643" y="245" on="0"/>
        <pt x="646" y="318" on="0"/>
        <pt x="646" y="340" on="1"/>
        <pt x="646" y="363" on="0"/>
        <pt x="644" y="417" on="0"/>
        <pt x="635" y="475" on="0"/>
        <pt x="617" y="534" on="0"/>
        <pt x="601" y="560" on="1"/>
        <pt x="583" y="590" on="0"/>
        <pt x="539" y="629" on="0"/>
        <pt x="492" y="652" on="0"/>
        <pt x="444" y="662" on="0"/>
        <pt x="422" y="662" on="1"/>
        <pt x="368" y="662" on="0"/>
        <pt x="276" y="613" on="0"/>
        <pt x="249" y="571" on="1"/>
        <pt x="217" y="521" on="0"/>
        <pt x="198" y="407" on="0"/>
        <pt x="198" y="340" on="1"/>
        <pt x="198" y="318" on="0"/>
        <pt x="202" y="236" on="0"/>
        <pt x="227" y="146" on="0"/>
        <pt x="282" y="65" on="0"/>
      </contour>
      <contour>
        <pt x="508" y="41" on="1"/>
        <pt x="496" y="76" on="0"/>
        <pt x="459" y="121" on="0"/>
        <pt x="423" y="121" on="1"/>
        <pt x="397" y="121" on="0"/>
        <pt x="360" y="94" on="0"/>
        <pt x="360" y="72" on="1"/>
        <pt x="360" y="66" on="0"/>
        <pt x="365" y="50" on="0"/>
        <pt x="379" y="35" on="0"/>
        <pt x="403" y="24" on="0"/>
        <pt x="422" y="24" on="1"/>
        <pt x="457" y="24" on="0"/>
        <pt x="507" y="41" on="0"/>
      </contour>
    </TTGlyph>
    <TTGlyph name="R" xMin="38" yMin="-12" xMax="835" yMax="686">
      <contour>
        <pt x="529" y="340" on="1"/>
        <pt x="570" y="328" on="0"/>
        <pt x="616" y="289" on="0"/>
        <pt x="640" y="246" on="0"/>
        <pt x="648" y="200" on="0"/>
        <pt x="650" y="180" on="1"/>
        <pt x="653" y="146" on="0"/>
        <pt x="660" y="87" on="0"/>
        <pt x="677" y="45" on="0"/>
        <pt x="705" y="21" on="0"/>
        <pt x="729" y="21" on="1"/>
        <pt x="750" y="21" on="0"/>
        <pt x="789" y="54" on="0"/>
        <pt x="793" y="92" on="1"/>
        <pt x="794" y="102" on="0"/>
        <pt x="800" y="112" on="0"/>
        <pt x="814" y="112" on="1"/>
        <pt x="824" y="112" on="0"/>
        <pt x="835" y="105" on="0"/>
        <pt x="835" y="92" on="1"/>
        <pt x="835" y="87" on="0"/>
        <pt x="828" y="53" on="0"/>
        <pt x="804" y="17" on="0"/>
        <pt x="759" y="-12" on="0"/>
        <pt x="721" y="-12" on="1"/>
        <pt x="713" y="-12" on="0"/>
        <pt x="677" y="-11" on="0"/>
        <pt x="632" y="-4" on="0"/>
        <pt x="585" y="11" on="0"/>
        <pt x="565" y="24" on="1"/>
        <pt x="546" y="37" on="0"/>
        <pt x="525" y="65" on="0"/>
        <pt x="516" y="100" on="0"/>
        <pt x="514" y="141" on="0"/>
        <pt x="514" y="166" on="1"/>
        <pt x="514" y="191" on="0"/>
        <pt x="513" y="226" on="0"/>
        <pt x="507" y="253" on="0"/>
        <pt x="495" y="276" on="0"/>
        <pt x="484" y="289" on="1"/>
        <pt x="452" y="327" on="0"/>
        <pt x="390" y="327" on="1"/>
        <pt x="271" y="327" on="1"/>
        <pt x="271" y="43" on="1"/>
        <pt x="377" y="43" on="1"/>
        <pt x="377" y="0" on="1"/>
        <pt x="366" y="1" on="0"/>
        <pt x="320" y="2" on="0"/>
        <pt x="269" y="2" on="0"/>
        <pt x="221" y="2" on="0"/>
        <pt x="207" y="2" on="1"/>
        <pt x="194" y="2" on="0"/>
        <pt x="145" y="2" on="0"/>
        <pt x="94" y="2" on="0"/>
        <pt x="49" y="1" on="0"/>
        <pt x="38" y="0" on="1"/>
        <pt x="38" y="43" on="1"/>
        <pt x="144" y="43" on="1"/>
        <pt x="144" y="643" on="1"/>
        <pt x="38" y="643" on="1"/>
        <pt x="38" y="686" on="1"/>
        <pt x="407" y="686" on="1"/>
        <pt x="476" y="686" on="0"/>
        <pt x="584" y="657" on="0"/>
        <pt x="658" y="606" on="0"/>
        <pt x="697" y="540" on="0"/>
        <pt x="697" y="502" on="1"/>
        <pt x="697" y="482" on="0"/>
        <pt x="682" y="436" on="0"/>
        <pt x="645" y="392" on="0"/>
        <pt x="580" y="354" on="0"/>
      </contour>
      <contour>
        <pt x="388" y="360" on="1"/>
        <pt x="451" y="360" on="0"/>
        <pt x="519" y="389" on="0"/>
        <pt x="550" y="432" on="0"/>
        <pt x="556" y="481" on="0"/>
        <pt x="556" y="502" on="1"/>
        <pt x="556" y="524" on="0"/>
        <pt x="550" y="574" on="0"/>
        <pt x="518" y="616" on="0"/>
        <pt x="451" y="643" on="0"/>
        <pt x="390" y="643" on="1"/>
        <pt x="271" y="643" on="1"/>
        <pt x="271" y="360" on="1"/>
      </contour>
    </TTGlyph>
    <TTGlyph name="S" xMin="62" yMin="-12" xMax="562" yMax="698">
      <contour>
        <pt x="391" y="409" on="1"/>
        <pt x="432" y="400" on="0"/>
        <pt x="496" y="358" on="0"/>
        <pt x="539" y="302" on="0"/>
        <pt x="562" y="235" on="0"/>
        <pt x="562" y="200" on="1"/>
        <pt x="562" y="160" on="0"/>
        <pt x="537" y="84" on="0"/>
        <pt x="483" y="24" on="0"/>
        <pt x="399" y="-12" on="0"/>
        <pt x="340" y="-12" on="1"/>
        <pt x="318" y="-12" on="0"/>
        <pt x="266" y="-7" on="0"/>
        <pt x="213" y="7" on="0"/>
        <pt x="162" y="30" on="0"/>
        <pt x="140" y="47" on="1"/>
        <pt x="121" y="28" on="0"/>
        <pt x="103" y="6" on="0"/>
        <pt x="95" y="-2" on="1"/>
        <pt x="87" y="-9" on="0"/>
        <pt x="82" y="-12" on="0"/>
        <pt x="77" y="-12" on="1"/>
        <pt x="66" y="-12" on="0"/>
        <pt x="62" y="0" on="0"/>
        <pt x="62" y="14" on="1"/>
        <pt x="62" y="202" on="1"/>
        <pt x="62" y="219" on="0"/>
        <pt x="67" y="228" on="0"/>
        <pt x="83" y="228" on="1"/>
        <pt x="98" y="228" on="0"/>
        <pt x="103" y="221" on="0"/>
        <pt x="104" y="207" on="1"/>
        <pt x="107" y="152" on="0"/>
        <pt x="156" y="84" on="0"/>
        <pt x="227" y="45" on="0"/>
        <pt x="306" y="31" on="0"/>
        <pt x="339" y="31" on="1"/>
        <pt x="381" y="31" on="0"/>
        <pt x="433" y="57" on="0"/>
        <pt x="462" y="95" on="0"/>
        <pt x="472" y="137" on="0"/>
        <pt x="472" y="153" on="1"/>
        <pt x="472" y="172" on="0"/>
        <pt x="463" y="202" on="0"/>
        <pt x="449" y="225" on="0"/>
        <pt x="435" y="240" on="0"/>
        <pt x="430" y="245" on="1"/>
        <pt x="422" y="253" on="0"/>
        <pt x="406" y="263" on="0"/>
        <pt x="379" y="272" on="0"/>
        <pt x="334" y="282" on="0"/>
        <pt x="296" y="290" on="1"/>
        <pt x="257" y="299" on="0"/>
        <pt x="204" y="311" on="0"/>
        <pt x="165" y="328" on="0"/>
        <pt x="132" y="352" on="0"/>
        <pt x="112" y="371" on="1"/>
        <pt x="107" y="376" on="0"/>
        <pt x="90" y="399" on="0"/>
        <pt x="74" y="432" on="0"/>
        <pt x="62" y="474" on="0"/>
        <pt x="62" y="499" on="1"/>
        <pt x="62" y="540" on="0"/>
        <pt x="90" y="612" on="0"/>
        <pt x="146" y="666" on="0"/>
        <pt x="227" y="698" on="0"/>
        <pt x="281" y="698" on="1"/>
        <pt x="317" y="698" on="0"/>
        <pt x="373" y="685" on="0"/>
        <pt x="415" y="667" on="0"/>
        <pt x="444" y="646" on="0"/>
        <pt x="453" y="638" on="1"/>
        <pt x="496" y="687" on="1"/>
        <pt x="503" y="695" on="0"/>
        <pt x="510" y="698" on="0"/>
        <pt x="515" y="698" on="1"/>
        <pt x="526" y="698" on="0"/>
        <pt x="530" y="686" on="0"/>
        <pt x="530" y="672" on="1"/>
        <pt x="530" y="484" on="1"/>
        <pt x="530" y="467" on="0"/>
        <pt x="525" y="458" on="0"/>
        <pt x="509" y="458" on="1"/>
        <pt x="495" y="458" on="0"/>
        <pt x="489" y="464" on="0"/>
        <pt x="487" y="480" on="1"/>
        <pt x="479" y="529" on="0"/>
        <pt x="440" y="597" on="0"/>
        <pt x="386" y="639" on="0"/>
        <pt x="318" y="658" on="0"/>
        <pt x="282" y="658" on="1"/>
        <pt x="246" y="658" on="0"/>
        <pt x="196" y="638" on="0"/>
        <pt x="165" y="606" on="0"/>
        <pt x="152" y="567" on="0"/>
        <pt x="152" y="548" on="1"/>
        <pt x="152" y="543" on="0"/>
        <pt x="156" y="514" on="0"/>
        <pt x="176" y="480" on="0"/>
        <pt x="217" y="448" on="0"/>
        <pt x="254" y="440" on="1"/>
      </contour>
    </TTGlyph>
    <TTGlyph name="Sigma" xMin="62" yMin="0" xMax="749" yMax="686">
      <contour>
        <pt x="171" y="60" on="1"/>
        <pt x="447" y="60" on="1"/>
        <pt x="500" y="60" on="0"/>
        <pt x="589" y="72" on="0"/>
        <pt x="656" y="112" on="0"/>
        <pt x="700" y="189" on="0"/>
        <pt x="707" y="254" on="1"/>
        <pt x="749" y="254" on="1"/>
        <pt x="720" y="0" on="1"/>
        <pt x="91" y="0" on="1"/>
        <pt x="81" y="0" on="0"/>
        <pt x="62" y="4" on="0"/>
        <pt x="62" y="15" on="1"/>
        <pt x="62" y="20" on="0"/>
        <pt x="70" y="29" on="0"/>
        <pt x="73" y="32" on="1"/>
        <pt x="351" y="288" on="1"/>
        <pt x="62" y="654" on="1"/>
        <pt x="62" y="675" on="0"/>
        <pt x="70" y="686" on="0"/>
        <pt x="91" y="686" on="1"/>
        <pt x="720" y="686" on="1"/>
        <pt x="749" y="449" on="1"/>
        <pt x="707" y="449" on="1"/>
        <pt x="699" y="512" on="0"/>
        <pt x="658" y="589" on="0"/>
        <pt x="593" y="630" on="0"/>
        <pt x="505" y="643" on="0"/>
        <pt x="451" y="643" on="1"/>
        <pt x="238" y="643" on="1"/>
        <pt x="463" y="358" on="1"/>
        <pt x="469" y="350" on="0"/>
        <pt x="471" y="345" on="0"/>
        <pt x="471" y="343" on="1"/>
        <pt x="471" y="338" on="0"/>
        <pt x="466" y="332" on="0"/>
        <pt x="460" y="326" on="1"/>
      </contour>
    </TTGlyph>
    <TTGlyph name="T" xMin="41" yMin="0" xMax="740" yMax="677">
      <contour>
        <pt x="740" y="440" on="1"/>
        <pt x="698" y="440" on="1"/>
        <pt x="695" y="481" on="0"/>
        <pt x="684" y="552" on="0"/>
        <pt x="652" y="604" on="0"/>
        <pt x="591" y="634" on="0"/>
        <pt x="537" y="634" on="1"/>
        <pt x="457" y="634" on="1"/>
        <pt x="457" y="43" on="1"/>
        <pt x="608" y="43" on="1"/>
        <pt x="608" y="0" on="1"/>
        <pt x="548" y="2" on="0"/>
        <pt x="437" y="2" on="0"/>
        <pt x="391" y="2" on="1"/>
        <pt x="378" y="2" on="0"/>
        <pt x="330" y="2" on="0"/>
        <pt x="270" y="2" on="0"/>
        <pt x="204" y="1" on="0"/>
        <pt x="174" y="0" on="1"/>
        <pt x="174" y="43" on="1"/>
        <pt x="325" y="43" on="1"/>
        <pt x="325" y="634" on="1"/>
        <pt x="244" y="634" on="1"/>
        <pt x="190" y="634" on="0"/>
        <pt x="129" y="604" on="0"/>
        <pt x="97" y="552" on="0"/>
        <pt x="86" y="481" on="0"/>
        <pt x="83" y="440" on="1"/>
        <pt x="41" y="440" on="1"/>
        <pt x="61" y="677" on="1"/>
        <pt x="720" y="677" on="1"/>
      </contour>
    </TTGlyph>
    <TTGlyph name="Theta" xMin="62" yMin="-12" xMax="812" yMax="698">
      <contour>
        <pt x="812" y="340" on="1"/>
        <pt x="812" y="263" on="0"/>
        <pt x="761" y="134" on="0"/>
        <pt x="665" y="40" on="0"/>
        <pt x="526" y="-12" on="0"/>
        <pt x="437" y="-12" on="1"/>
        <pt x="349" y="-12" on="0"/>
        <pt x="210" y="40" on="0"/>
        <pt x="113" y="133" on="0"/>
        <pt x="62" y="263" on="0"/>
        <pt x="62" y="340" on="1"/>
        <pt x="62" y="418" on="0"/>
        <pt x="113" y="549" on="0"/>
        <pt x="209" y="644" on="0"/>
        <pt x="349" y="698" on="0"/>
        <pt x="437" y="698" on="1"/>
        <pt x="526" y="698" on="0"/>
        <pt x="665" y="645" on="0"/>
        <pt x="761" y="549" on="0"/>
        <pt x="812" y="418" on="0"/>
      </contour>
      <contour>
        <pt x="437" y="23" on="1"/>
        <pt x="462" y="23" on="0"/>
        <pt x="515" y="33" on="0"/>
        <pt x="565" y="56" on="0"/>
        <pt x="610" y="93" on="0"/>
        <pt x="628" y="120" on="1"/>
        <pt x="646" y="147" on="0"/>
        <pt x="667" y="205" on="0"/>
        <pt x="677" y="264" on="0"/>
        <pt x="680" y="318" on="0"/>
        <pt x="680" y="340" on="1"/>
        <pt x="680" y="417" on="0"/>
        <pt x="655" y="524" on="0"/>
        <pt x="627" y="567" on="1"/>
        <pt x="600" y="610" on="0"/>
        <pt x="501" y="665" on="0"/>
        <pt x="437" y="665" on="1"/>
        <pt x="378" y="665" on="0"/>
        <pt x="277" y="614" on="0"/>
        <pt x="247" y="568" on="1"/>
        <pt x="215" y="519" on="0"/>
        <pt x="194" y="406" on="0"/>
        <pt x="194" y="340" on="1"/>
        <pt x="194" y="312" on="0"/>
        <pt x="198" y="251" on="0"/>
        <pt x="211" y="189" on="0"/>
        <pt x="237" y="129" on="0"/>
        <pt x="258" y="102" on="1"/>
        <pt x="284" y="70" on="0"/>
        <pt x="375" y="23" on="0"/>
      </contour>
      <contour>
        <pt x="617" y="254" on="1"/>
        <pt x="575" y="254" on="1"/>
        <pt x="575" y="288" on="1"/>
        <pt x="299" y="288" on="1"/>
        <pt x="299" y="254" on="1"/>
        <pt x="257" y="254" on="1"/>
        <pt x="257" y="434" on="1"/>
        <pt x="299" y="434" on="1"/>
        <pt x="299" y="400" on="1"/>
        <pt x="575" y="400" on="1"/>
        <pt x="575" y="434" on="1"/>
        <pt x="617" y="434" on="1"/>
      </contour>
    </TTGlyph>
    <TTGlyph name="U" xMin="38" yMin="-12" xMax="826" yMax="686">
      <contour>
        <pt x="720" y="229" on="1"/>
        <pt x="720" y="182" on="0"/>
        <pt x="688" y="95" on="0"/>
        <pt x="622" y="28" on="0"/>
        <pt x="520" y="-12" on="0"/>
        <pt x="451" y="-12" on="1"/>
        <pt x="376" y="-12" on="0"/>
        <pt x="261" y="27" on="0"/>
        <pt x="183" y="93" on="0"/>
        <pt x="144" y="181" on="0"/>
        <pt x="144" y="230" on="1"/>
        <pt x="144" y="643" on="1"/>
        <pt x="38" y="643" on="1"/>
        <pt x="38" y="686" on="1"/>
        <pt x="49" y="685" on="0"/>
        <pt x="95" y="684" on="0"/>
        <pt x="148" y="684" on="0"/>
        <pt x="197" y="684" on="0"/>
        <pt x="210" y="684" on="1"/>
        <pt x="224" y="684" on="0"/>
        <pt x="272" y="684" on="0"/>
        <pt x="325" y="684" on="0"/>
        <pt x="371" y="685" on="0"/>
        <pt x="382" y="686" on="1"/>
        <pt x="382" y="643" on="1"/>
        <pt x="276" y="643" on="1"/>
        <pt x="276" y="223" on="1"/>
        <pt x="276" y="201" on="0"/>
        <pt x="283" y="136" on="0"/>
        <pt x="317" y="75" on="0"/>
        <pt x="389" y="31" on="0"/>
        <pt x="455" y="31" on="1"/>
        <pt x="499" y="31" on="0"/>
        <pt x="579" y="54" on="0"/>
        <pt x="639" y="102" on="0"/>
        <pt x="674" y="178" on="0"/>
        <pt x="674" y="232" on="1"/>
        <pt x="674" y="613" on="1"/>
        <pt x="674" y="630" on="0"/>
        <pt x="666" y="637" on="0"/>
        <pt x="644" y="640" on="1"/>
        <pt x="635" y="641" on="0"/>
        <pt x="624" y="642" on="0"/>
        <pt x="613" y="643" on="0"/>
        <pt x="601" y="643" on="0"/>
        <pt x="591" y="643" on="1"/>
        <pt x="568" y="643" on="1"/>
        <pt x="568" y="686" on="1"/>
        <pt x="577" y="685" on="0"/>
        <pt x="611" y="684" on="0"/>
        <pt x="650" y="684" on="0"/>
        <pt x="687" y="684" on="0"/>
        <pt x="697" y="684" on="1"/>
        <pt x="708" y="684" on="0"/>
        <pt x="744" y="684" on="0"/>
        <pt x="783" y="684" on="0"/>
        <pt x="817" y="685" on="0"/>
        <pt x="826" y="686" on="1"/>
        <pt x="826" y="643" on="1"/>
        <pt x="803" y="643" on="1"/>
        <pt x="774" y="643" on="0"/>
        <pt x="747" y="640" on="1"/>
        <pt x="727" y="637" on="0"/>
        <pt x="720" y="630" on="0"/>
        <pt x="720" y="613" on="1"/>
      </contour>
    </TTGlyph>
    <TTGlyph name="Upsilon" xMin="62" yMin="0" xMax="812" yMax="698">
      <contour>
        <pt x="503" y="43" on="1"/>
        <pt x="636" y="43" on="1"/>
        <pt x="636" y="0" on="1"/>
        <pt x="618" y="1" on="0"/>
        <pt x="566" y="2" on="0"/>
        <pt x="511" y="2" on="0"/>
        <pt x="457" y="2" on="0"/>
        <pt x="437" y="2" on="1"/>
        <pt x="417" y="2" on="0"/>
        <pt x="363" y="2" on="0"/>
        <pt x="308" y="2" on="0"/>
        <pt x="256" y="1" on="0"/>
        <pt x="238" y="0" on="1"/>
        <pt x="238" y="43" on="1"/>
        <pt x="371" y="43" on="1"/>
        <pt x="371" y="346" on="1"/>
        <pt x="371" y="378" on="0"/>
        <pt x="356" y="469" on="0"/>
        <pt x="334" y="509" on="1"/>
        <pt x="317" y="540" on="0"/>
        <pt x="279" y="574" on="0"/>
        <pt x="242" y="589" on="0"/>
        <pt x="211" y="592" on="0"/>
        <pt x="200" y="592" on="1"/>
        <pt x="148" y="592" on="0"/>
        <pt x="110" y="570" on="0"/>
        <pt x="108" y="553" on="1"/>
        <pt x="106" y="540" on="0"/>
        <pt x="98" y="534" on="0"/>
        <pt x="85" y="534" on="1"/>
        <pt x="75" y="534" on="0"/>
        <pt x="62" y="539" on="0"/>
        <pt x="62" y="554" on="1"/>
        <pt x="62" y="577" on="0"/>
        <pt x="82" y="628" on="0"/>
        <pt x="119" y="670" on="0"/>
        <pt x="174" y="698" on="0"/>
        <pt x="210" y="698" on="1"/>
        <pt x="243" y="698" on="0"/>
        <pt x="311" y="674" on="0"/>
        <pt x="371" y="620" on="0"/>
        <pt x="421" y="532" on="0"/>
        <pt x="436" y="469" on="1"/>
        <pt x="437" y="469" on="1"/>
        <pt x="452" y="531" on="0"/>
        <pt x="501" y="618" on="0"/>
        <pt x="561" y="673" on="0"/>
        <pt x="630" y="698" on="0"/>
        <pt x="664" y="698" on="1"/>
        <pt x="700" y="698" on="0"/>
        <pt x="755" y="670" on="0"/>
        <pt x="792" y="628" on="0"/>
        <pt x="812" y="577" on="0"/>
        <pt x="812" y="554" on="1"/>
        <pt x="812" y="539" on="0"/>
        <pt x="799" y="534" on="0"/>
        <pt x="789" y="534" on="1"/>
        <pt x="776" y="534" on="0"/>
        <pt x="768" y="540" on="0"/>
        <pt x="766" y="552" on="1"/>
        <pt x="765" y="560" on="0"/>
        <pt x="758" y="574" on="0"/>
        <pt x="738" y="585" on="0"/>
        <pt x="703" y="592" on="0"/>
        <pt x="674" y="592" on="1"/>
        <pt x="664" y="592" on="0"/>
        <pt x="634" y="590" on="0"/>
        <pt x="599" y="576" on="0"/>
        <pt x="563" y="546" on="0"/>
        <pt x="546" y="518" on="1"/>
        <pt x="530" y="492" on="0"/>
        <pt x="512" y="436" on="0"/>
        <pt x="504" y="387" on="0"/>
        <pt x="503" y="352" on="0"/>
        <pt x="503" y="346" on="1"/>
      </contour>
    </TTGlyph>
    <TTGlyph name="V" xMin="24" yMin="-9" xMax="825" yMax="686">
      <contour>
        <pt x="459" y="12" on="1"/>
        <pt x="452" y="-4" on="0"/>
        <pt x="436" y="-9" on="0"/>
        <pt x="424" y="-9" on="1"/>
        <pt x="412" y="-9" on="0"/>
        <pt x="397" y="-3" on="0"/>
        <pt x="390" y="12" on="1"/>
        <pt x="114" y="643" on="1"/>
        <pt x="24" y="643" on="1"/>
        <pt x="24" y="686" on="1"/>
        <pt x="33" y="685" on="0"/>
        <pt x="75" y="684" on="0"/>
        <pt x="123" y="684" on="0"/>
        <pt x="168" y="684" on="0"/>
        <pt x="180" y="684" on="1"/>
        <pt x="194" y="684" on="0"/>
        <pt x="241" y="684" on="0"/>
        <pt x="290" y="684" on="0"/>
        <pt x="334" y="685" on="0"/>
        <pt x="346" y="686" on="1"/>
        <pt x="346" y="643" on="1"/>
        <pt x="253" y="643" on="1"/>
        <pt x="469" y="150" on="1"/>
        <pt x="674" y="618" on="1"/>
        <pt x="679" y="632" on="1"/>
        <pt x="658" y="640" on="0"/>
        <pt x="609" y="643" on="0"/>
        <pt x="592" y="643" on="1"/>
        <pt x="592" y="686" on="1"/>
        <pt x="601" y="685" on="0"/>
        <pt x="633" y="684" on="0"/>
        <pt x="669" y="684" on="0"/>
        <pt x="704" y="684" on="0"/>
        <pt x="714" y="684" on="1"/>
        <pt x="717" y="684" on="0"/>
        <pt x="744" y="684" on="0"/>
        <pt x="778" y="684" on="0"/>
        <pt x="813" y="685" on="0"/>
        <pt x="825" y="686" on="1"/>
        <pt x="825" y="643" on="1"/>
        <pt x="808" y="643" on="1"/>
        <pt x="780" y="643" on="0"/>
        <pt x="749" y="639" on="0"/>
        <pt x="732" y="633" on="0"/>
        <pt x="726" y="625" on="0"/>
        <pt x="724" y="620" on="1"/>
      </contour>
    </TTGlyph>
    <TTGlyph name="W" xMin="22" yMin="-9" xMax="1139" yMax="686">
      <contour>
        <pt x="817" y="14" on="1"/>
        <pt x="812" y="0" on="0"/>
        <pt x="800" y="-9" on="0"/>
        <pt x="786" y="-9" on="1"/>
        <pt x="769" y="-9" on="0"/>
        <pt x="760" y="2" on="0"/>
        <pt x="755" y="14" on="1"/>
        <pt x="580" y="475" on="1"/>
        <pt x="406" y="14" on="1"/>
        <pt x="401" y="2" on="0"/>
        <pt x="392" y="-9" on="0"/>
        <pt x="375" y="-9" on="1"/>
        <pt x="358" y="-9" on="0"/>
        <pt x="349" y="2" on="0"/>
        <pt x="344" y="15" on="1"/>
        <pt x="106" y="643" on="1"/>
        <pt x="22" y="643" on="1"/>
        <pt x="22" y="686" on="1"/>
        <pt x="31" y="685" on="0"/>
        <pt x="72" y="684" on="0"/>
        <pt x="119" y="684" on="0"/>
        <pt x="162" y="684" on="0"/>
        <pt x="174" y="684" on="1"/>
        <pt x="188" y="684" on="0"/>
        <pt x="234" y="684" on="0"/>
        <pt x="283" y="684" on="0"/>
        <pt x="326" y="685" on="0"/>
        <pt x="337" y="686" on="1"/>
        <pt x="337" y="643" on="1"/>
        <pt x="243" y="643" on="1"/>
        <pt x="421" y="171" on="1"/>
        <pt x="558" y="535" on="1"/>
        <pt x="517" y="643" on="1"/>
        <pt x="433" y="643" on="1"/>
        <pt x="433" y="686" on="1"/>
        <pt x="442" y="685" on="0"/>
        <pt x="483" y="684" on="0"/>
        <pt x="530" y="684" on="0"/>
        <pt x="573" y="684" on="0"/>
        <pt x="585" y="684" on="1"/>
        <pt x="599" y="684" on="0"/>
        <pt x="645" y="684" on="0"/>
        <pt x="693" y="684" on="0"/>
        <pt x="736" y="685" on="0"/>
        <pt x="748" y="686" on="1"/>
        <pt x="748" y="643" on="1"/>
        <pt x="653" y="643" on="1"/>
        <pt x="832" y="171" on="1"/>
        <pt x="1000" y="617" on="1"/>
        <pt x="1003" y="624" on="0"/>
        <pt x="1004" y="628" on="0"/>
        <pt x="1004" y="629" on="1"/>
        <pt x="1004" y="634" on="0"/>
        <pt x="976" y="640" on="0"/>
        <pt x="941" y="643" on="0"/>
        <pt x="909" y="643" on="0"/>
        <pt x="904" y="643" on="1"/>
        <pt x="904" y="686" on="1"/>
        <pt x="913" y="685" on="0"/>
        <pt x="946" y="684" on="0"/>
        <pt x="984" y="684" on="0"/>
        <pt x="1019" y="684" on="0"/>
        <pt x="1030" y="684" on="1"/>
        <pt x="1051" y="684" on="0"/>
        <pt x="1077" y="684" on="0"/>
        <pt x="1098" y="684" on="0"/>
        <pt x="1120" y="685" on="0"/>
        <pt x="1139" y="686" on="1"/>
        <pt x="1139" y="643" on="1"/>
        <pt x="1108" y="643" on="0"/>
        <pt x="1073" y="641" on="0"/>
        <pt x="1055" y="635" on="0"/>
        <pt x="1049" y="626" on="0"/>
        <pt x="1046" y="619" on="1"/>
      </contour>
    </TTGlyph>
    <TTGlyph name="X" xMin="31" yMin="0" xMax="819" yMax="686">
      <contour>
        <pt x="723" y="43" on="1"/>
        <pt x="819" y="43" on="1"/>
        <pt x="819" y="0" on="1"/>
        <pt x="810" y="1" on="0"/>
        <pt x="766" y="2" on="0"/>
        <pt x="717" y="2" on="0"/>
        <pt x="671" y="2" on="0"/>
        <pt x="659" y="2" on="1"/>
        <pt x="645" y="2" on="0"/>
        <pt x="597" y="2" on="0"/>
        <pt x="546" y="2" on="0"/>
        <pt x="501" y="1" on="0"/>
        <pt x="489" y="0" on="1"/>
        <pt x="489" y="43" on="1"/>
        <pt x="572" y="43" on="1"/>
        <pt x="392" y="293" on="1"/>
        <pt x="214" y="55" on="1"/>
        <pt x="225" y="51" on="0"/>
        <pt x="253" y="46" on="0"/>
        <pt x="280" y="43" on="0"/>
        <pt x="301" y="43" on="0"/>
        <pt x="305" y="43" on="1"/>
        <pt x="305" y="0" on="1"/>
        <pt x="296" y="1" on="0"/>
        <pt x="258" y="2" on="0"/>
        <pt x="215" y="2" on="0"/>
        <pt x="175" y="2" on="0"/>
        <pt x="163" y="2" on="1"/>
        <pt x="153" y="2" on="0"/>
        <pt x="115" y="2" on="0"/>
        <pt x="75" y="2" on="0"/>
        <pt x="40" y="1" on="0"/>
        <pt x="31" y="0" on="1"/>
        <pt x="31" y="43" on="1"/>
        <pt x="58" y="43" on="1"/>
        <pt x="69" y="43" on="0"/>
        <pt x="82" y="43" on="0"/>
        <pt x="94" y="44" on="0"/>
        <pt x="107" y="45" on="0"/>
        <pt x="116" y="46" on="1"/>
        <pt x="129" y="47" on="0"/>
        <pt x="145" y="50" on="0"/>
        <pt x="154" y="54" on="0"/>
        <pt x="160" y="60" on="0"/>
        <pt x="163" y="64" on="1"/>
        <pt x="364" y="332" on="1"/>
        <pt x="142" y="643" on="1"/>
        <pt x="45" y="643" on="1"/>
        <pt x="45" y="686" on="1"/>
        <pt x="55" y="685" on="0"/>
        <pt x="98" y="684" on="0"/>
        <pt x="147" y="684" on="0"/>
        <pt x="192" y="684" on="0"/>
        <pt x="205" y="684" on="1"/>
        <pt x="220" y="684" on="0"/>
        <pt x="268" y="684" on="0"/>
        <pt x="317" y="684" on="0"/>
        <pt x="363" y="685" on="0"/>
        <pt x="376" y="686" on="1"/>
        <pt x="376" y="643" on="1"/>
        <pt x="293" y="643" on="1"/>
        <pt x="442" y="435" on="1"/>
        <pt x="588" y="631" on="1"/>
        <pt x="577" y="636" on="0"/>
        <pt x="549" y="640" on="0"/>
        <pt x="523" y="643" on="0"/>
        <pt x="502" y="643" on="0"/>
        <pt x="497" y="643" on="1"/>
        <pt x="497" y="686" on="1"/>
        <pt x="506" y="685" on="0"/>
        <pt x="545" y="684" on="0"/>
        <pt x="588" y="684" on="0"/>
        <pt x="628" y="684" on="0"/>
        <pt x="640" y="684" on="1"/>
        <pt x="651" y="684" on="0"/>
        <pt x="688" y="684" on="0"/>
        <pt x="727" y="684" on="0"/>
        <pt x="762" y="685" on="0"/>
        <pt x="771" y="686" on="1"/>
        <pt x="771" y="643" on="1"/>
        <pt x="745" y="643" on="1"/>
        <pt x="734" y="643" on="0"/>
        <pt x="720" y="643" on="0"/>
        <pt x="708" y="642" on="0"/>
        <pt x="696" y="641" on="0"/>
        <pt x="686" y="640" on="1"/>
        <pt x="674" y="639" on="0"/>
        <pt x="659" y="637" on="0"/>
        <pt x="649" y="633" on="0"/>
        <pt x="643" y="627" on="0"/>
        <pt x="639" y="622" on="1"/>
        <pt x="470" y="396" on="1"/>
      </contour>
    </TTGlyph>
    <TTGlyph name="Xi" xMin="47" yMin="0" xMax="702" yMax="677">
      <contour>
        <pt x="696" y="487" on="1"/>
        <pt x="654" y="487" on="1"/>
        <pt x="653" y="531" on="0"/>
        <pt x="644" y="559" on="0"/>
        <pt x="641" y="564" on="1"/>
        <pt x="639" y="567" on="0"/>
        <pt x="616" y="571" on="0"/>
        <pt x="588" y="573" on="0"/>
        <pt x="563" y="573" on="0"/>
        <pt x="559" y="573" on="1"/>
        <pt x="190" y="573" on="1"/>
        <pt x="190" y="573" on="0"/>
        <pt x="166" y="573" on="0"/>
        <pt x="137" y="571" on="0"/>
        <pt x="112" y="568" on="0"/>
        <pt x="109" y="565" on="1"/>
        <pt x="105" y="560" on="0"/>
        <pt x="99" y="539" on="0"/>
        <pt x="96" y="516" on="0"/>
        <pt x="95" y="494" on="0"/>
        <pt x="95" y="487" on="1"/>
        <pt x="53" y="487" on="1"/>
        <pt x="62" y="677" on="1"/>
        <pt x="687" y="677" on="1"/>
      </contour>
      <contour>
        <pt x="47" y="201" on="1"/>
        <pt x="89" y="201" on="1"/>
        <pt x="91" y="168" on="0"/>
        <pt x="95" y="126" on="0"/>
        <pt x="102" y="116" on="1"/>
        <pt x="105" y="112" on="0"/>
        <pt x="125" y="107" on="0"/>
        <pt x="151" y="104" on="0"/>
        <pt x="178" y="104" on="0"/>
        <pt x="188" y="104" on="1"/>
        <pt x="561" y="104" on="1"/>
        <pt x="564" y="104" on="0"/>
        <pt x="589" y="104" on="0"/>
        <pt x="618" y="106" on="0"/>
        <pt x="643" y="110" on="0"/>
        <pt x="646" y="113" on="1"/>
        <pt x="654" y="121" on="0"/>
        <pt x="658" y="168" on="0"/>
        <pt x="660" y="201" on="1"/>
        <pt x="702" y="201" on="1"/>
        <pt x="693" y="0" on="1"/>
        <pt x="56" y="0" on="1"/>
      </contour>
      <contour>
        <pt x="593" y="247" on="1"/>
        <pt x="551" y="247" on="1"/>
        <pt x="551" y="300" on="1"/>
        <pt x="198" y="300" on="1"/>
        <pt x="198" y="247" on="1"/>
        <pt x="156" y="247" on="1"/>
        <pt x="156" y="457" on="1"/>
        <pt x="198" y="457" on="1"/>
        <pt x="198" y="404" on="1"/>
        <pt x="551" y="404" on="1"/>
        <pt x="551" y="457" on="1"/>
        <pt x="593" y="457" on="1"/>
      </contour>
    </TTGlyph>
    <TTGlyph name="Y" xMin="16" yMin="0" xMax="833" yMax="686">
      <contour>
        <pt x="488" y="274" on="1"/>
        <pt x="488" y="43" on="1"/>
        <pt x="595" y="43" on="1"/>
        <pt x="595" y="0" on="1"/>
        <pt x="583" y="1" on="0"/>
        <pt x="538" y="2" on="0"/>
        <pt x="487" y="2" on="0"/>
        <pt x="439" y="2" on="0"/>
        <pt x="425" y="2" on="1"/>
        <pt x="412" y="2" on="0"/>
        <pt x="363" y="2" on="0"/>
        <pt x="312" y="2" on="0"/>
        <pt x="266" y="1" on="0"/>
        <pt x="255" y="0" on="1"/>
        <pt x="255" y="43" on="1"/>
        <pt x="361" y="43" on="1"/>
        <pt x="361" y="274" on="1"/>
        <pt x="112" y="643" on="1"/>
        <pt x="16" y="643" on="1"/>
        <pt x="16" y="686" on="1"/>
        <pt x="26" y="685" on="0"/>
        <pt x="70" y="684" on="0"/>
        <pt x="119" y="684" on="0"/>
        <pt x="165" y="684" on="0"/>
        <pt x="178" y="684" on="1"/>
        <pt x="192" y="684" on="0"/>
        <pt x="241" y="684" on="0"/>
        <pt x="292" y="684" on="0"/>
        <pt x="338" y="685" on="0"/>
        <pt x="350" y="686" on="1"/>
        <pt x="350" y="643" on="1"/>
        <pt x="266" y="643" on="1"/>
        <pt x="474" y="335" on="1"/>
        <pt x="666" y="620" on="1"/>
        <pt x="673" y="632" on="1"/>
        <pt x="654" y="640" on="0"/>
        <pt x="616" y="643" on="0"/>
        <pt x="597" y="643" on="1"/>
        <pt x="597" y="686" on="1"/>
        <pt x="606" y="685" on="0"/>
        <pt x="638" y="684" on="0"/>
        <pt x="675" y="684" on="0"/>
        <pt x="710" y="684" on="0"/>
        <pt x="720" y="684" on="1"/>
        <pt x="731" y="684" on="0"/>
        <pt x="762" y="684" on="0"/>
        <pt x="793" y="684" on="0"/>
        <pt x="823" y="685" on="0"/>
        <pt x="833" y="686" on="1"/>
        <pt x="833" y="643" on="1"/>
        <pt x="814" y="643" on="1"/>
        <pt x="786" y="643" on="0"/>
        <pt x="752" y="640" on="0"/>
        <pt x="734" y="634" on="0"/>
        <pt x="726" y="626" on="0"/>
        <pt x="723" y="621" on="1"/>
      </contour>
    </TTGlyph>
    <TTGlyph name="Z" xMin="62" yMin="0" xMax="630" yMax="686">
      <contour>
        <pt x="216" y="46" on="1"/>
        <pt x="362" y="46" on="1"/>
        <pt x="437" y="46" on="0"/>
        <pt x="524" y="86" on="0"/>
        <pt x="570" y="151" on="0"/>
        <pt x="585" y="235" on="0"/>
        <pt x="588" y="279" on="1"/>
        <pt x="630" y="279" on="1"/>
        <pt x="613" y="0" on="1"/>
        <pt x="91" y="0" on="1"/>
        <pt x="74" y="0" on="0"/>
        <pt x="62" y="6" on="0"/>
        <pt x="62" y="23" on="1"/>
        <pt x="62" y="30" on="0"/>
        <pt x="64" y="39" on="0"/>
        <pt x="70" y="48" on="1"/>
        <pt x="470" y="643" on="1"/>
        <pt x="334" y="643" on="1"/>
        <pt x="285" y="643" on="0"/>
        <pt x="208" y="622" on="0"/>
        <pt x="154" y="576" on="0"/>
        <pt x="123" y="502" on="0"/>
        <pt x="120" y="449" on="1"/>
        <pt x="78" y="449" on="1"/>
        <pt x="89" y="686" on="1"/>
        <pt x="595" y="686" on="1"/>
        <pt x="611" y="686" on="0"/>
        <pt x="624" y="681" on="0"/>
        <pt x="624" y="664" on="1"/>
        <pt x="624" y="659" on="0"/>
        <pt x="622" y="649" on="0"/>
        <pt x="616" y="640" on="1"/>
      </contour>
    </TTGlyph>
    <TTGlyph name="a" xMin="34" yMin="-6" xMax="546" yMax="453">
      <contour>
        <pt x="460" y="83" on="1"/>
        <pt x="460" y="74" on="0"/>
        <pt x="462" y="60" on="0"/>
        <pt x="474" y="50" on="0"/>
        <pt x="499" y="43" on="0"/>
        <pt x="523" y="43" on="1"/>
        <pt x="534" y="43" on="0"/>
        <pt x="546" y="38" on="0"/>
        <pt x="546" y="22" on="1"/>
        <pt x="546" y="5" on="0"/>
        <pt x="533" y="0" on="0"/>
        <pt x="517" y="0" on="1"/>
        <pt x="466" y="0" on="1"/>
        <pt x="428" y="0" on="0"/>
        <pt x="387" y="15" on="0"/>
        <pt x="368" y="38" on="0"/>
        <pt x="365" y="66" on="0"/>
        <pt x="365" y="80" on="1"/>
        <pt x="350" y="47" on="0"/>
        <pt x="277" y="-6" on="0"/>
        <pt x="219" y="-6" on="1"/>
        <pt x="193" y="-6" on="0"/>
        <pt x="129" y="3" on="0"/>
        <pt x="72" y="28" on="0"/>
        <pt x="34" y="71" on="0"/>
        <pt x="34" y="105" on="1"/>
        <pt x="34" y="147" on="0"/>
        <pt x="89" y="205" on="0"/>
        <pt x="178" y="243" on="0"/>
        <pt x="292" y="260" on="0"/>
        <pt x="351" y="260" on="1"/>
        <pt x="351" y="300" on="1"/>
        <pt x="351" y="362" on="0"/>
        <pt x="293" y="420" on="0"/>
        <pt x="242" y="420" on="1"/>
        <pt x="228" y="420" on="0"/>
        <pt x="191" y="418" on="0"/>
        <pt x="166" y="411" on="1"/>
        <pt x="179" y="403" on="0"/>
        <pt x="190" y="377" on="0"/>
        <pt x="190" y="363" on="1"/>
        <pt x="190" y="334" on="0"/>
        <pt x="154" y="304" on="0"/>
        <pt x="131" y="304" on="1"/>
        <pt x="111" y="304" on="0"/>
        <pt x="72" y="332" on="0"/>
        <pt x="72" y="364" on="1"/>
        <pt x="72" y="396" on="0"/>
        <pt x="111" y="431" on="0"/>
        <pt x="165" y="449" on="0"/>
        <pt x="225" y="453" on="0"/>
        <pt x="246" y="453" on="1"/>
        <pt x="352" y="453" on="0"/>
        <pt x="460" y="368" on="0"/>
        <pt x="460" y="299" on="1"/>
      </contour>
      <contour>
        <pt x="351" y="233" on="1"/>
        <pt x="314" y="231" on="0"/>
        <pt x="241" y="217" on="0"/>
        <pt x="182" y="187" on="0"/>
        <pt x="145" y="140" on="0"/>
        <pt x="145" y="106" on="1"/>
        <pt x="145" y="71" on="0"/>
        <pt x="198" y="27" on="0"/>
        <pt x="235" y="27" on="1"/>
        <pt x="247" y="27" on="0"/>
        <pt x="286" y="36" on="0"/>
        <pt x="324" y="60" on="0"/>
        <pt x="351" y="104" on="0"/>
        <pt x="351" y="139" on="1"/>
      </contour>
    </TTGlyph>
    <TTGlyph name="acute" xMin="233" yMin="511" xMax="447" yMax="704">
      <contour>
        <pt x="260" y="511" on="1"/>
        <pt x="233" y="544" on="1"/>
        <pt x="346" y="680" on="1"/>
        <pt x="351" y="685" on="0"/>
        <pt x="372" y="704" on="0"/>
        <pt x="389" y="704" on="1"/>
        <pt x="412" y="704" on="0"/>
        <pt x="447" y="667" on="0"/>
        <pt x="447" y="644" on="1"/>
        <pt x="447" y="622" on="0"/>
        <pt x="421" y="600" on="0"/>
        <pt x="411" y="595" on="1"/>
      </contour>
    </TTGlyph>
    <TTGlyph name="ae" xMin="38" yMin="-6" xMax="780" yMax="453">
      <contour>
        <pt x="460" y="221" on="1"/>
        <pt x="460" y="210" on="0"/>
        <pt x="462" y="174" on="0"/>
        <pt x="470" y="131" on="0"/>
        <pt x="489" y="88" on="0"/>
        <pt x="522" y="52" on="0"/>
        <pt x="573" y="30" on="0"/>
        <pt x="610" y="30" on="1"/>
        <pt x="627" y="30" on="0"/>
        <pt x="664" y="39" on="0"/>
        <pt x="698" y="59" on="0"/>
        <pt x="728" y="91" on="0"/>
        <pt x="737" y="115" on="1"/>
        <pt x="740" y="125" on="0"/>
        <pt x="747" y="132" on="0"/>
        <pt x="759" y="132" on="1"/>
        <pt x="764" y="132" on="0"/>
        <pt x="780" y="128" on="0"/>
        <pt x="780" y="117" on="1"/>
        <pt x="780" y="110" on="0"/>
        <pt x="762" y="70" on="0"/>
        <pt x="720" y="27" on="0"/>
        <pt x="650" y="-6" on="0"/>
        <pt x="599" y="-6" on="1"/>
        <pt x="587" y="-6" on="0"/>
        <pt x="546" y="-3" on="0"/>
        <pt x="495" y="10" on="0"/>
        <pt x="441" y="37" on="0"/>
        <pt x="416" y="60" on="1"/>
        <pt x="399" y="41" on="0"/>
        <pt x="352" y="15" on="0"/>
        <pt x="299" y="0" on="0"/>
        <pt x="245" y="-6" on="0"/>
        <pt x="221" y="-6" on="1"/>
        <pt x="183" y="-6" on="0"/>
        <pt x="116" y="6" on="0"/>
        <pt x="67" y="32" on="0"/>
        <pt x="38" y="72" on="0"/>
        <pt x="38" y="100" on="1"/>
        <pt x="38" y="134" on="0"/>
        <pt x="75" y="182" on="0"/>
        <pt x="134" y="214" on="0"/>
        <pt x="206" y="233" on="0"/>
        <pt x="275" y="243" on="0"/>
        <pt x="335" y="246" on="0"/>
        <pt x="351" y="247" on="1"/>
        <pt x="351" y="300" on="1"/>
        <pt x="351" y="361" on="0"/>
        <pt x="295" y="420" on="0"/>
        <pt x="242" y="420" on="1"/>
        <pt x="228" y="420" on="0"/>
        <pt x="191" y="418" on="0"/>
        <pt x="166" y="411" on="1"/>
        <pt x="179" y="403" on="0"/>
        <pt x="190" y="377" on="0"/>
        <pt x="190" y="363" on="1"/>
        <pt x="190" y="334" on="0"/>
        <pt x="154" y="304" on="0"/>
        <pt x="131" y="304" on="1"/>
        <pt x="111" y="304" on="0"/>
        <pt x="72" y="332" on="0"/>
        <pt x="72" y="364" on="1"/>
        <pt x="72" y="396" on="0"/>
        <pt x="111" y="431" on="0"/>
        <pt x="165" y="449" on="0"/>
        <pt x="225" y="453" on="0"/>
        <pt x="246" y="453" on="1"/>
        <pt x="257" y="453" on="0"/>
        <pt x="298" y="451" on="0"/>
        <pt x="348" y="441" on="0"/>
        <pt x="400" y="418" on="0"/>
        <pt x="422" y="397" on="1"/>
        <pt x="456" y="426" on="0"/>
        <pt x="541" y="453" on="0"/>
        <pt x="586" y="453" on="1"/>
        <pt x="643" y="453" on="0"/>
        <pt x="718" y="416" on="0"/>
        <pt x="762" y="357" on="0"/>
        <pt x="780" y="283" on="0"/>
        <pt x="780" y="246" on="1"/>
        <pt x="780" y="227" on="0"/>
        <pt x="768" y="221" on="0"/>
        <pt x="751" y="221" on="1"/>
      </contour>
      <contour>
        <pt x="688" y="250" on="1"/>
        <pt x="687" y="269" on="0"/>
        <pt x="682" y="327" on="0"/>
        <pt x="662" y="381" on="0"/>
        <pt x="621" y="420" on="0"/>
        <pt x="585" y="420" on="1"/>
        <pt x="575" y="420" on="0"/>
        <pt x="550" y="416" on="0"/>
        <pt x="523" y="404" on="0"/>
        <pt x="498" y="384" on="0"/>
        <pt x="487" y="368" on="1"/>
        <pt x="473" y="345" on="0"/>
        <pt x="462" y="288" on="0"/>
        <pt x="460" y="250" on="1"/>
      </contour>
      <contour>
        <pt x="351" y="217" on="1"/>
        <pt x="343" y="217" on="0"/>
        <pt x="306" y="214" on="0"/>
        <pt x="262" y="205" on="0"/>
        <pt x="214" y="190" on="0"/>
        <pt x="174" y="165" on="0"/>
        <pt x="149" y="127" on="0"/>
        <pt x="149" y="101" on="1"/>
        <pt x="149" y="72" on="0"/>
        <pt x="197" y="27" on="0"/>
        <pt x="236" y="27" on="1"/>
        <pt x="265" y="27" on="0"/>
        <pt x="314" y="44" on="0"/>
        <pt x="350" y="71" on="0"/>
        <pt x="370" y="107" on="0"/>
        <pt x="370" y="125" on="1"/>
        <pt x="370" y="127" on="0"/>
        <pt x="369" y="131" on="0"/>
        <pt x="367" y="137" on="1"/>
        <pt x="360" y="153" on="0"/>
        <pt x="352" y="193" on="0"/>
      </contour>
    </TTGlyph>
    <TTGlyph name="ampersand" xMin="47" yMin="-12" xMax="818" yMax="706">
      <contour>
        <pt x="669" y="377" on="1"/>
        <pt x="671" y="379" on="0"/>
        <pt x="675" y="387" on="0"/>
        <pt x="675" y="389" on="1"/>
        <pt x="675" y="394" on="0"/>
        <pt x="655" y="398" on="0"/>
        <pt x="629" y="401" on="0"/>
        <pt x="605" y="401" on="0"/>
        <pt x="602" y="401" on="1"/>
        <pt x="602" y="444" on="1"/>
        <pt x="611" y="443" on="0"/>
        <pt x="642" y="442" on="0"/>
        <pt x="675" y="442" on="0"/>
        <pt x="707" y="442" on="0"/>
        <pt x="717" y="442" on="1"/>
        <pt x="731" y="442" on="0"/>
        <pt x="749" y="442" on="0"/>
        <pt x="769" y="442" on="0"/>
        <pt x="795" y="443" on="0"/>
        <pt x="818" y="444" on="1"/>
        <pt x="818" y="401" on="1"/>
        <pt x="785" y="401" on="0"/>
        <pt x="731" y="397" on="0"/>
        <pt x="721" y="383" on="1"/>
        <pt x="687" y="332" on="1"/>
        <pt x="654" y="283" on="0"/>
        <pt x="610" y="220" on="0"/>
        <pt x="574" y="173" on="0"/>
        <pt x="538" y="133" on="0"/>
        <pt x="514" y="109" on="1"/>
        <pt x="530" y="95" on="0"/>
        <pt x="563" y="67" on="0"/>
        <pt x="599" y="45" on="0"/>
        <pt x="636" y="31" on="0"/>
        <pt x="657" y="31" on="1"/>
        <pt x="667" y="31" on="0"/>
        <pt x="704" y="37" on="0"/>
        <pt x="740" y="56" on="0"/>
        <pt x="769" y="90" on="0"/>
        <pt x="770" y="118" on="1"/>
        <pt x="812" y="118" on="1"/>
        <pt x="811" y="87" on="0"/>
        <pt x="784" y="38" on="0"/>
        <pt x="739" y="5" on="0"/>
        <pt x="682" y="-12" on="0"/>
        <pt x="652" y="-12" on="1"/>
        <pt x="615" y="-12" on="0"/>
        <pt x="550" y="3" on="0"/>
        <pt x="497" y="24" on="0"/>
        <pt x="457" y="46" on="0"/>
        <pt x="446" y="53" on="1"/>
        <pt x="411" y="29" on="0"/>
        <pt x="314" y="-12" on="0"/>
        <pt x="251" y="-12" on="1"/>
        <pt x="208" y="-12" on="0"/>
        <pt x="134" y="10" on="0"/>
        <pt x="79" y="49" on="0"/>
        <pt x="47" y="103" on="0"/>
        <pt x="47" y="136" on="1"/>
        <pt x="47" y="156" on="0"/>
        <pt x="58" y="188" on="0"/>
        <pt x="77" y="215" on="0"/>
        <pt x="106" y="242" on="0"/>
        <pt x="124" y="258" on="1"/>
        <pt x="212" y="338" on="1"/>
        <pt x="192" y="387" on="0"/>
        <pt x="170" y="484" on="0"/>
        <pt x="170" y="529" on="1"/>
        <pt x="170" y="573" on="0"/>
        <pt x="202" y="639" on="0"/>
        <pt x="252" y="684" on="0"/>
        <pt x="314" y="706" on="0"/>
        <pt x="343" y="706" on="1"/>
        <pt x="371" y="706" on="0"/>
        <pt x="411" y="681" on="0"/>
        <pt x="436" y="642" on="0"/>
        <pt x="448" y="597" on="0"/>
        <pt x="448" y="576" on="1"/>
        <pt x="448" y="552" on="0"/>
        <pt x="423" y="503" on="0"/>
        <pt x="384" y="453" on="0"/>
        <pt x="335" y="406" on="0"/>
        <pt x="311" y="383" on="1"/>
        <pt x="328" y="344" on="0"/>
        <pt x="381" y="264" on="0"/>
        <pt x="435" y="196" on="0"/>
        <pt x="479" y="146" on="0"/>
        <pt x="488" y="137" on="1"/>
        <pt x="521" y="170" on="0"/>
        <pt x="578" y="242" on="0"/>
        <pt x="604" y="281" on="1"/>
      </contour>
      <contour>
        <pt x="298" y="416" on="1"/>
        <pt x="309" y="426" on="0"/>
        <pt x="332" y="449" on="0"/>
        <pt x="350" y="470" on="0"/>
        <pt x="362" y="484" on="0"/>
        <pt x="362" y="484" on="1"/>
        <pt x="379" y="504" on="0"/>
        <pt x="396" y="535" on="0"/>
        <pt x="405" y="557" on="0"/>
        <pt x="406" y="573" on="0"/>
        <pt x="406" y="577" on="1"/>
        <pt x="406" y="586" on="0"/>
        <pt x="401" y="619" on="0"/>
        <pt x="388" y="650" on="0"/>
        <pt x="364" y="673" on="0"/>
        <pt x="345" y="673" on="1"/>
        <pt x="328" y="673" on="0"/>
        <pt x="300" y="657" on="0"/>
        <pt x="279" y="629" on="0"/>
        <pt x="268" y="592" on="0"/>
        <pt x="268" y="571" on="1"/>
        <pt x="268" y="568" on="0"/>
        <pt x="269" y="540" on="0"/>
        <pt x="275" y="498" on="0"/>
        <pt x="287" y="445" on="0"/>
      </contour>
      <contour>
        <pt x="227" y="306" on="1"/>
        <pt x="220" y="301" on="0"/>
        <pt x="200" y="282" on="0"/>
        <pt x="181" y="251" on="0"/>
        <pt x="167" y="205" on="0"/>
        <pt x="167" y="172" on="1"/>
        <pt x="167" y="157" on="0"/>
        <pt x="174" y="109" on="0"/>
        <pt x="195" y="64" on="0"/>
        <pt x="232" y="31" on="0"/>
        <pt x="263" y="31" on="1"/>
        <pt x="269" y="31" on="0"/>
        <pt x="299" y="33" on="0"/>
        <pt x="339" y="42" on="0"/>
        <pt x="387" y="61" on="0"/>
        <pt x="412" y="78" on="1"/>
        <pt x="399" y="88" on="0"/>
        <pt x="357" y="124" on="0"/>
        <pt x="308" y="180" on="0"/>
        <pt x="253" y="256" on="0"/>
      </contour>
    </TTGlyph>
    <TTGlyph name="asterisk" xMin="72" yMin="306" xMax="489" yMax="750">
      <contour>
        <pt x="297" y="500" on="1"/>
        <pt x="310" y="422" on="1"/>
        <pt x="312" y="412" on="0"/>
        <pt x="316" y="387" on="0"/>
        <pt x="319" y="364" on="0"/>
        <pt x="322" y="346" on="0"/>
        <pt x="322" y="343" on="1"/>
        <pt x="322" y="323" on="0"/>
        <pt x="294" y="306" on="0"/>
        <pt x="280" y="306" on="1"/>
        <pt x="269" y="306" on="0"/>
        <pt x="239" y="323" on="0"/>
        <pt x="239" y="343" on="1"/>
        <pt x="239" y="346" on="0"/>
        <pt x="240" y="353" on="0"/>
        <pt x="242" y="366" on="1"/>
        <pt x="264" y="500" on="1"/>
        <pt x="140" y="406" on="1"/>
        <pt x="129" y="398" on="0"/>
        <pt x="122" y="394" on="0"/>
        <pt x="114" y="394" on="1"/>
        <pt x="97" y="394" on="0"/>
        <pt x="72" y="420" on="0"/>
        <pt x="72" y="439" on="1"/>
        <pt x="72" y="459" on="0"/>
        <pt x="92" y="472" on="0"/>
        <pt x="102" y="476" on="1"/>
        <pt x="246" y="528" on="1"/>
        <pt x="101" y="580" on="1"/>
        <pt x="93" y="582" on="0"/>
        <pt x="72" y="597" on="0"/>
        <pt x="72" y="617" on="1"/>
        <pt x="72" y="636" on="0"/>
        <pt x="97" y="662" on="0"/>
        <pt x="114" y="662" on="1"/>
        <pt x="122" y="662" on="0"/>
        <pt x="129" y="658" on="0"/>
        <pt x="140" y="650" on="1"/>
        <pt x="264" y="556" on="1"/>
        <pt x="242" y="690" on="1"/>
        <pt x="240" y="703" on="0"/>
        <pt x="239" y="710" on="0"/>
        <pt x="239" y="713" on="1"/>
        <pt x="239" y="733" on="0"/>
        <pt x="267" y="750" on="0"/>
        <pt x="281" y="750" on="1"/>
        <pt x="292" y="750" on="0"/>
        <pt x="322" y="733" on="0"/>
        <pt x="322" y="713" on="1"/>
        <pt x="322" y="710" on="0"/>
        <pt x="321" y="703" on="0"/>
        <pt x="319" y="690" on="1"/>
        <pt x="297" y="556" on="1"/>
        <pt x="421" y="650" on="1"/>
        <pt x="432" y="658" on="0"/>
        <pt x="439" y="662" on="0"/>
        <pt x="447" y="662" on="1"/>
        <pt x="464" y="662" on="0"/>
        <pt x="489" y="636" on="0"/>
        <pt x="489" y="617" on="1"/>
        <pt x="489" y="597" on="0"/>
        <pt x="469" y="584" on="0"/>
        <pt x="459" y="580" on="1"/>
        <pt x="315" y="528" on="1"/>
        <pt x="460" y="476" on="1"/>
        <pt x="468" y="474" on="0"/>
        <pt x="489" y="459" on="0"/>
        <pt x="489" y="439" on="1"/>
        <pt x="489" y="420" on="0"/>
        <pt x="464" y="394" on="0"/>
        <pt x="447" y="394" on="1"/>
        <pt x="439" y="394" on="0"/>
        <pt x="432" y="398" on="0"/>
        <pt x="421" y="406" on="1"/>
      </contour>
    </TTGlyph>
    <TTGlyph name="at" xMin="62" yMin="-6" xMax="812" yMax="700">
      <contour>
        <pt x="662" y="222" on="1"/>
        <pt x="662" y="218" on="0"/>
        <pt x="663" y="198" on="0"/>
        <pt x="669" y="177" on="0"/>
        <pt x="683" y="162" on="0"/>
        <pt x="696" y="162" on="1"/>
        <pt x="719" y="162" on="0"/>
        <pt x="748" y="192" on="0"/>
        <pt x="764" y="242" on="0"/>
        <pt x="770" y="305" on="0"/>
        <pt x="770" y="339" on="1"/>
        <pt x="770" y="426" on="0"/>
        <pt x="715" y="550" on="0"/>
        <pt x="622" y="630" on="0"/>
        <pt x="502" y="667" on="0"/>
        <pt x="437" y="667" on="1"/>
        <pt x="359" y="667" on="0"/>
        <pt x="235" y="620" on="0"/>
        <pt x="149" y="535" on="0"/>
        <pt x="104" y="418" on="0"/>
        <pt x="104" y="347" on="1"/>
        <pt x="104" y="281" on="0"/>
        <pt x="146" y="165" on="0"/>
        <pt x="230" y="78" on="0"/>
        <pt x="356" y="27" on="0"/>
        <pt x="440" y="27" on="1"/>
        <pt x="494" y="27" on="0"/>
        <pt x="589" y="41" on="0"/>
        <pt x="665" y="59" on="0"/>
        <pt x="719" y="78" on="0"/>
        <pt x="734" y="84" on="1"/>
        <pt x="743" y="88" on="0"/>
        <pt x="751" y="89" on="0"/>
        <pt x="762" y="89" on="1"/>
        <pt x="786" y="89" on="1"/>
        <pt x="798" y="89" on="0"/>
        <pt x="812" y="86" on="0"/>
        <pt x="812" y="77" on="1"/>
        <pt x="812" y="71" on="0"/>
        <pt x="803" y="66" on="0"/>
        <pt x="797" y="64" on="1"/>
        <pt x="696" y="23" on="0"/>
        <pt x="514" y="-6" on="0"/>
        <pt x="441" y="-6" on="1"/>
        <pt x="345" y="-6" on="0"/>
        <pt x="203" y="51" on="0"/>
        <pt x="109" y="147" on="0"/>
        <pt x="62" y="275" on="0"/>
        <pt x="62" y="347" on="1"/>
        <pt x="62" y="425" on="0"/>
        <pt x="114" y="554" on="0"/>
        <pt x="211" y="648" on="0"/>
        <pt x="350" y="700" on="0"/>
        <pt x="437" y="700" on="1"/>
        <pt x="522" y="700" on="0"/>
        <pt x="660" y="650" on="0"/>
        <pt x="758" y="557" on="0"/>
        <pt x="812" y="426" on="0"/>
        <pt x="812" y="345" on="1"/>
        <pt x="812" y="314" on="0"/>
        <pt x="803" y="238" on="0"/>
        <pt x="776" y="173" on="0"/>
        <pt x="727" y="129" on="0"/>
        <pt x="686" y="129" on="1"/>
        <pt x="680" y="129" on="0"/>
        <pt x="650" y="130" on="0"/>
        <pt x="613" y="139" on="0"/>
        <pt x="576" y="158" on="0"/>
        <pt x="564" y="176" on="1"/>
        <pt x="541" y="155" on="0"/>
        <pt x="477" y="129" on="0"/>
        <pt x="435" y="129" on="1"/>
        <pt x="387" y="129" on="0"/>
        <pt x="306" y="159" on="0"/>
        <pt x="246" y="215" on="0"/>
        <pt x="212" y="296" on="0"/>
        <pt x="212" y="347" on="1"/>
        <pt x="212" y="398" on="0"/>
        <pt x="246" y="479" on="0"/>
        <pt x="305" y="535" on="0"/>
        <pt x="387" y="565" on="0"/>
        <pt x="435" y="565" on="1"/>
        <pt x="487" y="565" on="0"/>
        <pt x="571" y="521" on="0"/>
        <pt x="595" y="479" on="1"/>
        <pt x="637" y="479" on="1"/>
        <pt x="655" y="479" on="0"/>
        <pt x="662" y="473" on="0"/>
        <pt x="662" y="453" on="1"/>
      </contour>
      <contour>
        <pt x="553" y="473" on="1"/>
        <pt x="538" y="494" on="0"/>
        <pt x="502" y="518" on="0"/>
        <pt x="469" y="530" on="0"/>
        <pt x="444" y="532" on="0"/>
        <pt x="439" y="532" on="1"/>
        <pt x="417" y="532" on="0"/>
        <pt x="374" y="511" on="0"/>
        <pt x="341" y="466" on="0"/>
        <pt x="321" y="396" on="0"/>
        <pt x="321" y="347" on="1"/>
        <pt x="321" y="299" on="0"/>
        <pt x="341" y="229" on="0"/>
        <pt x="374" y="184" on="0"/>
        <pt x="416" y="162" on="0"/>
        <pt x="439" y="162" on="1"/>
        <pt x="444" y="162" on="0"/>
        <pt x="469" y="164" on="0"/>
        <pt x="502" y="176" on="0"/>
        <pt x="538" y="200" on="0"/>
        <pt x="553" y="221" on="1"/>
      </contour>
    </TTGlyph>
    <TTGlyph name="b" xMin="35" yMin="-6" xMax="586" yMax="694">
      <contour>
        <pt x="208" y="399" on="1"/>
        <pt x="239" y="423" on="0"/>
        <pt x="310" y="450" on="0"/>
        <pt x="355" y="450" on="1"/>
        <pt x="406" y="450" on="0"/>
        <pt x="491" y="418" on="0"/>
        <pt x="552" y="358" on="0"/>
        <pt x="586" y="274" on="0"/>
        <pt x="586" y="223" on="1"/>
        <pt x="586" y="169" on="0"/>
        <pt x="549" y="83" on="0"/>
        <pt x="483" y="25" on="0"/>
        <pt x="394" y="-6" on="0"/>
        <pt x="342" y="-6" on="1"/>
        <pt x="312" y="-6" on="0"/>
        <pt x="234" y="18" on="0"/>
        <pt x="196" y="58" on="1"/>
        <pt x="184" y="43" on="0"/>
        <pt x="159" y="14" on="0"/>
        <pt x="146" y="0" on="1"/>
        <pt x="104" y="0" on="1"/>
        <pt x="104" y="604" on="1"/>
        <pt x="104" y="619" on="0"/>
        <pt x="100" y="634" on="0"/>
        <pt x="86" y="642" on="0"/>
        <pt x="58" y="643" on="0"/>
        <pt x="35" y="643" on="1"/>
        <pt x="35" y="686" on="1"/>
        <pt x="208" y="694" on="1"/>
      </contour>
      <contour>
        <pt x="213" y="97" on="1"/>
        <pt x="218" y="89" on="0"/>
        <pt x="238" y="65" on="0"/>
        <pt x="267" y="43" on="0"/>
        <pt x="307" y="27" on="0"/>
        <pt x="332" y="27" on="1"/>
        <pt x="344" y="27" on="0"/>
        <pt x="373" y="32" on="0"/>
        <pt x="402" y="44" on="0"/>
        <pt x="430" y="67" on="0"/>
        <pt x="442" y="85" on="1"/>
        <pt x="460" y="113" on="0"/>
        <pt x="466" y="190" on="0"/>
        <pt x="466" y="224" on="1"/>
        <pt x="466" y="249" on="0"/>
        <pt x="462" y="315" on="0"/>
        <pt x="439" y="375" on="0"/>
        <pt x="389" y="417" on="0"/>
        <pt x="342" y="417" on="1"/>
        <pt x="310" y="417" on="0"/>
        <pt x="239" y="387" on="0"/>
        <pt x="213" y="351" on="1"/>
      </contour>
    </TTGlyph>
    <TTGlyph name="bracketleft" xMin="128" yMin="-250" xMax="287" yMax="750">
      <contour>
        <pt x="128" y="-250" on="1"/>
        <pt x="128" y="750" on="1"/>
        <pt x="287" y="750" on="1"/>
        <pt x="287" y="695" on="1"/>
        <pt x="183" y="695" on="1"/>
        <pt x="183" y="-195" on="1"/>
        <pt x="287" y="-195" on="1"/>
        <pt x="287" y="-250" on="1"/>
      </contour>
    </TTGlyph>
    <TTGlyph name="bracketright" xMin="24" yMin="-250" xMax="183" yMax="750">
      <contour>
        <pt x="183" y="-250" on="1"/>
        <pt x="24" y="-250" on="1"/>
        <pt x="24" y="-195" on="1"/>
        <pt x="128" y="-195" on="1"/>
        <pt x="128" y="695" on="1"/>
        <pt x="24" y="695" on="1"/>
        <pt x="24" y="750" on="1"/>
        <pt x="183" y="750" on="1"/>
      </contour>
    </TTGlyph>
    <TTGlyph name="breve" xMin="108" yMin="510" xMax="453" yMax="694">
      <contour>
        <pt x="453" y="694" on="1"/>
        <pt x="452" y="651" on="0"/>
        <pt x="421" y="582" on="0"/>
        <pt x="373" y="535" on="0"/>
        <pt x="313" y="510" on="0"/>
        <pt x="281" y="510" on="1"/>
        <pt x="248" y="510" on="0"/>
        <pt x="187" y="536" on="0"/>
        <pt x="139" y="584" on="0"/>
        <pt x="109" y="652" on="0"/>
        <pt x="108" y="694" on="1"/>
        <pt x="141" y="694" on="1"/>
        <pt x="142" y="662" on="0"/>
        <pt x="168" y="615" on="0"/>
        <pt x="208" y="583" on="0"/>
        <pt x="257" y="568" on="0"/>
        <pt x="281" y="568" on="1"/>
        <pt x="304" y="568" on="0"/>
        <pt x="352" y="583" on="0"/>
        <pt x="392" y="614" on="0"/>
        <pt x="419" y="661" on="0"/>
        <pt x="420" y="694" on="1"/>
      </contour>
    </TTGlyph>
    <TTGlyph name="c" xMin="38" yMin="-6" xMax="468" yMax="453">
      <contour>
        <pt x="468" y="117" on="1"/>
        <pt x="468" y="114" on="0"/>
        <pt x="453" y="75" on="0"/>
        <pt x="412" y="30" on="0"/>
        <pt x="339" y="-6" on="0"/>
        <pt x="280" y="-6" on="1"/>
        <pt x="225" y="-6" on="0"/>
        <pt x="135" y="27" on="0"/>
        <pt x="72" y="87" on="0"/>
        <pt x="38" y="171" on="0"/>
        <pt x="38" y="222" on="1"/>
        <pt x="38" y="265" on="0"/>
        <pt x="65" y="348" on="0"/>
        <pt x="125" y="413" on="0"/>
        <pt x="219" y="453" on="0"/>
        <pt x="286" y="453" on="1"/>
        <pt x="306" y="453" on="0"/>
        <pt x="364" y="449" on="0"/>
        <pt x="417" y="431" on="0"/>
        <pt x="455" y="396" on="0"/>
        <pt x="455" y="365" on="1"/>
        <pt x="455" y="347" on="0"/>
        <pt x="442" y="324" on="0"/>
        <pt x="424" y="311" on="0"/>
        <pt x="404" y="305" on="0"/>
        <pt x="396" y="305" on="1"/>
        <pt x="377" y="305" on="0"/>
        <pt x="337" y="333" on="0"/>
        <pt x="337" y="364" on="1"/>
        <pt x="337" y="383" on="0"/>
        <pt x="351" y="405" on="0"/>
        <pt x="353" y="407" on="1"/>
        <pt x="356" y="409" on="0"/>
        <pt x="356" y="410" on="1"/>
        <pt x="356" y="412" on="0"/>
        <pt x="337" y="415" on="0"/>
        <pt x="314" y="416" on="0"/>
        <pt x="293" y="417" on="0"/>
        <pt x="290" y="417" on="1"/>
        <pt x="241" y="417" on="0"/>
        <pt x="187" y="374" on="0"/>
        <pt x="162" y="314" on="0"/>
        <pt x="158" y="249" on="0"/>
        <pt x="158" y="227" on="1"/>
        <pt x="158" y="216" on="0"/>
        <pt x="159" y="178" on="0"/>
        <pt x="167" y="134" on="0"/>
        <pt x="184" y="89" on="0"/>
        <pt x="215" y="53" on="0"/>
        <pt x="264" y="30" on="0"/>
        <pt x="299" y="30" on="1"/>
        <pt x="334" y="30" on="0"/>
        <pt x="380" y="52" on="0"/>
        <pt x="408" y="80" on="0"/>
        <pt x="422" y="109" on="0"/>
        <pt x="425" y="116" on="1"/>
        <pt x="429" y="125" on="0"/>
        <pt x="435" y="129" on="0"/>
        <pt x="447" y="129" on="1"/>
        <pt x="455" y="129" on="0"/>
        <pt x="468" y="126" on="0"/>
      </contour>
    </TTGlyph>
    <TTGlyph name="caron" xMin="131" yMin="519" xMax="430" yMax="650">
      <contour>
        <pt x="410" y="650" on="1"/>
        <pt x="430" y="613" on="1"/>
        <pt x="280" y="519" on="1"/>
        <pt x="131" y="614" on="1"/>
        <pt x="151" y="650" on="1"/>
        <pt x="280" y="595" on="1"/>
      </contour>
    </TTGlyph>
    <TTGlyph name="cedilla" xMin="133" yMin="-199" xMax="429" yMax="-12">
      <contour>
        <pt x="335" y="-34" on="1"/>
        <pt x="350" y="-36" on="0"/>
        <pt x="384" y="-46" on="0"/>
        <pt x="411" y="-64" on="0"/>
        <pt x="429" y="-92" on="0"/>
        <pt x="429" y="-112" on="1"/>
        <pt x="429" y="-135" on="0"/>
        <pt x="403" y="-164" on="0"/>
        <pt x="363" y="-182" on="0"/>
        <pt x="316" y="-190" on="0"/>
        <pt x="296" y="-193" on="1"/>
        <pt x="274" y="-196" on="0"/>
        <pt x="227" y="-198" on="0"/>
        <pt x="183" y="-198" on="0"/>
        <pt x="146" y="-198" on="0"/>
        <pt x="133" y="-199" on="1"/>
        <pt x="133" y="-166" on="1"/>
        <pt x="138" y="-165" on="0"/>
        <pt x="149" y="-165" on="0"/>
        <pt x="156" y="-165" on="1"/>
        <pt x="184" y="-165" on="1"/>
        <pt x="193" y="-165" on="0"/>
        <pt x="238" y="-163" on="0"/>
        <pt x="284" y="-154" on="0"/>
        <pt x="320" y="-133" on="0"/>
        <pt x="320" y="-113" on="1"/>
        <pt x="320" y="-90" on="0"/>
        <pt x="274" y="-62" on="0"/>
        <pt x="226" y="-61" on="1"/>
        <pt x="226" y="-12" on="1"/>
        <pt x="335" y="-12" on="1"/>
      </contour>
    </TTGlyph>
    <TTGlyph name="circumflex" xMin="128" yMin="533" xMax="433" yMax="694">
      <contour>
        <pt x="433" y="567" on="1"/>
        <pt x="407" y="533" on="1"/>
        <pt x="281" y="618" on="1"/>
        <pt x="154" y="533" on="1"/>
        <pt x="128" y="567" on="1"/>
        <pt x="281" y="694" on="1"/>
      </contour>
    </TTGlyph>
    <TTGlyph name="colon" xMin="84" yMin="0" xMax="228" yMax="444">
      <contour>
        <pt x="228" y="372" on="1"/>
        <pt x="228" y="341" on="0"/>
        <pt x="185" y="300" on="0"/>
        <pt x="156" y="300" on="1"/>
        <pt x="127" y="300" on="0"/>
        <pt x="84" y="341" on="0"/>
        <pt x="84" y="372" on="1"/>
        <pt x="84" y="403" on="0"/>
        <pt x="127" y="444" on="0"/>
        <pt x="156" y="444" on="1"/>
        <pt x="185" y="444" on="0"/>
        <pt x="228" y="403" on="0"/>
      </contour>
      <contour>
        <pt x="228" y="72" on="1"/>
        <pt x="228" y="41" on="0"/>
        <pt x="185" y="0" on="0"/>
        <pt x="156" y="0" on="1"/>
        <pt x="127" y="0" on="0"/>
        <pt x="84" y="41" on="0"/>
        <pt x="84" y="72" on="1"/>
        <pt x="84" y="103" on="0"/>
        <pt x="127" y="144" on="0"/>
        <pt x="156" y="144" on="1"/>
        <pt x="185" y="144" on="0"/>
        <pt x="228" y="103" on="0"/>
      </contour>
    </TTGlyph>
    <TTGlyph name="comma" xMin="84" yMin="-194" xMax="240" yMax="144">
      <contour>
        <pt x="207" y="19" on="1"/>
        <pt x="204" y="16" on="0"/>
        <pt x="178" y="0" on="0"/>
        <pt x="156" y="0" on="1"/>
        <pt x="121" y="0" on="0"/>
        <pt x="84" y="45" on="0"/>
        <pt x="84" y="72" on="1"/>
        <pt x="84" y="101" on="0"/>
        <pt x="122" y="144" on="0"/>
        <pt x="155" y="144" on="1"/>
        <pt x="176" y="144" on="0"/>
        <pt x="207" y="125" on="0"/>
        <pt x="229" y="92" on="0"/>
        <pt x="240" y="48" on="0"/>
        <pt x="240" y="24" on="1"/>
        <pt x="240" y="-26" on="0"/>
        <pt x="209" y="-107" on="0"/>
        <pt x="169" y="-164" on="0"/>
        <pt x="133" y="-194" on="0"/>
        <pt x="128" y="-194" on="1"/>
        <pt x="123" y="-194" on="0"/>
        <pt x="110" y="-182" on="0"/>
        <pt x="110" y="-175" on="1"/>
        <pt x="110" y="-170" on="0"/>
        <pt x="119" y="-162" on="1"/>
        <pt x="150" y="-136" on="0"/>
        <pt x="185" y="-81" on="0"/>
        <pt x="202" y="-31" on="0"/>
        <pt x="207" y="9" on="0"/>
      </contour>
    </TTGlyph>
    <TTGlyph name="d" xMin="38" yMin="-6" xMax="589" yMax="694">
      <contour>
        <pt x="520" y="694" on="1"/>
        <pt x="520" y="82" on="1"/>
        <pt x="520" y="67" on="0"/>
        <pt x="524" y="52" on="0"/>
        <pt x="538" y="44" on="0"/>
        <pt x="566" y="43" on="0"/>
        <pt x="589" y="43" on="1"/>
        <pt x="589" y="0" on="1"/>
        <pt x="411" y="-6" on="1"/>
        <pt x="411" y="46" on="1"/>
        <pt x="382" y="21" on="0"/>
        <pt x="312" y="-6" on="0"/>
        <pt x="270" y="-6" on="1"/>
        <pt x="220" y="-6" on="0"/>
        <pt x="135" y="25" on="0"/>
        <pt x="73" y="84" on="0"/>
        <pt x="38" y="168" on="0"/>
        <pt x="38" y="222" on="1"/>
        <pt x="38" y="275" on="0"/>
        <pt x="74" y="359" on="0"/>
        <pt x="139" y="418" on="0"/>
        <pt x="228" y="450" on="0"/>
        <pt x="281" y="450" on="1"/>
        <pt x="307" y="450" on="0"/>
        <pt x="349" y="440" on="0"/>
        <pt x="383" y="426" on="0"/>
        <pt x="408" y="409" on="0"/>
        <pt x="416" y="402" on="1"/>
        <pt x="416" y="604" on="1"/>
        <pt x="416" y="619" on="0"/>
        <pt x="412" y="634" on="0"/>
        <pt x="398" y="642" on="0"/>
        <pt x="370" y="643" on="0"/>
        <pt x="347" y="643" on="1"/>
        <pt x="347" y="686" on="1"/>
      </contour>
      <contour>
        <pt x="411" y="355" on="1"/>
        <pt x="386" y="388" on="0"/>
        <pt x="324" y="417" on="0"/>
        <pt x="293" y="417" on="1"/>
        <pt x="284" y="417" on="0"/>
        <pt x="256" y="413" on="0"/>
        <pt x="223" y="401" on="0"/>
        <pt x="192" y="376" on="0"/>
        <pt x="180" y="355" on="1"/>
        <pt x="163" y="326" on="0"/>
        <pt x="158" y="255" on="0"/>
        <pt x="158" y="220" on="1"/>
        <pt x="158" y="195" on="0"/>
        <pt x="162" y="129" on="0"/>
        <pt x="185" y="69" on="0"/>
        <pt x="236" y="27" on="0"/>
        <pt x="282" y="27" on="1"/>
        <pt x="309" y="27" on="0"/>
        <pt x="379" y="55" on="0"/>
        <pt x="411" y="101" on="1"/>
      </contour>
    </TTGlyph>
    <TTGlyph name="dieresis" xMin="104" yMin="560" xMax="457" yMax="695">
      <contour>
        <pt x="239" y="627" on="1"/>
        <pt x="239" y="598" on="0"/>
        <pt x="198" y="560" on="0"/>
        <pt x="172" y="560" on="1"/>
        <pt x="142" y="560" on="0"/>
        <pt x="104" y="602" on="0"/>
        <pt x="104" y="628" on="1"/>
        <pt x="104" y="652" on="0"/>
        <pt x="141" y="695" on="0"/>
        <pt x="172" y="695" on="1"/>
        <pt x="196" y="695" on="0"/>
        <pt x="239" y="659" on="0"/>
      </contour>
      <contour>
        <pt x="457" y="627" on="1"/>
        <pt x="457" y="603" on="0"/>
        <pt x="420" y="560" on="0"/>
        <pt x="389" y="560" on="1"/>
        <pt x="365" y="560" on="0"/>
        <pt x="322" y="596" on="0"/>
        <pt x="322" y="628" on="1"/>
        <pt x="322" y="657" on="0"/>
        <pt x="363" y="695" on="0"/>
        <pt x="389" y="695" on="1"/>
        <pt x="419" y="695" on="0"/>
        <pt x="457" y="653" on="0"/>
      </contour>
    </TTGlyph>
    <TTGlyph name="dollar" xMin="62" yMin="-56" xMax="499" yMax="750">
      <contour>
        <pt x="302" y="424" on="1"/>
        <pt x="318" y="421" on="0"/>
        <pt x="352" y="412" on="0"/>
        <pt x="388" y="397" on="0"/>
        <pt x="424" y="373" on="0"/>
        <pt x="442" y="354" on="1"/>
        <pt x="470" y="324" on="0"/>
        <pt x="499" y="248" on="0"/>
        <pt x="499" y="207" on="1"/>
        <pt x="499" y="174" on="0"/>
        <pt x="480" y="104" on="0"/>
        <pt x="434" y="43" on="0"/>
        <pt x="359" y="0" on="0"/>
        <pt x="302" y="-5" on="1"/>
        <pt x="302" y="-56" on="1"/>
        <pt x="259" y="-56" on="1"/>
        <pt x="259" y="-5" on="1"/>
        <pt x="211" y="-2" on="0"/>
        <pt x="137" y="30" on="0"/>
        <pt x="87" y="81" on="0"/>
        <pt x="62" y="147" on="0"/>
        <pt x="62" y="184" on="1"/>
        <pt x="62" y="203" on="0"/>
        <pt x="74" y="227" on="0"/>
        <pt x="91" y="241" on="0"/>
        <pt x="112" y="247" on="0"/>
        <pt x="121" y="247" on="1"/>
        <pt x="147" y="247" on="0"/>
        <pt x="180" y="214" on="0"/>
        <pt x="180" y="188" on="1"/>
        <pt x="180" y="170" on="0"/>
        <pt x="166" y="147" on="0"/>
        <pt x="147" y="134" on="0"/>
        <pt x="124" y="128" on="0"/>
        <pt x="115" y="128" on="1"/>
        <pt x="147" y="47" on="0"/>
        <pt x="259" y="38" on="1"/>
        <pt x="259" y="298" on="1"/>
        <pt x="242" y="302" on="0"/>
        <pt x="206" y="311" on="0"/>
        <pt x="170" y="326" on="0"/>
        <pt x="133" y="350" on="0"/>
        <pt x="114" y="369" on="1"/>
        <pt x="110" y="373" on="0"/>
        <pt x="93" y="394" on="0"/>
        <pt x="75" y="427" on="0"/>
        <pt x="62" y="472" on="0"/>
        <pt x="62" y="500" on="1"/>
        <pt x="62" y="537" on="0"/>
        <pt x="86" y="606" on="0"/>
        <pt x="135" y="660" on="0"/>
        <pt x="209" y="696" on="0"/>
        <pt x="259" y="699" on="1"/>
        <pt x="259" y="750" on="1"/>
        <pt x="302" y="750" on="1"/>
        <pt x="302" y="699" on="1"/>
        <pt x="348" y="697" on="0"/>
        <pt x="421" y="670" on="0"/>
        <pt x="472" y="623" on="0"/>
        <pt x="499" y="561" on="0"/>
        <pt x="499" y="523" on="1"/>
        <pt x="499" y="504" on="0"/>
        <pt x="487" y="480" on="0"/>
        <pt x="469" y="466" on="0"/>
        <pt x="448" y="461" on="0"/>
        <pt x="440" y="461" on="1"/>
        <pt x="417" y="461" on="0"/>
        <pt x="381" y="491" on="0"/>
        <pt x="381" y="520" on="1"/>
        <pt x="381" y="529" on="0"/>
        <pt x="387" y="549" on="0"/>
        <pt x="401" y="567" on="0"/>
        <pt x="426" y="579" on="0"/>
        <pt x="444" y="579" on="1"/>
        <pt x="425" y="616" on="0"/>
        <pt x="354" y="653" on="0"/>
        <pt x="302" y="656" on="1"/>
      </contour>
      <contour>
        <pt x="259" y="656" on="1"/>
        <pt x="222" y="653" on="0"/>
        <pt x="175" y="629" on="0"/>
        <pt x="147" y="596" on="0"/>
        <pt x="136" y="561" on="0"/>
        <pt x="136" y="546" on="1"/>
        <pt x="136" y="530" on="0"/>
        <pt x="149" y="495" on="0"/>
        <pt x="177" y="464" on="0"/>
        <pt x="225" y="439" on="0"/>
        <pt x="259" y="433" on="1"/>
      </contour>
      <contour>
        <pt x="302" y="38" on="1"/>
        <pt x="342" y="43" on="0"/>
        <pt x="391" y="73" on="0"/>
        <pt x="417" y="110" on="0"/>
        <pt x="425" y="149" on="0"/>
        <pt x="425" y="162" on="1"/>
        <pt x="425" y="183" on="0"/>
        <pt x="410" y="224" on="0"/>
        <pt x="379" y="258" on="0"/>
        <pt x="333" y="283" on="0"/>
        <pt x="302" y="288" on="1"/>
      </contour>
    </TTGlyph>
    <TTGlyph name="dotaccent" xMin="83" yMin="551" xMax="228" yMax="695">
      <contour>
        <pt x="228" y="623" on="1"/>
        <pt x="228" y="594" on="0"/>
        <pt x="186" y="551" on="0"/>
        <pt x="155" y="551" on="1"/>
        <pt x="126" y="551" on="0"/>
        <pt x="83" y="592" on="0"/>
        <pt x="83" y="623" on="1"/>
        <pt x="83" y="652" on="0"/>
        <pt x="125" y="695" on="0"/>
        <pt x="156" y="695" on="1"/>
        <pt x="185" y="695" on="0"/>
        <pt x="228" y="654" on="0"/>
      </contour>
    </TTGlyph>
    <TTGlyph name="dotlessi" xMin="44" yMin="0" xMax="279" yMax="450">
      <contour>
        <pt x="217" y="43" on="1"/>
        <pt x="279" y="43" on="1"/>
        <pt x="279" y="0" on="1"/>
        <pt x="270" y="1" on="0"/>
        <pt x="239" y="2" on="0"/>
        <pt x="206" y="2" on="0"/>
        <pt x="174" y="2" on="0"/>
        <pt x="163" y="2" on="1"/>
        <pt x="153" y="2" on="0"/>
        <pt x="120" y="2" on="0"/>
        <pt x="84" y="2" on="0"/>
        <pt x="53" y="1" on="0"/>
        <pt x="44" y="0" on="1"/>
        <pt x="44" y="43" on="1"/>
        <pt x="113" y="43" on="1"/>
        <pt x="113" y="360" on="1"/>
        <pt x="113" y="375" on="0"/>
        <pt x="109" y="390" on="0"/>
        <pt x="95" y="398" on="0"/>
        <pt x="69" y="399" on="0"/>
        <pt x="47" y="399" on="1"/>
        <pt x="47" y="442" on="1"/>
        <pt x="217" y="450" on="1"/>
      </contour>
    </TTGlyph>
    <TTGlyph name="e" xMin="31" yMin="-6" xMax="481" yMax="453">
      <contour>
        <pt x="151" y="221" on="1"/>
        <pt x="151" y="200" on="0"/>
        <pt x="156" y="135" on="0"/>
        <pt x="183" y="74" on="0"/>
        <pt x="243" y="30" on="0"/>
        <pt x="297" y="30" on="1"/>
        <pt x="315" y="30" on="0"/>
        <pt x="356" y="39" on="0"/>
        <pt x="395" y="59" on="0"/>
        <pt x="427" y="92" on="0"/>
        <pt x="437" y="116" on="1"/>
        <pt x="442" y="126" on="0"/>
        <pt x="448" y="132" on="0"/>
        <pt x="460" y="132" on="1"/>
        <pt x="465" y="132" on="0"/>
        <pt x="481" y="128" on="0"/>
        <pt x="481" y="117" on="1"/>
        <pt x="481" y="111" on="0"/>
        <pt x="462" y="71" on="0"/>
        <pt x="417" y="28" on="0"/>
        <pt x="342" y="-6" on="0"/>
        <pt x="285" y="-6" on="1"/>
        <pt x="228" y="-6" on="0"/>
        <pt x="135" y="27" on="0"/>
        <pt x="68" y="87" on="0"/>
        <pt x="31" y="173" on="0"/>
        <pt x="31" y="225" on="1"/>
        <pt x="31" y="272" on="0"/>
        <pt x="62" y="355" on="0"/>
        <pt x="124" y="417" on="0"/>
        <pt x="214" y="453" on="0"/>
        <pt x="272" y="453" on="1"/>
        <pt x="371" y="453" on="0"/>
        <pt x="481" y="346" on="0"/>
        <pt x="481" y="246" on="1"/>
        <pt x="481" y="227" on="0"/>
        <pt x="469" y="221" on="0"/>
        <pt x="452" y="221" on="1"/>
      </contour>
      <contour>
        <pt x="389" y="250" on="1"/>
        <pt x="389" y="269" on="0"/>
        <pt x="382" y="327" on="0"/>
        <pt x="358" y="381" on="0"/>
        <pt x="312" y="420" on="0"/>
        <pt x="272" y="420" on="1"/>
        <pt x="240" y="420" on="0"/>
        <pt x="189" y="390" on="0"/>
        <pt x="175" y="366" on="1"/>
        <pt x="159" y="339" on="0"/>
        <pt x="153" y="281" on="0"/>
        <pt x="151" y="250" on="1"/>
      </contour>
    </TTGlyph>
    <TTGlyph name="eight" xMin="47" yMin="-12" xMax="514" yMax="656">
      <contour>
        <pt x="377" y="368" on="1"/>
        <pt x="396" y="358" on="0"/>
        <pt x="444" y="328" on="0"/>
        <pt x="486" y="285" on="0"/>
        <pt x="514" y="225" on="0"/>
        <pt x="514" y="184" on="1"/>
        <pt x="514" y="141" on="0"/>
        <pt x="482" y="68" on="0"/>
        <pt x="422" y="17" on="0"/>
        <pt x="335" y="-12" on="0"/>
        <pt x="279" y="-12" on="1"/>
        <pt x="230" y="-12" on="0"/>
        <pt x="145" y="9" on="0"/>
        <pt x="82" y="52" on="0"/>
        <pt x="47" y="116" on="0"/>
        <pt x="47" y="159" on="1"/>
        <pt x="47" y="179" on="0"/>
        <pt x="56" y="223" on="0"/>
        <pt x="85" y="268" on="0"/>
        <pt x="137" y="311" on="0"/>
        <pt x="179" y="330" on="1"/>
        <pt x="124" y="359" on="0"/>
        <pt x="78" y="443" on="0"/>
        <pt x="78" y="483" on="1"/>
        <pt x="78" y="519" on="0"/>
        <pt x="104" y="583" on="0"/>
        <pt x="156" y="629" on="0"/>
        <pt x="232" y="656" on="0"/>
        <pt x="282" y="656" on="1"/>
        <pt x="323" y="656" on="0"/>
        <pt x="396" y="639" on="0"/>
        <pt x="451" y="603" on="0"/>
        <pt x="483" y="548" on="0"/>
        <pt x="483" y="509" on="1"/>
        <pt x="483" y="480" on="0"/>
        <pt x="464" y="436" on="0"/>
        <pt x="434" y="402" on="0"/>
        <pt x="396" y="378" on="0"/>
      </contour>
      <contour>
        <pt x="337" y="392" on="1"/>
        <pt x="380" y="417" on="0"/>
        <pt x="412" y="478" on="0"/>
        <pt x="412" y="509" on="1"/>
        <pt x="412" y="559" on="0"/>
        <pt x="343" y="620" on="0"/>
        <pt x="279" y="620" on="1"/>
        <pt x="270" y="620" on="0"/>
        <pt x="228" y="617" on="0"/>
        <pt x="183" y="601" on="0"/>
        <pt x="149" y="568" on="0"/>
        <pt x="149" y="538" on="1"/>
        <pt x="149" y="513" on="0"/>
        <pt x="182" y="479" on="0"/>
        <pt x="197" y="471" on="1"/>
      </contour>
      <contour>
        <pt x="220" y="306" on="1"/>
        <pt x="184" y="286" on="0"/>
        <pt x="127" y="215" on="0"/>
        <pt x="127" y="160" on="1"/>
        <pt x="127" y="100" on="0"/>
        <pt x="207" y="28" on="0"/>
        <pt x="282" y="28" on="1"/>
        <pt x="309" y="28" on="0"/>
        <pt x="363" y="38" on="0"/>
        <pt x="407" y="63" on="0"/>
        <pt x="434" y="103" on="0"/>
        <pt x="434" y="133" on="1"/>
        <pt x="434" y="152" on="0"/>
        <pt x="420" y="181" on="0"/>
        <pt x="397" y="203" on="0"/>
        <pt x="370" y="220" on="0"/>
        <pt x="358" y="227" on="1"/>
      </contour>
    </TTGlyph>
    <TTGlyph name="emdash" xMin="0" yMin="258" xMax="1124" yMax="291">
      <contour>
        <pt x="0" y="258" on="1"/>
        <pt x="0" y="291" on="1"/>
        <pt x="1124" y="291" on="1"/>
        <pt x="1124" y="258" on="1"/>
      </contour>
    </TTGlyph>
    <TTGlyph name="endash" xMin="0" yMin="258" xMax="561" yMax="291">
      <contour>
        <pt x="0" y="258" on="1"/>
        <pt x="0" y="291" on="1"/>
        <pt x="561" y="291" on="1"/>
        <pt x="561" y="258" on="1"/>
      </contour>
    </TTGlyph>
    <TTGlyph name="equal" xMin="62" yMin="113" xMax="812" yMax="386">
      <contour>
        <pt x="103" y="331" on="1"/>
        <pt x="97" y="331" on="0"/>
        <pt x="83" y="332" on="0"/>
        <pt x="71" y="337" on="0"/>
        <pt x="62" y="349" on="0"/>
        <pt x="62" y="359" on="1"/>
        <pt x="62" y="369" on="0"/>
        <pt x="71" y="380" on="0"/>
        <pt x="83" y="385" on="0"/>
        <pt x="97" y="386" on="0"/>
        <pt x="102" y="386" on="1"/>
        <pt x="772" y="386" on="1"/>
        <pt x="777" y="386" on="0"/>
        <pt x="791" y="385" on="0"/>
        <pt x="803" y="380" on="0"/>
        <pt x="812" y="369" on="0"/>
        <pt x="812" y="359" on="1"/>
        <pt x="812" y="349" on="0"/>
        <pt x="803" y="337" on="0"/>
        <pt x="791" y="332" on="0"/>
        <pt x="777" y="331" on="0"/>
        <pt x="771" y="331" on="1"/>
      </contour>
      <contour>
        <pt x="102" y="113" on="1"/>
        <pt x="97" y="113" on="0"/>
        <pt x="83" y="114" on="0"/>
        <pt x="71" y="119" on="0"/>
        <pt x="62" y="130" on="0"/>
        <pt x="62" y="140" on="1"/>
        <pt x="62" y="151" on="0"/>
        <pt x="71" y="162" on="0"/>
        <pt x="83" y="167" on="0"/>
        <pt x="97" y="168" on="0"/>
        <pt x="103" y="168" on="1"/>
        <pt x="771" y="168" on="1"/>
        <pt x="777" y="168" on="0"/>
        <pt x="791" y="167" on="0"/>
        <pt x="803" y="162" on="0"/>
        <pt x="812" y="151" on="0"/>
        <pt x="812" y="140" on="1"/>
        <pt x="812" y="130" on="0"/>
        <pt x="803" y="119" on="0"/>
        <pt x="791" y="114" on="0"/>
        <pt x="777" y="113" on="0"/>
        <pt x="772" y="113" on="1"/>
      </contour>
    </TTGlyph>
    <TTGlyph name="exclam" xMin="99" yMin="0" xMax="243" yMax="706">
      <contour>
        <pt x="193" y="239" on="1"/>
        <pt x="191" y="225" on="0"/>
        <pt x="185" y="217" on="0"/>
        <pt x="171" y="217" on="1"/>
        <pt x="157" y="217" on="0"/>
        <pt x="151" y="225" on="0"/>
        <pt x="149" y="239" on="1"/>
        <pt x="101" y="613" on="1"/>
        <pt x="99" y="624" on="0"/>
        <pt x="99" y="632" on="0"/>
        <pt x="99" y="640" on="1"/>
        <pt x="99" y="657" on="0"/>
        <pt x="113" y="681" on="0"/>
        <pt x="134" y="698" on="0"/>
        <pt x="159" y="706" on="0"/>
        <pt x="171" y="706" on="1"/>
        <pt x="183" y="706" on="0"/>
        <pt x="208" y="698" on="0"/>
        <pt x="229" y="682" on="0"/>
        <pt x="243" y="657" on="0"/>
        <pt x="243" y="640" on="1"/>
        <pt x="243" y="632" on="0"/>
        <pt x="243" y="624" on="0"/>
        <pt x="241" y="613" on="1"/>
      </contour>
      <contour>
        <pt x="243" y="72" on="1"/>
        <pt x="243" y="42" on="0"/>
        <pt x="201" y="0" on="0"/>
        <pt x="171" y="0" on="1"/>
        <pt x="141" y="0" on="0"/>
        <pt x="99" y="42" on="0"/>
        <pt x="99" y="72" on="1"/>
        <pt x="99" y="102" on="0"/>
        <pt x="141" y="144" on="0"/>
        <pt x="171" y="144" on="1"/>
        <pt x="201" y="144" on="0"/>
        <pt x="243" y="102" on="0"/>
      </contour>
    </TTGlyph>
    <TTGlyph name="exclamdown" xMin="99" yMin="-206" xMax="243" yMax="500">
      <contour>
        <pt x="243" y="428" on="1"/>
        <pt x="243" y="398" on="0"/>
        <pt x="201" y="356" on="0"/>
        <pt x="171" y="356" on="1"/>
        <pt x="141" y="356" on="0"/>
        <pt x="99" y="398" on="0"/>
        <pt x="99" y="428" on="1"/>
        <pt x="99" y="458" on="0"/>
        <pt x="141" y="500" on="0"/>
        <pt x="171" y="500" on="1"/>
        <pt x="201" y="500" on="0"/>
        <pt x="243" y="458" on="0"/>
      </contour>
      <contour>
        <pt x="149" y="261" on="1"/>
        <pt x="151" y="275" on="0"/>
        <pt x="157" y="283" on="0"/>
        <pt x="171" y="283" on="1"/>
        <pt x="185" y="283" on="0"/>
        <pt x="191" y="275" on="0"/>
        <pt x="193" y="261" on="1"/>
        <pt x="241" y="-113" on="1"/>
        <pt x="243" y="-124" on="0"/>
        <pt x="243" y="-132" on="0"/>
        <pt x="243" y="-140" on="1"/>
        <pt x="243" y="-157" on="0"/>
        <pt x="229" y="-181" on="0"/>
        <pt x="208" y="-198" on="0"/>
        <pt x="183" y="-206" on="0"/>
        <pt x="171" y="-206" on="1"/>
        <pt x="159" y="-206" on="0"/>
        <pt x="134" y="-198" on="0"/>
        <pt x="113" y="-182" on="0"/>
        <pt x="99" y="-157" on="0"/>
        <pt x="99" y="-140" on="1"/>
        <pt x="99" y="-132" on="0"/>
        <pt x="99" y="-124" on="0"/>
        <pt x="101" y="-113" on="1"/>
      </contour>
    </TTGlyph>
    <TTGlyph name="f" xMin="39" yMin="0" xMax="422" yMax="700">
      <contour>
        <pt x="217" y="43" on="1"/>
        <pt x="304" y="43" on="1"/>
        <pt x="304" y="0" on="1"/>
        <pt x="295" y="1" on="0"/>
        <pt x="259" y="2" on="0"/>
        <pt x="219" y="2" on="0"/>
        <pt x="181" y="2" on="0"/>
        <pt x="170" y="2" on="1"/>
        <pt x="160" y="2" on="0"/>
        <pt x="124" y="2" on="0"/>
        <pt x="86" y="2" on="0"/>
        <pt x="53" y="1" on="0"/>
        <pt x="44" y="0" on="1"/>
        <pt x="44" y="43" on="1"/>
        <pt x="113" y="43" on="1"/>
        <pt x="113" y="401" on="1"/>
        <pt x="39" y="401" on="1"/>
        <pt x="39" y="444" on="1"/>
        <pt x="113" y="444" on="1"/>
        <pt x="113" y="546" on="1"/>
        <pt x="113" y="590" on="0"/>
        <pt x="151" y="649" on="0"/>
        <pt x="209" y="685" on="0"/>
        <pt x="281" y="700" on="0"/>
        <pt x="315" y="700" on="1"/>
        <pt x="342" y="700" on="0"/>
        <pt x="382" y="686" on="0"/>
        <pt x="409" y="662" on="0"/>
        <pt x="422" y="632" on="0"/>
        <pt x="422" y="617" on="1"/>
        <pt x="422" y="601" on="0"/>
        <pt x="410" y="578" on="0"/>
        <pt x="392" y="564" on="0"/>
        <pt x="372" y="558" on="0"/>
        <pt x="364" y="558" on="1"/>
        <pt x="344" y="558" on="0"/>
        <pt x="306" y="586" on="0"/>
        <pt x="306" y="616" on="1"/>
        <pt x="306" y="648" on="0"/>
        <pt x="330" y="664" on="1"/>
        <pt x="325" y="666" on="0"/>
        <pt x="319" y="667" on="0"/>
        <pt x="311" y="667" on="1"/>
        <pt x="299" y="667" on="0"/>
        <pt x="265" y="659" on="0"/>
        <pt x="234" y="633" on="0"/>
        <pt x="212" y="586" on="0"/>
        <pt x="212" y="547" on="1"/>
        <pt x="212" y="444" on="1"/>
        <pt x="331" y="444" on="1"/>
        <pt x="331" y="401" on="1"/>
        <pt x="217" y="401" on="1"/>
      </contour>
    </TTGlyph>
    <TTGlyph name="f_f" xMin="30" yMin="0" xMax="725" yMax="700">
      <contour>
        <pt x="520" y="43" on="1"/>
        <pt x="607" y="43" on="1"/>
        <pt x="607" y="0" on="1"/>
        <pt x="598" y="1" on="0"/>
        <pt x="562" y="2" on="0"/>
        <pt x="522" y="2" on="0"/>
        <pt x="484" y="2" on="0"/>
        <pt x="473" y="2" on="1"/>
        <pt x="463" y="2" on="0"/>
        <pt x="427" y="2" on="0"/>
        <pt x="389" y="2" on="0"/>
        <pt x="356" y="1" on="0"/>
        <pt x="347" y="0" on="1"/>
        <pt x="347" y="43" on="1"/>
        <pt x="416" y="43" on="1"/>
        <pt x="416" y="401" on="1"/>
        <pt x="208" y="401" on="1"/>
        <pt x="208" y="43" on="1"/>
        <pt x="277" y="43" on="1"/>
        <pt x="277" y="0" on="1"/>
        <pt x="268" y="1" on="0"/>
        <pt x="236" y="2" on="0"/>
        <pt x="200" y="2" on="0"/>
        <pt x="166" y="2" on="0"/>
        <pt x="156" y="2" on="1"/>
        <pt x="146" y="2" on="0"/>
        <pt x="112" y="2" on="0"/>
        <pt x="76" y="2" on="0"/>
        <pt x="44" y="1" on="0"/>
        <pt x="35" y="0" on="1"/>
        <pt x="35" y="43" on="1"/>
        <pt x="104" y="43" on="1"/>
        <pt x="104" y="401" on="1"/>
        <pt x="30" y="401" on="1"/>
        <pt x="30" y="444" on="1"/>
        <pt x="104" y="444" on="1"/>
        <pt x="104" y="545" on="1"/>
        <pt x="104" y="590" on="0"/>
        <pt x="153" y="649" on="0"/>
        <pt x="230" y="685" on="0"/>
        <pt x="324" y="700" on="0"/>
        <pt x="368" y="700" on="1"/>
        <pt x="374" y="700" on="0"/>
        <pt x="401" y="699" on="0"/>
        <pt x="433" y="693" on="0"/>
        <pt x="468" y="679" on="0"/>
        <pt x="483" y="666" on="1"/>
        <pt x="520" y="689" on="0"/>
        <pt x="595" y="700" on="0"/>
        <pt x="618" y="700" on="1"/>
        <pt x="645" y="700" on="0"/>
        <pt x="685" y="686" on="0"/>
        <pt x="712" y="662" on="0"/>
        <pt x="725" y="632" on="0"/>
        <pt x="725" y="617" on="1"/>
        <pt x="725" y="601" on="0"/>
        <pt x="713" y="578" on="0"/>
        <pt x="695" y="564" on="0"/>
        <pt x="675" y="558" on="0"/>
        <pt x="667" y="558" on="1"/>
        <pt x="647" y="558" on="0"/>
        <pt x="609" y="586" on="0"/>
        <pt x="609" y="616" on="1"/>
        <pt x="609" y="648" on="0"/>
        <pt x="633" y="664" on="1"/>
        <pt x="628" y="666" on="0"/>
        <pt x="622" y="667" on="0"/>
        <pt x="614" y="667" on="1"/>
        <pt x="602" y="667" on="0"/>
        <pt x="568" y="659" on="0"/>
        <pt x="537" y="633" on="0"/>
        <pt x="515" y="586" on="0"/>
        <pt x="515" y="547" on="1"/>
        <pt x="515" y="444" on="1"/>
        <pt x="634" y="444" on="1"/>
        <pt x="634" y="401" on="1"/>
        <pt x="520" y="401" on="1"/>
      </contour>
      <contour>
        <pt x="416" y="444" on="1"/>
        <pt x="416" y="559" on="1"/>
        <pt x="396" y="575" on="0"/>
        <pt x="396" y="604" on="1"/>
        <pt x="396" y="627" on="0"/>
        <pt x="419" y="652" on="0"/>
        <pt x="427" y="656" on="1"/>
        <pt x="421" y="658" on="0"/>
        <pt x="386" y="667" on="0"/>
        <pt x="360" y="667" on="1"/>
        <pt x="341" y="667" on="0"/>
        <pt x="287" y="659" on="0"/>
        <pt x="237" y="633" on="0"/>
        <pt x="203" y="585" on="0"/>
        <pt x="203" y="544" on="1"/>
        <pt x="203" y="444" on="1"/>
      </contour>
    </TTGlyph>
    <TTGlyph name="f_f_i" xMin="30" yMin="0" xMax="901" yMax="700">
      <contour>
        <pt x="832" y="453" on="1"/>
        <pt x="832" y="43" on="1"/>
        <pt x="901" y="43" on="1"/>
        <pt x="901" y="0" on="1"/>
        <pt x="892" y="1" on="0"/>
        <pt x="860" y="2" on="0"/>
        <pt x="824" y="2" on="0"/>
        <pt x="790" y="2" on="0"/>
        <pt x="780" y="2" on="1"/>
        <pt x="770" y="2" on="0"/>
        <pt x="736" y="2" on="0"/>
        <pt x="700" y="2" on="0"/>
        <pt x="668" y="1" on="0"/>
        <pt x="659" y="0" on="1"/>
        <pt x="659" y="43" on="1"/>
        <pt x="728" y="43" on="1"/>
        <pt x="728" y="365" on="1"/>
        <pt x="728" y="391" on="0"/>
        <pt x="716" y="401" on="0"/>
        <pt x="697" y="401" on="1"/>
        <pt x="520" y="401" on="1"/>
        <pt x="520" y="43" on="1"/>
        <pt x="589" y="43" on="1"/>
        <pt x="589" y="0" on="1"/>
        <pt x="580" y="1" on="0"/>
        <pt x="548" y="2" on="0"/>
        <pt x="512" y="2" on="0"/>
        <pt x="478" y="2" on="0"/>
        <pt x="468" y="2" on="1"/>
        <pt x="458" y="2" on="0"/>
        <pt x="424" y="2" on="0"/>
        <pt x="388" y="2" on="0"/>
        <pt x="356" y="1" on="0"/>
        <pt x="347" y="0" on="1"/>
        <pt x="347" y="43" on="1"/>
        <pt x="416" y="43" on="1"/>
        <pt x="416" y="401" on="1"/>
        <pt x="208" y="401" on="1"/>
        <pt x="208" y="43" on="1"/>
        <pt x="277" y="43" on="1"/>
        <pt x="277" y="0" on="1"/>
        <pt x="268" y="1" on="0"/>
        <pt x="236" y="2" on="0"/>
        <pt x="200" y="2" on="0"/>
        <pt x="166" y="2" on="0"/>
        <pt x="156" y="2" on="1"/>
        <pt x="146" y="2" on="0"/>
        <pt x="112" y="2" on="0"/>
        <pt x="76" y="2" on="0"/>
        <pt x="44" y="1" on="0"/>
        <pt x="35" y="0" on="1"/>
        <pt x="35" y="43" on="1"/>
        <pt x="104" y="43" on="1"/>
        <pt x="104" y="401" on="1"/>
        <pt x="30" y="401" on="1"/>
        <pt x="30" y="444" on="1"/>
        <pt x="104" y="444" on="1"/>
        <pt x="104" y="545" on="1"/>
        <pt x="104" y="590" on="0"/>
        <pt x="154" y="650" on="0"/>
        <pt x="232" y="686" on="0"/>
        <pt x="325" y="700" on="0"/>
        <pt x="367" y="700" on="1"/>
        <pt x="374" y="700" on="0"/>
        <pt x="401" y="699" on="0"/>
        <pt x="434" y="690" on="0"/>
        <pt x="469" y="673" on="0"/>
        <pt x="485" y="656" on="1"/>
        <pt x="526" y="679" on="0"/>
        <pt x="622" y="700" on="0"/>
        <pt x="682" y="700" on="1"/>
        <pt x="720" y="700" on="0"/>
        <pt x="775" y="680" on="0"/>
        <pt x="811" y="648" on="0"/>
        <pt x="828" y="608" on="0"/>
        <pt x="828" y="587" on="1"/>
        <pt x="828" y="558" on="0"/>
        <pt x="792" y="526" on="0"/>
        <pt x="767" y="526" on="1"/>
        <pt x="741" y="526" on="0"/>
        <pt x="706" y="559" on="0"/>
        <pt x="706" y="587" on="1"/>
        <pt x="706" y="607" on="0"/>
        <pt x="727" y="639" on="0"/>
        <pt x="750" y="647" on="1"/>
        <pt x="739" y="655" on="0"/>
        <pt x="715" y="663" on="0"/>
        <pt x="694" y="666" on="0"/>
        <pt x="677" y="667" on="0"/>
        <pt x="673" y="667" on="1"/>
        <pt x="658" y="667" on="0"/>
        <pt x="605" y="660" on="0"/>
        <pt x="553" y="635" on="0"/>
        <pt x="515" y="586" on="0"/>
        <pt x="515" y="544" on="1"/>
        <pt x="515" y="444" on="1"/>
        <pt x="659" y="444" on="1"/>
        <pt x="659" y="448" on="1"/>
      </contour>
      <contour>
        <pt x="416" y="444" on="1"/>
        <pt x="416" y="536" on="1"/>
        <pt x="402" y="544" on="0"/>
        <pt x="389" y="571" on="0"/>
        <pt x="389" y="587" on="1"/>
        <pt x="389" y="634" on="0"/>
        <pt x="434" y="647" on="1"/>
        <pt x="414" y="661" on="0"/>
        <pt x="371" y="667" on="0"/>
        <pt x="358" y="667" on="1"/>
        <pt x="328" y="667" on="0"/>
        <pt x="272" y="654" on="0"/>
        <pt x="229" y="624" on="0"/>
        <pt x="203" y="577" on="0"/>
        <pt x="203" y="544" on="1"/>
        <pt x="203" y="444" on="1"/>
      </contour>
    </TTGlyph>
    <TTGlyph name="f_f_l" xMin="30" yMin="0" xMax="901" yMax="700">
      <contour>
        <pt x="832" y="43" on="1"/>
        <pt x="901" y="43" on="1"/>
        <pt x="901" y="0" on="1"/>
        <pt x="892" y="1" on="0"/>
        <pt x="860" y="2" on="0"/>
        <pt x="824" y="2" on="0"/>
        <pt x="790" y="2" on="0"/>
        <pt x="780" y="2" on="1"/>
        <pt x="770" y="2" on="0"/>
        <pt x="736" y="2" on="0"/>
        <pt x="700" y="2" on="0"/>
        <pt x="668" y="1" on="0"/>
        <pt x="659" y="0" on="1"/>
        <pt x="659" y="43" on="1"/>
        <pt x="728" y="43" on="1"/>
        <pt x="728" y="401" on="1"/>
        <pt x="520" y="401" on="1"/>
        <pt x="520" y="43" on="1"/>
        <pt x="589" y="43" on="1"/>
        <pt x="589" y="0" on="1"/>
        <pt x="580" y="1" on="0"/>
        <pt x="548" y="2" on="0"/>
        <pt x="512" y="2" on="0"/>
        <pt x="478" y="2" on="0"/>
        <pt x="468" y="2" on="1"/>
        <pt x="458" y="2" on="0"/>
        <pt x="424" y="2" on="0"/>
        <pt x="388" y="2" on="0"/>
        <pt x="356" y="1" on="0"/>
        <pt x="347" y="0" on="1"/>
        <pt x="347" y="43" on="1"/>
        <pt x="416" y="43" on="1"/>
        <pt x="416" y="401" on="1"/>
        <pt x="208" y="401" on="1"/>
        <pt x="208" y="43" on="1"/>
        <pt x="277" y="43" on="1"/>
        <pt x="277" y="0" on="1"/>
        <pt x="268" y="1" on="0"/>
        <pt x="236" y="2" on="0"/>
        <pt x="200" y="2" on="0"/>
        <pt x="166" y="2" on="0"/>
        <pt x="156" y="2" on="1"/>
        <pt x="146" y="2" on="0"/>
        <pt x="112" y="2" on="0"/>
        <pt x="76" y="2" on="0"/>
        <pt x="44" y="1" on="0"/>
        <pt x="35" y="0" on="1"/>
        <pt x="35" y="43" on="1"/>
        <pt x="104" y="43" on="1"/>
        <pt x="104" y="401" on="1"/>
        <pt x="30" y="401" on="1"/>
        <pt x="30" y="444" on="1"/>
        <pt x="104" y="444" on="1"/>
        <pt x="104" y="545" on="1"/>
        <pt x="104" y="590" on="0"/>
        <pt x="154" y="650" on="0"/>
        <pt x="232" y="686" on="0"/>
        <pt x="325" y="700" on="0"/>
        <pt x="367" y="700" on="1"/>
        <pt x="374" y="700" on="0"/>
        <pt x="403" y="699" on="0"/>
        <pt x="438" y="691" on="0"/>
        <pt x="474" y="675" on="0"/>
        <pt x="489" y="660" on="1"/>
        <pt x="515" y="674" on="0"/>
        <pt x="569" y="690" on="0"/>
        <pt x="620" y="698" on="0"/>
        <pt x="665" y="700" on="0"/>
        <pt x="681" y="700" on="1"/>
        <pt x="689" y="700" on="0"/>
        <pt x="732" y="698" on="0"/>
        <pt x="752" y="692" on="1"/>
        <pt x="760" y="690" on="0"/>
        <pt x="765" y="689" on="0"/>
        <pt x="767" y="689" on="1"/>
        <pt x="769" y="689" on="0"/>
        <pt x="787" y="690" on="0"/>
        <pt x="809" y="692" on="0"/>
        <pt x="829" y="694" on="0"/>
        <pt x="832" y="694" on="1"/>
      </contour>
      <contour>
        <pt x="416" y="444" on="1"/>
        <pt x="416" y="559" on="1"/>
        <pt x="408" y="564" on="0"/>
        <pt x="396" y="587" on="0"/>
        <pt x="396" y="604" on="1"/>
        <pt x="396" y="624" on="0"/>
        <pt x="416" y="651" on="0"/>
        <pt x="427" y="656" on="1"/>
        <pt x="421" y="658" on="0"/>
        <pt x="386" y="667" on="0"/>
        <pt x="360" y="667" on="1"/>
        <pt x="341" y="667" on="0"/>
        <pt x="287" y="659" on="0"/>
        <pt x="237" y="634" on="0"/>
        <pt x="203" y="585" on="0"/>
        <pt x="203" y="544" on="1"/>
        <pt x="203" y="444" on="1"/>
      </contour>
      <contour>
        <pt x="728" y="572" on="1"/>
        <pt x="713" y="583" on="0"/>
        <pt x="708" y="611" on="0"/>
        <pt x="708" y="616" on="1"/>
        <pt x="708" y="641" on="0"/>
        <pt x="723" y="656" on="1"/>
        <pt x="726" y="659" on="0"/>
        <pt x="726" y="661" on="1"/>
        <pt x="726" y="663" on="0"/>
        <pt x="711" y="665" on="0"/>
        <pt x="693" y="667" on="0"/>
        <pt x="676" y="667" on="0"/>
        <pt x="674" y="667" on="1"/>
        <pt x="647" y="667" on="0"/>
        <pt x="591" y="656" on="0"/>
        <pt x="545" y="629" on="0"/>
        <pt x="515" y="581" on="0"/>
        <pt x="515" y="544" on="1"/>
        <pt x="515" y="444" on="1"/>
        <pt x="728" y="444" on="1"/>
      </contour>
    </TTGlyph>
    <TTGlyph name="fi" xMin="30" yMin="0" xMax="589" yMax="700">
      <contour>
        <pt x="520" y="453" on="1"/>
        <pt x="520" y="43" on="1"/>
        <pt x="589" y="43" on="1"/>
        <pt x="589" y="0" on="1"/>
        <pt x="580" y="1" on="0"/>
        <pt x="548" y="2" on="0"/>
        <pt x="512" y="2" on="0"/>
        <pt x="478" y="2" on="0"/>
        <pt x="468" y="2" on="1"/>
        <pt x="458" y="2" on="0"/>
        <pt x="424" y="2" on="0"/>
        <pt x="388" y="2" on="0"/>
        <pt x="356" y="1" on="0"/>
        <pt x="347" y="0" on="1"/>
        <pt x="347" y="43" on="1"/>
        <pt x="416" y="43" on="1"/>
        <pt x="416" y="365" on="1"/>
        <pt x="416" y="391" on="0"/>
        <pt x="404" y="401" on="0"/>
        <pt x="385" y="401" on="1"/>
        <pt x="208" y="401" on="1"/>
        <pt x="208" y="43" on="1"/>
        <pt x="277" y="43" on="1"/>
        <pt x="277" y="0" on="1"/>
        <pt x="268" y="1" on="0"/>
        <pt x="236" y="2" on="0"/>
        <pt x="200" y="2" on="0"/>
        <pt x="166" y="2" on="0"/>
        <pt x="156" y="2" on="1"/>
        <pt x="146" y="2" on="0"/>
        <pt x="112" y="2" on="0"/>
        <pt x="76" y="2" on="0"/>
        <pt x="44" y="1" on="0"/>
        <pt x="35" y="0" on="1"/>
        <pt x="35" y="43" on="1"/>
        <pt x="104" y="43" on="1"/>
        <pt x="104" y="401" on="1"/>
        <pt x="30" y="401" on="1"/>
        <pt x="30" y="444" on="1"/>
        <pt x="104" y="444" on="1"/>
        <pt x="104" y="545" on="1"/>
        <pt x="104" y="590" on="0"/>
        <pt x="155" y="650" on="0"/>
        <pt x="233" y="686" on="0"/>
        <pt x="327" y="700" on="0"/>
        <pt x="370" y="700" on="1"/>
        <pt x="408" y="700" on="0"/>
        <pt x="463" y="680" on="0"/>
        <pt x="499" y="648" on="0"/>
        <pt x="516" y="608" on="0"/>
        <pt x="516" y="587" on="1"/>
        <pt x="516" y="558" on="0"/>
        <pt x="480" y="526" on="0"/>
        <pt x="455" y="526" on="1"/>
        <pt x="429" y="526" on="0"/>
        <pt x="394" y="559" on="0"/>
        <pt x="394" y="587" on="1"/>
        <pt x="394" y="607" on="0"/>
        <pt x="415" y="639" on="0"/>
        <pt x="438" y="647" on="1"/>
        <pt x="427" y="655" on="0"/>
        <pt x="403" y="663" on="0"/>
        <pt x="382" y="666" on="0"/>
        <pt x="365" y="667" on="0"/>
        <pt x="361" y="667" on="1"/>
        <pt x="346" y="667" on="0"/>
        <pt x="293" y="660" on="0"/>
        <pt x="241" y="635" on="0"/>
        <pt x="203" y="586" on="0"/>
        <pt x="203" y="544" on="1"/>
        <pt x="203" y="444" on="1"/>
        <pt x="347" y="444" on="1"/>
        <pt x="347" y="448" on="1"/>
      </contour>
    </TTGlyph>
    <TTGlyph name="five" xMin="56" yMin="-12" xMax="505" yMax="656">
      <contour>
        <pt x="154" y="370" on="1"/>
        <pt x="186" y="394" on="0"/>
        <pt x="255" y="410" on="0"/>
        <pt x="285" y="410" on="1"/>
        <pt x="336" y="410" on="0"/>
        <pt x="418" y="379" on="0"/>
        <pt x="475" y="324" on="0"/>
        <pt x="505" y="247" on="0"/>
        <pt x="505" y="201" on="1"/>
        <pt x="505" y="155" on="0"/>
        <pt x="470" y="76" on="0"/>
        <pt x="405" y="20" on="0"/>
        <pt x="312" y="-12" on="0"/>
        <pt x="254" y="-12" on="1"/>
        <pt x="209" y="-12" on="0"/>
        <pt x="136" y="17" on="0"/>
        <pt x="84" y="65" on="0"/>
        <pt x="56" y="126" on="0"/>
        <pt x="56" y="159" on="1"/>
        <pt x="56" y="194" on="0"/>
        <pt x="96" y="224" on="0"/>
        <pt x="119" y="224" on="1"/>
        <pt x="147" y="224" on="0"/>
        <pt x="182" y="188" on="0"/>
        <pt x="182" y="161" on="1"/>
        <pt x="182" y="153" on="0"/>
        <pt x="176" y="131" on="0"/>
        <pt x="161" y="112" on="0"/>
        <pt x="136" y="99" on="0"/>
        <pt x="116" y="99" on="1"/>
        <pt x="129" y="78" on="0"/>
        <pt x="163" y="50" on="0"/>
        <pt x="200" y="34" on="0"/>
        <pt x="236" y="28" on="0"/>
        <pt x="250" y="28" on="1"/>
        <pt x="296" y="28" on="0"/>
        <pt x="346" y="63" on="0"/>
        <pt x="369" y="115" on="0"/>
        <pt x="373" y="177" on="0"/>
        <pt x="373" y="204" on="1"/>
        <pt x="373" y="234" on="0"/>
        <pt x="370" y="295" on="0"/>
        <pt x="353" y="345" on="0"/>
        <pt x="316" y="377" on="0"/>
        <pt x="281" y="377" on="1"/>
        <pt x="249" y="377" on="0"/>
        <pt x="203" y="363" on="0"/>
        <pt x="171" y="344" on="0"/>
        <pt x="153" y="324" on="0"/>
        <pt x="148" y="319" on="1"/>
        <pt x="142" y="311" on="0"/>
        <pt x="136" y="308" on="0"/>
        <pt x="128" y="308" on="1"/>
        <pt x="113" y="308" on="0"/>
        <pt x="108" y="324" on="0"/>
        <pt x="108" y="338" on="1"/>
        <pt x="108" y="629" on="1"/>
        <pt x="108" y="642" on="0"/>
        <pt x="111" y="656" on="0"/>
        <pt x="120" y="656" on="1"/>
        <pt x="122" y="656" on="0"/>
        <pt x="128" y="654" on="0"/>
        <pt x="133" y="652" on="1"/>
        <pt x="168" y="639" on="0"/>
        <pt x="242" y="624" on="0"/>
        <pt x="285" y="624" on="1"/>
        <pt x="327" y="624" on="0"/>
        <pt x="401" y="639" on="0"/>
        <pt x="436" y="651" on="1"/>
        <pt x="444" y="655" on="0"/>
        <pt x="448" y="656" on="0"/>
        <pt x="449" y="656" on="1"/>
        <pt x="458" y="656" on="0"/>
        <pt x="461" y="643" on="0"/>
        <pt x="461" y="639" on="1"/>
        <pt x="461" y="630" on="0"/>
        <pt x="444" y="606" on="0"/>
        <pt x="418" y="582" on="0"/>
        <pt x="390" y="559" on="0"/>
        <pt x="378" y="552" on="1"/>
        <pt x="353" y="537" on="0"/>
        <pt x="307" y="520" on="0"/>
        <pt x="269" y="512" on="0"/>
        <pt x="239" y="511" on="0"/>
        <pt x="230" y="511" on="1"/>
        <pt x="219" y="511" on="0"/>
        <pt x="180" y="513" on="0"/>
        <pt x="154" y="519" on="1"/>
      </contour>
    </TTGlyph>
    <TTGlyph name="fl" xMin="30" yMin="0" xMax="589" yMax="700">
      <contour>
        <pt x="520" y="43" on="1"/>
        <pt x="589" y="43" on="1"/>
        <pt x="589" y="0" on="1"/>
        <pt x="580" y="1" on="0"/>
        <pt x="548" y="2" on="0"/>
        <pt x="512" y="2" on="0"/>
        <pt x="478" y="2" on="0"/>
        <pt x="468" y="2" on="1"/>
        <pt x="458" y="2" on="0"/>
        <pt x="424" y="2" on="0"/>
        <pt x="388" y="2" on="0"/>
        <pt x="356" y="1" on="0"/>
        <pt x="347" y="0" on="1"/>
        <pt x="347" y="43" on="1"/>
        <pt x="416" y="43" on="1"/>
        <pt x="416" y="401" on="1"/>
        <pt x="208" y="401" on="1"/>
        <pt x="208" y="43" on="1"/>
        <pt x="277" y="43" on="1"/>
        <pt x="277" y="0" on="1"/>
        <pt x="268" y="1" on="0"/>
        <pt x="236" y="2" on="0"/>
        <pt x="200" y="2" on="0"/>
        <pt x="166" y="2" on="0"/>
        <pt x="156" y="2" on="1"/>
        <pt x="146" y="2" on="0"/>
        <pt x="112" y="2" on="0"/>
        <pt x="76" y="2" on="0"/>
        <pt x="44" y="1" on="0"/>
        <pt x="35" y="0" on="1"/>
        <pt x="35" y="43" on="1"/>
        <pt x="104" y="43" on="1"/>
        <pt x="104" y="401" on="1"/>
        <pt x="30" y="401" on="1"/>
        <pt x="30" y="444" on="1"/>
        <pt x="104" y="444" on="1"/>
        <pt x="104" y="545" on="1"/>
        <pt x="104" y="589" on="0"/>
        <pt x="152" y="648" on="0"/>
        <pt x="228" y="684" on="0"/>
        <pt x="323" y="700" on="0"/>
        <pt x="369" y="700" on="1"/>
        <pt x="377" y="700" on="0"/>
        <pt x="420" y="698" on="0"/>
        <pt x="440" y="692" on="1"/>
        <pt x="448" y="690" on="0"/>
        <pt x="453" y="689" on="0"/>
        <pt x="455" y="689" on="1"/>
        <pt x="457" y="689" on="0"/>
        <pt x="475" y="690" on="0"/>
        <pt x="497" y="692" on="0"/>
        <pt x="517" y="694" on="0"/>
        <pt x="520" y="694" on="1"/>
      </contour>
      <contour>
        <pt x="416" y="444" on="1"/>
        <pt x="416" y="572" on="1"/>
        <pt x="401" y="583" on="0"/>
        <pt x="396" y="611" on="0"/>
        <pt x="396" y="616" on="1"/>
        <pt x="396" y="641" on="0"/>
        <pt x="411" y="656" on="1"/>
        <pt x="414" y="659" on="0"/>
        <pt x="414" y="661" on="1"/>
        <pt x="414" y="663" on="0"/>
        <pt x="399" y="665" on="0"/>
        <pt x="381" y="667" on="0"/>
        <pt x="364" y="667" on="0"/>
        <pt x="362" y="667" on="1"/>
        <pt x="335" y="667" on="0"/>
        <pt x="279" y="656" on="0"/>
        <pt x="233" y="629" on="0"/>
        <pt x="203" y="581" on="0"/>
        <pt x="203" y="544" on="1"/>
        <pt x="203" y="444" on="1"/>
      </contour>
    </TTGlyph>
    <TTGlyph name="four" xMin="31" yMin="0" xMax="530" yMax="658">
      <contour>
        <pt x="433" y="43" on="1"/>
        <pt x="530" y="43" on="1"/>
        <pt x="530" y="0" on="1"/>
        <pt x="520" y="1" on="0"/>
        <pt x="477" y="2" on="0"/>
        <pt x="428" y="2" on="0"/>
        <pt x="383" y="2" on="0"/>
        <pt x="370" y="2" on="1"/>
        <pt x="357" y="2" on="0"/>
        <pt x="310" y="2" on="0"/>
        <pt x="261" y="2" on="0"/>
        <pt x="217" y="1" on="0"/>
        <pt x="206" y="0" on="1"/>
        <pt x="206" y="43" on="1"/>
        <pt x="315" y="43" on="1"/>
        <pt x="315" y="157" on="1"/>
        <pt x="31" y="157" on="1"/>
        <pt x="31" y="200" on="1"/>
        <pt x="375" y="643" on="1"/>
        <pt x="384" y="654" on="0"/>
        <pt x="393" y="658" on="0"/>
        <pt x="407" y="658" on="1"/>
        <pt x="426" y="658" on="0"/>
        <pt x="433" y="648" on="0"/>
        <pt x="433" y="629" on="1"/>
        <pt x="433" y="200" on="1"/>
        <pt x="530" y="200" on="1"/>
        <pt x="530" y="157" on="1"/>
        <pt x="433" y="157" on="1"/>
      </contour>
      <contour>
        <pt x="77" y="200" on="1"/>
        <pt x="324" y="200" on="1"/>
        <pt x="324" y="518" on="1"/>
      </contour>
    </TTGlyph>
    <TTGlyph name="g" xMin="31" yMin="-201" xMax="545" yMax="456">
      <contour>
        <pt x="130" y="182" on="1"/>
        <pt x="122" y="172" on="0"/>
        <pt x="118" y="152" on="0"/>
        <pt x="118" y="146" on="1"/>
        <pt x="118" y="139" on="0"/>
        <pt x="123" y="119" on="0"/>
        <pt x="136" y="100" on="0"/>
        <pt x="157" y="85" on="0"/>
        <pt x="173" y="82" on="1"/>
        <pt x="175" y="82" on="0"/>
        <pt x="191" y="81" on="0"/>
        <pt x="214" y="81" on="0"/>
        <pt x="238" y="81" on="0"/>
        <pt x="247" y="81" on="1"/>
        <pt x="313" y="81" on="0"/>
        <pt x="411" y="75" on="0"/>
        <pt x="447" y="57" on="1"/>
        <pt x="456" y="53" on="0"/>
        <pt x="485" y="36" on="0"/>
        <pt x="511" y="6" on="0"/>
        <pt x="530" y="-39" on="0"/>
        <pt x="530" y="-72" on="1"/>
        <pt x="530" y="-129" on="0"/>
        <pt x="405" y="-201" on="0"/>
        <pt x="280" y="-201" on="1"/>
        <pt x="211" y="-201" on="0"/>
        <pt x="116" y="-178" on="0"/>
        <pt x="57" y="-142" on="0"/>
        <pt x="31" y="-97" on="0"/>
        <pt x="31" y="-75" on="1"/>
        <pt x="31" y="-54" on="0"/>
        <pt x="51" y="-23" on="0"/>
        <pt x="79" y="-3" on="0"/>
        <pt x="108" y="9" on="0"/>
        <pt x="117" y="11" on="1"/>
        <pt x="101" y="23" on="0"/>
        <pt x="73" y="75" on="0"/>
        <pt x="73" y="107" on="1"/>
        <pt x="73" y="134" on="0"/>
        <pt x="95" y="183" on="0"/>
        <pt x="108" y="197" on="1"/>
        <pt x="76" y="223" on="0"/>
        <pt x="56" y="280" on="0"/>
        <pt x="56" y="303" on="1"/>
        <pt x="56" y="329" on="0"/>
        <pt x="78" y="382" on="0"/>
        <pt x="124" y="424" on="0"/>
        <pt x="197" y="450" on="0"/>
        <pt x="249" y="450" on="1"/>
        <pt x="287" y="450" on="0"/>
        <pt x="349" y="435" on="0"/>
        <pt x="380" y="417" on="1"/>
        <pt x="396" y="431" on="0"/>
        <pt x="453" y="456" on="0"/>
        <pt x="485" y="456" on="1"/>
        <pt x="517" y="456" on="0"/>
        <pt x="545" y="418" on="0"/>
        <pt x="545" y="400" on="1"/>
        <pt x="545" y="384" on="0"/>
        <pt x="525" y="360" on="0"/>
        <pt x="505" y="360" on="1"/>
        <pt x="485" y="360" on="0"/>
        <pt x="465" y="384" on="0"/>
        <pt x="465" y="400" on="1"/>
        <pt x="465" y="410" on="0"/>
        <pt x="469" y="418" on="0"/>
        <pt x="471" y="422" on="1"/>
        <pt x="458" y="420" on="0"/>
        <pt x="423" y="412" on="0"/>
        <pt x="401" y="400" on="1"/>
        <pt x="406" y="396" on="0"/>
        <pt x="419" y="379" on="0"/>
        <pt x="433" y="354" on="0"/>
        <pt x="442" y="322" on="0"/>
        <pt x="442" y="303" on="1"/>
        <pt x="442" y="277" on="0"/>
        <pt x="421" y="224" on="0"/>
        <pt x="374" y="182" on="0"/>
        <pt x="301" y="156" on="0"/>
        <pt x="249" y="156" on="1"/>
        <pt x="243" y="156" on="0"/>
        <pt x="218" y="157" on="0"/>
        <pt x="185" y="162" on="0"/>
        <pt x="148" y="172" on="0"/>
      </contour>
      <contour>
        <pt x="249" y="188" on="1"/>
        <pt x="282" y="188" on="0"/>
        <pt x="317" y="211" on="0"/>
        <pt x="333" y="246" on="0"/>
        <pt x="336" y="286" on="0"/>
        <pt x="336" y="303" on="1"/>
        <pt x="336" y="320" on="0"/>
        <pt x="333" y="361" on="0"/>
        <pt x="317" y="395" on="0"/>
        <pt x="282" y="418" on="0"/>
        <pt x="249" y="418" on="1"/>
        <pt x="216" y="418" on="0"/>
        <pt x="181" y="395" on="0"/>
        <pt x="165" y="361" on="0"/>
        <pt x="162" y="320" on="0"/>
        <pt x="162" y="303" on="1"/>
        <pt x="162" y="286" on="0"/>
        <pt x="165" y="246" on="0"/>
        <pt x="181" y="211" on="0"/>
        <pt x="216" y="188" on="0"/>
      </contour>
      <contour>
        <pt x="191" y="-11" on="1"/>
        <pt x="185" y="-11" on="0"/>
        <pt x="160" y="-13" on="0"/>
        <pt x="133" y="-25" on="0"/>
        <pt x="113" y="-51" on="0"/>
        <pt x="113" y="-75" on="1"/>
        <pt x="113" y="-89" on="0"/>
        <pt x="128" y="-122" on="0"/>
        <pt x="167" y="-150" on="0"/>
        <pt x="232" y="-169" on="0"/>
        <pt x="281" y="-169" on="1"/>
        <pt x="331" y="-169" on="0"/>
        <pt x="395" y="-150" on="0"/>
        <pt x="433" y="-121" on="0"/>
        <pt x="448" y="-89" on="0"/>
        <pt x="448" y="-76" on="1"/>
        <pt x="448" y="-57" on="0"/>
        <pt x="424" y="-31" on="0"/>
        <pt x="384" y="-17" on="0"/>
        <pt x="332" y="-11" on="0"/>
        <pt x="305" y="-11" on="1"/>
      </contour>
    </TTGlyph>
    <TTGlyph name="germandbls" xMin="35" yMin="-6" xMax="542" yMax="700">
      <contour>
        <pt x="390" y="424" on="1"/>
        <pt x="428" y="410" on="0"/>
        <pt x="485" y="361" on="0"/>
        <pt x="523" y="296" on="0"/>
        <pt x="542" y="220" on="0"/>
        <pt x="542" y="180" on="1"/>
        <pt x="542" y="132" on="0"/>
        <pt x="508" y="62" on="0"/>
        <pt x="452" y="16" on="0"/>
        <pt x="380" y="-6" on="0"/>
        <pt x="342" y="-6" on="1"/>
        <pt x="293" y="-6" on="0"/>
        <pt x="240" y="46" on="0"/>
        <pt x="240" y="77" on="1"/>
        <pt x="240" y="92" on="0"/>
        <pt x="251" y="111" on="0"/>
        <pt x="266" y="121" on="0"/>
        <pt x="282" y="125" on="0"/>
        <pt x="287" y="125" on="1"/>
        <pt x="306" y="125" on="0"/>
        <pt x="334" y="99" on="0"/>
        <pt x="334" y="78" on="1"/>
        <pt x="334" y="67" on="0"/>
        <pt x="326" y="51" on="0"/>
        <pt x="317" y="40" on="0"/>
        <pt x="308" y="35" on="0"/>
        <pt x="308" y="35" on="1"/>
        <pt x="314" y="31" on="0"/>
        <pt x="325" y="27" on="0"/>
        <pt x="339" y="27" on="1"/>
        <pt x="373" y="27" on="0"/>
        <pt x="410" y="64" on="0"/>
        <pt x="427" y="115" on="0"/>
        <pt x="430" y="166" on="0"/>
        <pt x="430" y="179" on="1"/>
        <pt x="430" y="190" on="0"/>
        <pt x="429" y="231" on="0"/>
        <pt x="421" y="280" on="0"/>
        <pt x="405" y="333" on="0"/>
        <pt x="374" y="378" on="0"/>
        <pt x="327" y="408" on="0"/>
        <pt x="293" y="411" on="1"/>
        <pt x="280" y="412" on="0"/>
        <pt x="271" y="416" on="0"/>
        <pt x="271" y="427" on="1"/>
        <pt x="271" y="439" on="0"/>
        <pt x="279" y="443" on="0"/>
        <pt x="290" y="444" on="1"/>
        <pt x="325" y="446" on="0"/>
        <pt x="368" y="469" on="0"/>
        <pt x="391" y="502" on="0"/>
        <pt x="399" y="543" on="0"/>
        <pt x="399" y="564" on="1"/>
        <pt x="399" y="574" on="0"/>
        <pt x="396" y="608" on="0"/>
        <pt x="378" y="642" on="0"/>
        <pt x="340" y="667" on="0"/>
        <pt x="305" y="667" on="1"/>
        <pt x="269" y="667" on="0"/>
        <pt x="229" y="641" on="0"/>
        <pt x="211" y="607" on="0"/>
        <pt x="208" y="571" on="0"/>
        <pt x="208" y="560" on="1"/>
        <pt x="208" y="0" on="1"/>
        <pt x="195" y="2" on="0"/>
        <pt x="161" y="2" on="0"/>
        <pt x="135" y="2" on="1"/>
        <pt x="126" y="2" on="0"/>
        <pt x="99" y="2" on="0"/>
        <pt x="70" y="2" on="0"/>
        <pt x="44" y="1" on="0"/>
        <pt x="35" y="0" on="1"/>
        <pt x="35" y="43" on="1"/>
        <pt x="104" y="43" on="1"/>
        <pt x="104" y="401" on="1"/>
        <pt x="35" y="401" on="1"/>
        <pt x="35" y="444" on="1"/>
        <pt x="104" y="444" on="1"/>
        <pt x="104" y="557" on="1"/>
        <pt x="104" y="593" on="0"/>
        <pt x="135" y="647" on="0"/>
        <pt x="189" y="682" on="0"/>
        <pt x="263" y="700" on="0"/>
        <pt x="306" y="700" on="1"/>
        <pt x="361" y="700" on="0"/>
        <pt x="439" y="676" on="0"/>
        <pt x="488" y="637" on="0"/>
        <pt x="511" y="588" on="0"/>
        <pt x="511" y="563" on="1"/>
        <pt x="511" y="549" on="0"/>
        <pt x="502" y="512" on="0"/>
        <pt x="477" y="473" on="0"/>
        <pt x="429" y="437" on="0"/>
      </contour>
    </TTGlyph>
    <TTGlyph name="grave" xMin="114" yMin="511" xMax="328" yMax="704">
      <contour>
        <pt x="328" y="543" on="1"/>
        <pt x="301" y="511" on="1"/>
        <pt x="145" y="597" on="1"/>
        <pt x="142" y="599" on="0"/>
        <pt x="132" y="606" on="0"/>
        <pt x="122" y="617" on="0"/>
        <pt x="114" y="634" on="0"/>
        <pt x="114" y="644" on="1"/>
        <pt x="114" y="667" on="0"/>
        <pt x="149" y="704" on="0"/>
        <pt x="172" y="704" on="1"/>
        <pt x="190" y="704" on="0"/>
        <pt x="211" y="685" on="0"/>
        <pt x="216" y="679" on="1"/>
      </contour>
    </TTGlyph>
    <TTGlyph name="h" xMin="42" yMin="0" xMax="600" yMax="694">
      <contour>
        <pt x="531" y="43" on="1"/>
        <pt x="600" y="43" on="1"/>
        <pt x="600" y="0" on="1"/>
        <pt x="591" y="1" on="0"/>
        <pt x="558" y="2" on="0"/>
        <pt x="521" y="2" on="0"/>
        <pt x="487" y="2" on="0"/>
        <pt x="476" y="2" on="1"/>
        <pt x="466" y="2" on="0"/>
        <pt x="431" y="2" on="0"/>
        <pt x="394" y="2" on="0"/>
        <pt x="362" y="1" on="0"/>
        <pt x="353" y="0" on="1"/>
        <pt x="353" y="43" on="1"/>
        <pt x="422" y="43" on="1"/>
        <pt x="422" y="317" on="1"/>
        <pt x="422" y="374" on="0"/>
        <pt x="392" y="417" on="0"/>
        <pt x="364" y="417" on="1"/>
        <pt x="340" y="417" on="0"/>
        <pt x="289" y="397" on="0"/>
        <pt x="247" y="357" on="0"/>
        <pt x="220" y="297" on="0"/>
        <pt x="220" y="256" on="1"/>
        <pt x="220" y="43" on="1"/>
        <pt x="289" y="43" on="1"/>
        <pt x="289" y="0" on="1"/>
        <pt x="280" y="1" on="0"/>
        <pt x="247" y="2" on="0"/>
        <pt x="210" y="2" on="0"/>
        <pt x="176" y="2" on="0"/>
        <pt x="165" y="2" on="1"/>
        <pt x="155" y="2" on="0"/>
        <pt x="120" y="2" on="0"/>
        <pt x="83" y="2" on="0"/>
        <pt x="51" y="1" on="0"/>
        <pt x="42" y="0" on="1"/>
        <pt x="42" y="43" on="1"/>
        <pt x="111" y="43" on="1"/>
        <pt x="111" y="604" on="1"/>
        <pt x="111" y="619" on="0"/>
        <pt x="107" y="634" on="0"/>
        <pt x="93" y="642" on="0"/>
        <pt x="65" y="643" on="0"/>
        <pt x="42" y="643" on="1"/>
        <pt x="42" y="686" on="1"/>
        <pt x="215" y="694" on="1"/>
        <pt x="215" y="349" on="1"/>
        <pt x="216" y="349" on="1"/>
        <pt x="221" y="360" on="0"/>
        <pt x="245" y="395" on="0"/>
        <pt x="285" y="427" on="0"/>
        <pt x="342" y="450" on="0"/>
        <pt x="380" y="450" on="1"/>
        <pt x="463" y="450" on="0"/>
        <pt x="531" y="378" on="0"/>
        <pt x="531" y="306" on="1"/>
      </contour>
    </TTGlyph>
    <TTGlyph name="hungarumlaut" xMin="138" yMin="516" xMax="479" yMax="709">
      <contour>
        <pt x="174" y="516" on="1"/>
        <pt x="138" y="538" on="1"/>
        <pt x="178" y="663" on="1"/>
        <pt x="180" y="669" on="0"/>
        <pt x="186" y="685" on="0"/>
        <pt x="198" y="699" on="0"/>
        <pt x="216" y="709" on="0"/>
        <pt x="229" y="709" on="1"/>
        <pt x="253" y="709" on="0"/>
        <pt x="292" y="674" on="0"/>
        <pt x="292" y="652" on="1"/>
        <pt x="292" y="636" on="0"/>
        <pt x="277" y="617" on="0"/>
        <pt x="271" y="611" on="1"/>
      </contour>
      <contour>
        <pt x="365" y="663" on="1"/>
        <pt x="367" y="669" on="0"/>
        <pt x="373" y="685" on="0"/>
        <pt x="385" y="699" on="0"/>
        <pt x="403" y="709" on="0"/>
        <pt x="416" y="709" on="1"/>
        <pt x="440" y="709" on="0"/>
        <pt x="479" y="674" on="0"/>
        <pt x="479" y="652" on="1"/>
        <pt x="479" y="636" on="0"/>
        <pt x="464" y="617" on="0"/>
        <pt x="458" y="611" on="1"/>
        <pt x="361" y="516" on="1"/>
        <pt x="325" y="538" on="1"/>
      </contour>
    </TTGlyph>
    <TTGlyph name="hyphen" xMin="12" yMin="176" xMax="312" yMax="268">
      <contour>
        <pt x="12" y="176" on="1"/>
        <pt x="12" y="268" on="1"/>
        <pt x="312" y="268" on="1"/>
        <pt x="312" y="176" on="1"/>
      </contour>
    </TTGlyph>
    <TTGlyph name="i" xMin="44" yMin="0" xMax="279" yMax="695">
      <contour>
        <pt x="223" y="623" on="1"/>
        <pt x="223" y="592" on="0"/>
        <pt x="180" y="551" on="0"/>
        <pt x="151" y="551" on="1"/>
        <pt x="120" y="551" on="0"/>
        <pt x="79" y="594" on="0"/>
        <pt x="79" y="623" on="1"/>
        <pt x="79" y="652" on="0"/>
        <pt x="120" y="695" on="0"/>
        <pt x="151" y="695" on="1"/>
        <pt x="180" y="695" on="0"/>
        <pt x="223" y="654" on="0"/>
      </contour>
      <contour>
        <pt x="217" y="450" on="1"/>
        <pt x="217" y="43" on="1"/>
        <pt x="279" y="43" on="1"/>
        <pt x="279" y="0" on="1"/>
        <pt x="270" y="1" on="0"/>
        <pt x="239" y="2" on="0"/>
        <pt x="206" y="2" on="0"/>
        <pt x="174" y="2" on="0"/>
        <pt x="163" y="2" on="1"/>
        <pt x="153" y="2" on="0"/>
        <pt x="120" y="2" on="0"/>
        <pt x="84" y="2" on="0"/>
        <pt x="53" y="1" on="0"/>
        <pt x="44" y="0" on="1"/>
        <pt x="44" y="43" on="1"/>
        <pt x="113" y="43" on="1"/>
        <pt x="113" y="360" on="1"/>
        <pt x="113" y="375" on="0"/>
        <pt x="109" y="390" on="0"/>
        <pt x="95" y="398" on="0"/>
        <pt x="69" y="399" on="0"/>
        <pt x="47" y="399" on="1"/>
        <pt x="47" y="442" on="1"/>
      </contour>
    </TTGlyph>
    <TTGlyph name="j" xMin="-53" yMin="-200" xMax="258" yMax="695">
      <contour>
        <pt x="258" y="623" on="1"/>
        <pt x="258" y="593" on="0"/>
        <pt x="216" y="551" on="0"/>
        <pt x="186" y="551" on="1"/>
        <pt x="156" y="551" on="0"/>
        <pt x="114" y="593" on="0"/>
        <pt x="114" y="623" on="1"/>
        <pt x="114" y="653" on="0"/>
        <pt x="156" y="695" on="0"/>
        <pt x="186" y="695" on="1"/>
        <pt x="216" y="695" on="0"/>
        <pt x="258" y="653" on="0"/>
      </contour>
      <contour>
        <pt x="258" y="450" on="1"/>
        <pt x="258" y="-45" on="1"/>
        <pt x="258" y="-84" on="0"/>
        <pt x="226" y="-142" on="0"/>
        <pt x="176" y="-181" on="0"/>
        <pt x="113" y="-200" on="0"/>
        <pt x="81" y="-200" on="1"/>
        <pt x="54" y="-200" on="0"/>
        <pt x="5" y="-189" on="0"/>
        <pt x="-31" y="-167" on="0"/>
        <pt x="-53" y="-134" on="0"/>
        <pt x="-53" y="-112" on="1"/>
        <pt x="-53" y="-86" on="0"/>
        <pt x="-20" y="-53" on="0"/>
        <pt x="6" y="-53" on="1"/>
        <pt x="31" y="-53" on="0"/>
        <pt x="65" y="-85" on="0"/>
        <pt x="65" y="-112" on="1"/>
        <pt x="65" y="-135" on="0"/>
        <pt x="44" y="-159" on="0"/>
        <pt x="40" y="-161" on="1"/>
        <pt x="47" y="-163" on="0"/>
        <pt x="67" y="-167" on="0"/>
        <pt x="81" y="-167" on="1"/>
        <pt x="104" y="-167" on="0"/>
        <pt x="132" y="-142" on="0"/>
        <pt x="148" y="-104" on="0"/>
        <pt x="154" y="-62" on="0"/>
        <pt x="154" y="-45" on="1"/>
        <pt x="154" y="359" on="1"/>
        <pt x="154" y="375" on="0"/>
        <pt x="149" y="394" on="0"/>
        <pt x="132" y="397" on="1"/>
        <pt x="121" y="399" on="0"/>
        <pt x="91" y="399" on="0"/>
        <pt x="78" y="399" on="1"/>
        <pt x="78" y="442" on="1"/>
      </contour>
    </TTGlyph>
    <TTGlyph name="k" xMin="35" yMin="0" xMax="575" yMax="694">
      <contour>
        <pt x="499" y="64" on="1"/>
        <pt x="507" y="53" on="0"/>
        <pt x="517" y="46" on="0"/>
        <pt x="528" y="44" on="1"/>
        <pt x="536" y="43" on="0"/>
        <pt x="563" y="43" on="0"/>
        <pt x="575" y="43" on="1"/>
        <pt x="575" y="0" on="1"/>
        <pt x="559" y="1" on="0"/>
        <pt x="536" y="2" on="0"/>
        <pt x="514" y="2" on="0"/>
        <pt x="487" y="2" on="0"/>
        <pt x="468" y="2" on="1"/>
        <pt x="458" y="2" on="0"/>
        <pt x="426" y="2" on="0"/>
        <pt x="391" y="2" on="0"/>
        <pt x="360" y="1" on="0"/>
        <pt x="351" y="0" on="1"/>
        <pt x="351" y="43" on="1"/>
        <pt x="362" y="43" on="0"/>
        <pt x="385" y="45" on="0"/>
        <pt x="385" y="53" on="1"/>
        <pt x="385" y="54" on="0"/>
        <pt x="383" y="58" on="0"/>
        <pt x="378" y="64" on="1"/>
        <pt x="257" y="220" on="1"/>
        <pt x="240" y="206" on="0"/>
        <pt x="216" y="186" on="0"/>
        <pt x="204" y="177" on="1"/>
        <pt x="204" y="43" on="1"/>
        <pt x="273" y="43" on="1"/>
        <pt x="273" y="0" on="1"/>
        <pt x="264" y="1" on="0"/>
        <pt x="233" y="2" on="0"/>
        <pt x="197" y="2" on="0"/>
        <pt x="164" y="2" on="0"/>
        <pt x="154" y="2" on="1"/>
        <pt x="144" y="2" on="0"/>
        <pt x="111" y="2" on="0"/>
        <pt x="75" y="2" on="0"/>
        <pt x="44" y="1" on="0"/>
        <pt x="35" y="0" on="1"/>
        <pt x="35" y="43" on="1"/>
        <pt x="104" y="43" on="1"/>
        <pt x="104" y="604" on="1"/>
        <pt x="104" y="619" on="0"/>
        <pt x="100" y="634" on="0"/>
        <pt x="86" y="642" on="0"/>
        <pt x="58" y="643" on="0"/>
        <pt x="35" y="643" on="1"/>
        <pt x="35" y="686" on="1"/>
        <pt x="208" y="694" on="1"/>
        <pt x="208" y="234" on="1"/>
        <pt x="390" y="380" on="1"/>
        <pt x="392" y="382" on="0"/>
        <pt x="398" y="387" on="0"/>
        <pt x="398" y="390" on="1"/>
        <pt x="398" y="396" on="0"/>
        <pt x="371" y="401" on="0"/>
        <pt x="362" y="401" on="1"/>
        <pt x="362" y="444" on="1"/>
        <pt x="371" y="443" on="0"/>
        <pt x="398" y="442" on="0"/>
        <pt x="428" y="442" on="0"/>
        <pt x="457" y="442" on="0"/>
        <pt x="467" y="442" on="1"/>
        <pt x="495" y="442" on="0"/>
        <pt x="530" y="442" on="0"/>
        <pt x="550" y="444" on="1"/>
        <pt x="550" y="401" on="1"/>
        <pt x="524" y="401" on="0"/>
        <pt x="492" y="398" on="0"/>
        <pt x="473" y="393" on="0"/>
        <pt x="463" y="386" on="0"/>
        <pt x="458" y="382" on="1"/>
        <pt x="332" y="280" on="1"/>
      </contour>
    </TTGlyph>
    <TTGlyph name="l" xMin="44" yMin="0" xMax="286" yMax="694">
      <contour>
        <pt x="217" y="43" on="1"/>
        <pt x="286" y="43" on="1"/>
        <pt x="286" y="0" on="1"/>
        <pt x="277" y="1" on="0"/>
        <pt x="245" y="2" on="0"/>
        <pt x="209" y="2" on="0"/>
        <pt x="175" y="2" on="0"/>
        <pt x="165" y="2" on="1"/>
        <pt x="155" y="2" on="0"/>
        <pt x="121" y="2" on="0"/>
        <pt x="85" y="2" on="0"/>
        <pt x="53" y="1" on="0"/>
        <pt x="44" y="0" on="1"/>
        <pt x="44" y="43" on="1"/>
        <pt x="113" y="43" on="1"/>
        <pt x="113" y="604" on="1"/>
        <pt x="113" y="619" on="0"/>
        <pt x="109" y="634" on="0"/>
        <pt x="95" y="642" on="0"/>
        <pt x="67" y="643" on="0"/>
        <pt x="44" y="643" on="1"/>
        <pt x="44" y="686" on="1"/>
        <pt x="217" y="694" on="1"/>
      </contour>
    </TTGlyph>
    <TTGlyph name="m" xMin="42" yMin="0" xMax="913" yMax="450">
      <contour>
        <pt x="844" y="43" on="1"/>
        <pt x="913" y="43" on="1"/>
        <pt x="913" y="0" on="1"/>
        <pt x="904" y="1" on="0"/>
        <pt x="871" y="2" on="0"/>
        <pt x="834" y="2" on="0"/>
        <pt x="800" y="2" on="0"/>
        <pt x="789" y="2" on="1"/>
        <pt x="779" y="2" on="0"/>
        <pt x="744" y="2" on="0"/>
        <pt x="707" y="2" on="0"/>
        <pt x="675" y="1" on="0"/>
        <pt x="666" y="0" on="1"/>
        <pt x="666" y="43" on="1"/>
        <pt x="735" y="43" on="1"/>
        <pt x="735" y="317" on="1"/>
        <pt x="735" y="346" on="0"/>
        <pt x="727" y="385" on="0"/>
        <pt x="712" y="408" on="0"/>
        <pt x="690" y="417" on="0"/>
        <pt x="676" y="417" on="1"/>
        <pt x="652" y="417" on="0"/>
        <pt x="601" y="397" on="0"/>
        <pt x="559" y="357" on="0"/>
        <pt x="532" y="297" on="0"/>
        <pt x="532" y="256" on="1"/>
        <pt x="532" y="43" on="1"/>
        <pt x="601" y="43" on="1"/>
        <pt x="601" y="0" on="1"/>
        <pt x="592" y="1" on="0"/>
        <pt x="559" y="2" on="0"/>
        <pt x="522" y="2" on="0"/>
        <pt x="488" y="2" on="0"/>
        <pt x="477" y="2" on="1"/>
        <pt x="467" y="2" on="0"/>
        <pt x="432" y="2" on="0"/>
        <pt x="395" y="2" on="0"/>
        <pt x="363" y="1" on="0"/>
        <pt x="354" y="0" on="1"/>
        <pt x="354" y="43" on="1"/>
        <pt x="423" y="43" on="1"/>
        <pt x="423" y="317" on="1"/>
        <pt x="423" y="346" on="0"/>
        <pt x="415" y="385" on="0"/>
        <pt x="400" y="408" on="0"/>
        <pt x="378" y="417" on="0"/>
        <pt x="364" y="417" on="1"/>
        <pt x="340" y="417" on="0"/>
        <pt x="289" y="397" on="0"/>
        <pt x="247" y="357" on="0"/>
        <pt x="220" y="297" on="0"/>
        <pt x="220" y="256" on="1"/>
        <pt x="220" y="43" on="1"/>
        <pt x="289" y="43" on="1"/>
        <pt x="289" y="0" on="1"/>
        <pt x="280" y="1" on="0"/>
        <pt x="247" y="2" on="0"/>
        <pt x="210" y="2" on="0"/>
        <pt x="176" y="2" on="0"/>
        <pt x="165" y="2" on="1"/>
        <pt x="155" y="2" on="0"/>
        <pt x="120" y="2" on="0"/>
        <pt x="83" y="2" on="0"/>
        <pt x="51" y="1" on="0"/>
        <pt x="42" y="0" on="1"/>
        <pt x="42" y="43" on="1"/>
        <pt x="111" y="43" on="1"/>
        <pt x="111" y="360" on="1"/>
        <pt x="111" y="375" on="0"/>
        <pt x="107" y="390" on="0"/>
        <pt x="93" y="398" on="0"/>
        <pt x="65" y="399" on="0"/>
        <pt x="42" y="399" on="1"/>
        <pt x="42" y="442" on="1"/>
        <pt x="211" y="450" on="1"/>
        <pt x="211" y="340" on="1"/>
        <pt x="212" y="340" on="1"/>
        <pt x="220" y="358" on="0"/>
        <pt x="248" y="397" on="0"/>
        <pt x="289" y="429" on="0"/>
        <pt x="345" y="450" on="0"/>
        <pt x="381" y="450" on="1"/>
        <pt x="405" y="450" on="0"/>
        <pt x="453" y="443" on="0"/>
        <pt x="493" y="421" on="0"/>
        <pt x="523" y="382" on="0"/>
        <pt x="529" y="350" on="1"/>
        <pt x="535" y="362" on="0"/>
        <pt x="559" y="396" on="0"/>
        <pt x="599" y="428" on="0"/>
        <pt x="655" y="450" on="0"/>
        <pt x="693" y="450" on="1"/>
        <pt x="777" y="450" on="0"/>
        <pt x="844" y="375" on="0"/>
        <pt x="844" y="306" on="1"/>
      </contour>
    </TTGlyph>
    <TTGlyph name="macron" xMin="78" yMin="557" xMax="483" yMax="605">
      <contour>
        <pt x="78" y="557" on="1"/>
        <pt x="78" y="605" on="1"/>
        <pt x="483" y="605" on="1"/>
        <pt x="483" y="557" on="1"/>
      </contour>
    </TTGlyph>
    <TTGlyph name="n" xMin="42" yMin="0" xMax="600" yMax="450">
      <contour>
        <pt x="531" y="43" on="1"/>
        <pt x="600" y="43" on="1"/>
        <pt x="600" y="0" on="1"/>
        <pt x="591" y="1" on="0"/>
        <pt x="558" y="2" on="0"/>
        <pt x="521" y="2" on="0"/>
        <pt x="487" y="2" on="0"/>
        <pt x="476" y="2" on="1"/>
        <pt x="466" y="2" on="0"/>
        <pt x="431" y="2" on="0"/>
        <pt x="394" y="2" on="0"/>
        <pt x="362" y="1" on="0"/>
        <pt x="353" y="0" on="1"/>
        <pt x="353" y="43" on="1"/>
        <pt x="422" y="43" on="1"/>
        <pt x="422" y="317" on="1"/>
        <pt x="422" y="374" on="0"/>
        <pt x="392" y="417" on="0"/>
        <pt x="364" y="417" on="1"/>
        <pt x="340" y="417" on="0"/>
        <pt x="289" y="397" on="0"/>
        <pt x="247" y="357" on="0"/>
        <pt x="220" y="297" on="0"/>
        <pt x="220" y="256" on="1"/>
        <pt x="220" y="43" on="1"/>
        <pt x="289" y="43" on="1"/>
        <pt x="289" y="0" on="1"/>
        <pt x="280" y="1" on="0"/>
        <pt x="247" y="2" on="0"/>
        <pt x="210" y="2" on="0"/>
        <pt x="176" y="2" on="0"/>
        <pt x="165" y="2" on="1"/>
        <pt x="155" y="2" on="0"/>
        <pt x="120" y="2" on="0"/>
        <pt x="83" y="2" on="0"/>
        <pt x="51" y="1" on="0"/>
        <pt x="42" y="0" on="1"/>
        <pt x="42" y="43" on="1"/>
        <pt x="111" y="43" on="1"/>
        <pt x="111" y="360" on="1"/>
        <pt x="111" y="375" on="0"/>
        <pt x="107" y="390" on="0"/>
        <pt x="93" y="398" on="0"/>
        <pt x="65" y="399" on="0"/>
        <pt x="42" y="399" on="1"/>
        <pt x="42" y="442" on="1"/>
        <pt x="211" y="450" on="1"/>
        <pt x="211" y="340" on="1"/>
        <pt x="212" y="340" on="1"/>
        <pt x="238" y="397" on="0"/>
        <pt x="326" y="450" on="0"/>
        <pt x="380" y="450" on="1"/>
        <pt x="463" y="450" on="0"/>
        <pt x="531" y="378" on="0"/>
        <pt x="531" y="306" on="1"/>
      </contour>
    </TTGlyph>
    <TTGlyph name="nine" xMin="47" yMin="-12" xMax="514" yMax="656">
      <contour>
        <pt x="387" y="311" on="1"/>
        <pt x="375" y="284" on="0"/>
        <pt x="345" y="251" on="0"/>
        <pt x="312" y="232" on="0"/>
        <pt x="279" y="225" on="0"/>
        <pt x="263" y="225" on="1"/>
        <pt x="218" y="225" on="0"/>
        <pt x="139" y="253" on="0"/>
        <pt x="81" y="307" on="0"/>
        <pt x="47" y="387" on="0"/>
        <pt x="47" y="439" on="1"/>
        <pt x="47" y="490" on="0"/>
        <pt x="82" y="571" on="0"/>
        <pt x="145" y="627" on="0"/>
        <pt x="231" y="656" on="0"/>
        <pt x="283" y="656" on="1"/>
        <pt x="341" y="656" on="0"/>
        <pt x="420" y="617" on="0"/>
        <pt x="471" y="555" on="0"/>
        <pt x="499" y="480" on="0"/>
        <pt x="512" y="407" on="0"/>
        <pt x="514" y="346" on="0"/>
        <pt x="514" y="329" on="1"/>
        <pt x="514" y="232" on="0"/>
        <pt x="462" y="102" on="0"/>
        <pt x="380" y="22" on="0"/>
        <pt x="281" y="-12" on="0"/>
        <pt x="233" y="-12" on="1"/>
        <pt x="155" y="-12" on="0"/>
        <pt x="75" y="56" on="0"/>
        <pt x="75" y="109" on="1"/>
        <pt x="75" y="142" on="0"/>
        <pt x="114" y="170" on="0"/>
        <pt x="134" y="170" on="1"/>
        <pt x="158" y="170" on="0"/>
        <pt x="193" y="138" on="0"/>
        <pt x="193" y="111" on="1"/>
        <pt x="193" y="87" on="0"/>
        <pt x="165" y="57" on="0"/>
        <pt x="143" y="52" on="1"/>
        <pt x="159" y="40" on="0"/>
        <pt x="208" y="28" on="0"/>
        <pt x="231" y="28" on="1"/>
        <pt x="270" y="28" on="0"/>
        <pt x="323" y="56" on="0"/>
        <pt x="358" y="101" on="0"/>
        <pt x="377" y="157" on="0"/>
        <pt x="386" y="213" on="0"/>
        <pt x="387" y="265" on="0"/>
        <pt x="387" y="282" on="1"/>
      </contour>
      <contour>
        <pt x="273" y="258" on="1"/>
        <pt x="305" y="258" on="0"/>
        <pt x="348" y="291" on="0"/>
        <pt x="374" y="341" on="0"/>
        <pt x="386" y="401" on="0"/>
        <pt x="386" y="427" on="1"/>
        <pt x="386" y="439" on="0"/>
        <pt x="385" y="473" on="0"/>
        <pt x="382" y="508" on="0"/>
        <pt x="378" y="541" on="0"/>
        <pt x="374" y="552" on="1"/>
        <pt x="373" y="556" on="0"/>
        <pt x="362" y="578" on="0"/>
        <pt x="340" y="602" on="0"/>
        <pt x="307" y="620" on="0"/>
        <pt x="283" y="620" on="1"/>
        <pt x="242" y="620" on="0"/>
        <pt x="198" y="590" on="0"/>
        <pt x="177" y="539" on="0"/>
        <pt x="174" y="473" on="0"/>
        <pt x="174" y="437" on="1"/>
        <pt x="174" y="400" on="0"/>
        <pt x="177" y="335" on="0"/>
        <pt x="196" y="286" on="0"/>
        <pt x="236" y="258" on="0"/>
      </contour>
    </TTGlyph>
    <TTGlyph name="numbersign" xMin="62" yMin="-194" xMax="874" yMax="694">
      <contour>
        <pt x="497" y="-166" on="1"/>
        <pt x="494" y="-176" on="0"/>
        <pt x="484" y="-194" on="0"/>
        <pt x="469" y="-194" on="1"/>
        <pt x="455" y="-194" on="0"/>
        <pt x="441" y="-177" on="0"/>
        <pt x="441" y="-167" on="1"/>
        <pt x="441" y="-165" on="0"/>
        <pt x="442" y="-159" on="0"/>
        <pt x="446" y="-148" on="1"/>
        <pt x="524" y="113" on="1"/>
        <pt x="328" y="113" on="1"/>
        <pt x="243" y="-166" on="1"/>
        <pt x="240" y="-176" on="0"/>
        <pt x="230" y="-194" on="0"/>
        <pt x="215" y="-194" on="1"/>
        <pt x="201" y="-194" on="0"/>
        <pt x="187" y="-177" on="0"/>
        <pt x="187" y="-167" on="1"/>
        <pt x="187" y="-165" on="0"/>
        <pt x="188" y="-159" on="0"/>
        <pt x="192" y="-148" on="1"/>
        <pt x="270" y="113" on="1"/>
        <pt x="102" y="113" on="1"/>
        <pt x="97" y="113" on="0"/>
        <pt x="83" y="114" on="0"/>
        <pt x="71" y="119" on="0"/>
        <pt x="62" y="130" on="0"/>
        <pt x="62" y="140" on="1"/>
        <pt x="62" y="151" on="0"/>
        <pt x="71" y="162" on="0"/>
        <pt x="83" y="167" on="0"/>
        <pt x="97" y="168" on="0"/>
        <pt x="103" y="168" on="1"/>
        <pt x="288" y="168" on="1"/>
        <pt x="337" y="331" on="1"/>
        <pt x="103" y="331" on="1"/>
        <pt x="97" y="331" on="0"/>
        <pt x="83" y="332" on="0"/>
        <pt x="71" y="337" on="0"/>
        <pt x="62" y="349" on="0"/>
        <pt x="62" y="359" on="1"/>
        <pt x="62" y="369" on="0"/>
        <pt x="71" y="380" on="0"/>
        <pt x="83" y="385" on="0"/>
        <pt x="97" y="386" on="0"/>
        <pt x="102" y="386" on="1"/>
        <pt x="354" y="386" on="1"/>
        <pt x="439" y="666" on="1"/>
        <pt x="442" y="676" on="0"/>
        <pt x="452" y="694" on="0"/>
        <pt x="467" y="694" on="1"/>
        <pt x="481" y="694" on="0"/>
        <pt x="495" y="677" on="0"/>
        <pt x="495" y="667" on="1"/>
        <pt x="495" y="665" on="0"/>
        <pt x="494" y="659" on="0"/>
        <pt x="490" y="648" on="1"/>
        <pt x="412" y="386" on="1"/>
        <pt x="608" y="386" on="1"/>
        <pt x="693" y="666" on="1"/>
        <pt x="696" y="676" on="0"/>
        <pt x="706" y="694" on="0"/>
        <pt x="721" y="694" on="1"/>
        <pt x="735" y="694" on="0"/>
        <pt x="749" y="677" on="0"/>
        <pt x="749" y="667" on="1"/>
        <pt x="749" y="665" on="0"/>
        <pt x="748" y="659" on="0"/>
        <pt x="744" y="648" on="1"/>
        <pt x="666" y="386" on="1"/>
        <pt x="834" y="386" on="1"/>
        <pt x="839" y="386" on="0"/>
        <pt x="853" y="385" on="0"/>
        <pt x="865" y="380" on="0"/>
        <pt x="874" y="369" on="0"/>
        <pt x="874" y="359" on="1"/>
        <pt x="874" y="349" on="0"/>
        <pt x="865" y="337" on="0"/>
        <pt x="853" y="332" on="0"/>
        <pt x="839" y="331" on="0"/>
        <pt x="833" y="331" on="1"/>
        <pt x="648" y="331" on="1"/>
        <pt x="599" y="168" on="1"/>
        <pt x="833" y="168" on="1"/>
        <pt x="839" y="168" on="0"/>
        <pt x="853" y="167" on="0"/>
        <pt x="865" y="162" on="0"/>
        <pt x="874" y="151" on="0"/>
        <pt x="874" y="140" on="1"/>
        <pt x="874" y="130" on="0"/>
        <pt x="865" y="119" on="0"/>
        <pt x="853" y="114" on="0"/>
        <pt x="839" y="113" on="0"/>
        <pt x="834" y="113" on="1"/>
        <pt x="582" y="113" on="1"/>
      </contour>
      <contour>
        <pt x="542" y="168" on="1"/>
        <pt x="591" y="331" on="1"/>
        <pt x="394" y="331" on="1"/>
        <pt x="345" y="168" on="1"/>
      </contour>
    </TTGlyph>
    <TTGlyph name="o" xMin="31" yMin="-6" xMax="530" yMax="453">
      <contour>
        <pt x="530" y="219" on="1"/>
        <pt x="530" y="172" on="0"/>
        <pt x="498" y="90" on="0"/>
        <pt x="435" y="29" on="0"/>
        <pt x="341" y="-6" on="0"/>
        <pt x="280" y="-6" on="1"/>
        <pt x="221" y="-6" on="0"/>
        <pt x="129" y="27" on="0"/>
        <pt x="65" y="87" on="0"/>
        <pt x="31" y="170" on="0"/>
        <pt x="31" y="219" on="1"/>
        <pt x="31" y="268" on="0"/>
        <pt x="63" y="353" on="0"/>
        <pt x="126" y="416" on="0"/>
        <pt x="220" y="453" on="0"/>
        <pt x="281" y="453" on="1"/>
        <pt x="340" y="453" on="0"/>
        <pt x="432" y="418" on="0"/>
        <pt x="496" y="355" on="0"/>
        <pt x="530" y="270" on="0"/>
      </contour>
      <contour>
        <pt x="281" y="30" on="1"/>
        <pt x="329" y="30" on="0"/>
        <pt x="382" y="69" on="0"/>
        <pt x="406" y="128" on="0"/>
        <pt x="410" y="198" on="0"/>
        <pt x="410" y="229" on="1"/>
        <pt x="410" y="265" on="0"/>
        <pt x="405" y="338" on="0"/>
        <pt x="390" y="365" on="1"/>
        <pt x="377" y="386" on="0"/>
        <pt x="323" y="420" on="0"/>
        <pt x="280" y="420" on="1"/>
        <pt x="248" y="420" on="0"/>
        <pt x="187" y="392" on="0"/>
        <pt x="170" y="362" on="1"/>
        <pt x="156" y="335" on="0"/>
        <pt x="151" y="264" on="0"/>
        <pt x="151" y="229" on="1"/>
        <pt x="151" y="198" on="0"/>
        <pt x="155" y="128" on="0"/>
        <pt x="179" y="69" on="0"/>
        <pt x="232" y="30" on="0"/>
      </contour>
    </TTGlyph>
    <TTGlyph name="oe" xMin="31" yMin="-6" xMax="843" yMax="453">
      <contour>
        <pt x="523" y="221" on="1"/>
        <pt x="523" y="210" on="0"/>
        <pt x="525" y="174" on="0"/>
        <pt x="533" y="131" on="0"/>
        <pt x="552" y="88" on="0"/>
        <pt x="585" y="52" on="0"/>
        <pt x="636" y="30" on="0"/>
        <pt x="673" y="30" on="1"/>
        <pt x="690" y="30" on="0"/>
        <pt x="727" y="39" on="0"/>
        <pt x="761" y="59" on="0"/>
        <pt x="791" y="91" on="0"/>
        <pt x="800" y="115" on="1"/>
        <pt x="803" y="125" on="0"/>
        <pt x="810" y="132" on="0"/>
        <pt x="822" y="132" on="1"/>
        <pt x="827" y="132" on="0"/>
        <pt x="843" y="128" on="0"/>
        <pt x="843" y="117" on="1"/>
        <pt x="843" y="110" on="0"/>
        <pt x="825" y="70" on="0"/>
        <pt x="783" y="27" on="0"/>
        <pt x="713" y="-6" on="0"/>
        <pt x="662" y="-6" on="1"/>
        <pt x="654" y="-6" on="0"/>
        <pt x="612" y="-4" on="0"/>
        <pt x="556" y="11" on="0"/>
        <pt x="496" y="42" on="0"/>
        <pt x="470" y="71" on="1"/>
        <pt x="467" y="67" on="0"/>
        <pt x="441" y="42" on="0"/>
        <pt x="394" y="15" on="0"/>
        <pt x="325" y="-6" on="0"/>
        <pt x="277" y="-6" on="1"/>
        <pt x="220" y="-6" on="0"/>
        <pt x="128" y="28" on="0"/>
        <pt x="65" y="89" on="0"/>
        <pt x="31" y="174" on="0"/>
        <pt x="31" y="224" on="1"/>
        <pt x="31" y="274" on="0"/>
        <pt x="65" y="358" on="0"/>
        <pt x="128" y="419" on="0"/>
        <pt x="220" y="453" on="0"/>
        <pt x="277" y="453" on="1"/>
        <pt x="331" y="453" on="0"/>
        <pt x="432" y="418" on="0"/>
        <pt x="468" y="379" on="1"/>
        <pt x="489" y="402" on="0"/>
        <pt x="536" y="431" on="0"/>
        <pt x="584" y="447" on="0"/>
        <pt x="630" y="453" on="0"/>
        <pt x="649" y="453" on="1"/>
        <pt x="706" y="453" on="0"/>
        <pt x="781" y="416" on="0"/>
        <pt x="825" y="357" on="0"/>
        <pt x="843" y="283" on="0"/>
        <pt x="843" y="246" on="1"/>
        <pt x="843" y="227" on="0"/>
        <pt x="831" y="221" on="0"/>
        <pt x="814" y="221" on="1"/>
      </contour>
      <contour>
        <pt x="751" y="250" on="1"/>
        <pt x="750" y="269" on="0"/>
        <pt x="745" y="327" on="0"/>
        <pt x="725" y="381" on="0"/>
        <pt x="684" y="420" on="0"/>
        <pt x="648" y="420" on="1"/>
        <pt x="638" y="420" on="0"/>
        <pt x="613" y="416" on="0"/>
        <pt x="586" y="404" on="0"/>
        <pt x="561" y="384" on="0"/>
        <pt x="550" y="368" on="1"/>
        <pt x="536" y="345" on="0"/>
        <pt x="525" y="288" on="0"/>
        <pt x="523" y="250" on="1"/>
      </contour>
      <contour>
        <pt x="278" y="27" on="1"/>
        <pt x="290" y="27" on="0"/>
        <pt x="319" y="32" on="0"/>
        <pt x="350" y="46" on="0"/>
        <pt x="379" y="70" on="0"/>
        <pt x="390" y="89" on="1"/>
        <pt x="408" y="121" on="0"/>
        <pt x="414" y="199" on="0"/>
        <pt x="414" y="228" on="1"/>
        <pt x="414" y="243" on="0"/>
        <pt x="413" y="278" on="0"/>
        <pt x="409" y="314" on="0"/>
        <pt x="398" y="348" on="0"/>
        <pt x="389" y="363" on="1"/>
        <pt x="366" y="397" on="0"/>
        <pt x="305" y="420" on="0"/>
        <pt x="278" y="420" on="1"/>
        <pt x="227" y="420" on="0"/>
        <pt x="172" y="377" on="0"/>
        <pt x="146" y="316" on="0"/>
        <pt x="142" y="251" on="0"/>
        <pt x="142" y="228" on="1"/>
        <pt x="142" y="214" on="0"/>
        <pt x="143" y="172" on="0"/>
        <pt x="151" y="128" on="0"/>
        <pt x="167" y="84" on="0"/>
        <pt x="197" y="49" on="0"/>
        <pt x="244" y="27" on="0"/>
      </contour>
    </TTGlyph>
</ttFont>
